<svg width="78" height="68" viewBox="0 0 78 68" fill="none" xmlns="http://www.w3.org/2000/svg">
<path d="M6.78223 62.1768H2.8584L1.86719 65H0.575195L4.21191 55.1357H5.42871L9.06543 65H7.77344L6.78223 62.1768ZM3.2207 61.1309H6.41992L4.84082 56.6328H4.7998L3.2207 61.1309ZM16.168 65H14.6299L11.4102 61.4385H11.3555V65H10.1797V57.6309H11.3555V60.9053H11.4102L14.5957 57.6309H16.0723L12.6064 61.124L16.168 65ZM21.9717 59.8867C21.8669 59.5085 21.6595 59.2077 21.3496 58.9844C21.0124 58.7428 20.5931 58.6221 20.0918 58.6221C19.4447 58.6221 18.9251 58.8682 18.5332 59.3604C18.1322 59.8525 17.9316 60.5042 17.9316 61.3154C17.9316 62.1449 18.1344 62.8034 18.54 63.291C18.932 63.7695 19.4538 64.0088 20.1055 64.0088C21.1126 64.0088 21.7393 63.5941 21.9854 62.7646H23.168C23.0449 63.4528 22.7077 64.0065 22.1562 64.4258C21.5957 64.8542 20.9098 65.0684 20.0986 65.0684C19.0778 65.0684 18.262 64.7334 17.6514 64.0635C17.0316 63.3799 16.7217 62.4639 16.7217 61.3154C16.7217 60.1852 17.0293 59.276 17.6445 58.5879C18.2598 57.9043 19.0732 57.5625 20.085 57.5625C20.9235 57.5625 21.6276 57.7949 22.1973 58.2598C22.7214 58.6882 23.0404 59.2305 23.1543 59.8867H21.9717ZM27.3926 58.6084C26.8138 58.6084 26.3353 58.7998 25.957 59.1826C25.5742 59.5654 25.3623 60.069 25.3213 60.6934H29.375C29.3613 60.069 29.1722 59.5654 28.8076 59.1826C28.4476 58.7998 27.9759 58.6084 27.3926 58.6084ZM30.5234 62.8945C30.4232 63.528 30.0859 64.0475 29.5117 64.4531C28.9375 64.8633 28.2562 65.0684 27.4678 65.0684C26.4333 65.0684 25.6107 64.7334 25 64.0635C24.3939 63.3936 24.0908 62.4867 24.0908 61.3428C24.0908 60.1989 24.3939 59.2829 25 58.5947C25.6061 57.9066 26.4105 57.5625 27.4131 57.5625C28.3975 57.5625 29.1768 57.8861 29.751 58.5332C30.3252 59.1849 30.6123 60.0667 30.6123 61.1787V61.6436H25.3213V61.7119C25.3213 62.4137 25.5195 62.9743 25.916 63.3936C26.3125 63.8128 26.8389 64.0225 27.4951 64.0225C27.9554 64.0225 28.3542 63.9199 28.6914 63.7148C29.0241 63.5143 29.2428 63.2409 29.3477 62.8945H30.5234ZM36.8877 59.8867C36.7829 59.5085 36.5755 59.2077 36.2656 58.9844C35.9284 58.7428 35.5091 58.6221 35.0078 58.6221C34.3607 58.6221 33.8411 58.8682 33.4492 59.3604C33.0482 59.8525 32.8477 60.5042 32.8477 61.3154C32.8477 62.1449 33.0505 62.8034 33.4561 63.291C33.848 63.7695 34.3698 64.0088 35.0215 64.0088C36.0286 64.0088 36.6553 63.5941 36.9014 62.7646H38.084C37.9609 63.4528 37.6237 64.0065 37.0723 64.4258C36.5117 64.8542 35.8258 65.0684 35.0146 65.0684C33.9938 65.0684 33.1781 64.7334 32.5674 64.0635C31.9476 63.3799 31.6377 62.4639 31.6377 61.3154C31.6377 60.1852 31.9453 59.276 32.5605 58.5879C33.1758 57.9043 33.9893 57.5625 35.001 57.5625C35.8395 57.5625 36.5436 57.7949 37.1133 58.2598C37.6374 58.6882 37.9564 59.2305 38.0703 59.8867H36.8877ZM44.2568 59.8867C44.152 59.5085 43.9447 59.2077 43.6348 58.9844C43.2975 58.7428 42.8783 58.6221 42.377 58.6221C41.7298 58.6221 41.2103 58.8682 40.8184 59.3604C40.4173 59.8525 40.2168 60.5042 40.2168 61.3154C40.2168 62.1449 40.4196 62.8034 40.8252 63.291C41.2171 63.7695 41.7389 64.0088 42.3906 64.0088C43.3978 64.0088 44.0244 63.5941 44.2705 62.7646H45.4531C45.3301 63.4528 44.9928 64.0065 44.4414 64.4258C43.8809 64.8542 43.195 65.0684 42.3838 65.0684C41.363 65.0684 40.5472 64.7334 39.9365 64.0635C39.3167 63.3799 39.0068 62.4639 39.0068 61.3154C39.0068 60.1852 39.3145 59.276 39.9297 58.5879C40.5449 57.9043 41.3584 57.5625 42.3701 57.5625C43.2087 57.5625 43.9128 57.7949 44.4824 58.2598C45.0065 58.6882 45.3255 59.2305 45.4395 59.8867H44.2568ZM47.3672 67.6729C47.1895 67.6729 47.0163 67.6569 46.8477 67.625V66.6201C46.9844 66.6475 47.1462 66.6611 47.333 66.6611C47.6748 66.6611 47.9482 66.57 48.1533 66.3877C48.3584 66.2008 48.5361 65.8864 48.6865 65.4443L48.8301 65.0068L46.1025 57.6309H47.3672L49.4316 63.79H49.459L51.5234 57.6309H52.7744L49.8896 65.4512C49.5752 66.3034 49.2402 66.8867 48.8848 67.2012C48.5247 67.5156 48.0189 67.6729 47.3672 67.6729ZM56.2949 64.0361C56.8965 64.0361 57.3955 63.863 57.792 63.5166C58.1839 63.1657 58.3799 62.7259 58.3799 62.1973V61.6025L56.4521 61.7256C55.3311 61.7939 54.7705 62.1882 54.7705 62.9082C54.7705 63.25 54.9095 63.5234 55.1875 63.7285C55.4609 63.9336 55.8301 64.0361 56.2949 64.0361ZM56.042 65.0684C55.2946 65.0684 54.693 64.8701 54.2373 64.4736C53.7816 64.0771 53.5537 63.5531 53.5537 62.9014C53.5537 62.2679 53.7907 61.7712 54.2646 61.4111C54.7386 61.0465 55.4222 60.8369 56.3154 60.7822L58.3799 60.6592V60.0439C58.3799 59.5882 58.234 59.2373 57.9424 58.9912C57.6507 58.7451 57.2337 58.6221 56.6914 58.6221C56.263 58.6221 55.903 58.7246 55.6113 58.9297C55.3151 59.1348 55.1305 59.4105 55.0576 59.7568H53.916C53.9342 59.137 54.21 58.6152 54.7432 58.1914C55.2764 57.7721 55.9303 57.5625 56.7051 57.5625C57.5755 57.5625 58.2705 57.7767 58.79 58.2051C59.3096 58.638 59.5693 59.2168 59.5693 59.9414V65H58.4414V63.7217H58.4141C58.2044 64.1318 57.8854 64.4577 57.457 64.6992C57.0286 64.9453 56.557 65.0684 56.042 65.0684ZM64.7852 57.5625C65.7285 57.5625 66.4896 57.9066 67.0684 58.5947C67.6517 59.2874 67.9434 60.1943 67.9434 61.3154C67.9434 62.4365 67.654 63.3434 67.0752 64.0361C66.4964 64.7243 65.7422 65.0684 64.8125 65.0684C63.7324 65.0684 62.9486 64.6468 62.4609 63.8037H62.4336V67.4609H61.2441V57.6309H62.3721V58.8271H62.3994C62.6136 58.4443 62.9372 58.1367 63.3701 57.9043C63.8031 57.6764 64.2747 57.5625 64.7852 57.5625ZM64.5664 64.0088C65.2181 64.0088 65.7399 63.765 66.1318 63.2773C66.5283 62.7852 66.7266 62.1312 66.7266 61.3154C66.7266 60.5042 66.5283 59.8525 66.1318 59.3604C65.7399 58.8682 65.2181 58.6221 64.5664 58.6221C63.9329 58.6221 63.418 58.8704 63.0215 59.3672C62.625 59.8639 62.4268 60.5133 62.4268 61.3154C62.4268 62.1175 62.625 62.7669 63.0215 63.2637C63.4134 63.7604 63.9284 64.0088 64.5664 64.0088ZM75.5996 57.6309H76.7754V65H75.5996V57.6309ZM70.5137 60.9805V64.0156H71.9014C72.3844 64.0156 72.7718 63.8766 73.0635 63.5986C73.3506 63.3252 73.4941 62.9583 73.4941 62.498C73.4941 62.0378 73.3483 61.6686 73.0566 61.3906C72.7695 61.1172 72.3844 60.9805 71.9014 60.9805H70.5137ZM69.3379 57.6309H70.5137V59.9961H71.9014C72.7445 59.9961 73.4167 60.2217 73.918 60.6729C74.4193 61.124 74.6699 61.7324 74.6699 62.498C74.6699 63.2637 74.4193 63.8721 73.918 64.3232C73.4167 64.7744 72.7445 65 71.9014 65H69.3379V57.6309Z" fill="#1F1F1F"/>
<g opacity="0.3">
<path d="M35.7266 34.7866H33.9495C33.2091 34.7866 32.6167 35.3787 32.6167 36.1189V40.8557C32.6167 41.5958 33.2091 42.1879 33.9495 42.1879H35.7266C36.4671 42.1879 37.0595 41.5958 37.0595 40.8557V36.1189C37.0595 35.3787 36.4671 34.7866 35.7266 34.7866ZM36.319 40.8557C36.319 41.1814 36.0524 41.4478 35.7266 41.4478H33.9495C33.6237 41.4478 33.3572 41.1814 33.3572 40.8557V40.2636H36.319V40.8557Z" fill="white"/>
<path d="M35.7269 34.0461H33.9498C32.7946 34.0461 31.8765 34.9639 31.8765 36.1185V40.8554C31.8765 42.01 32.7946 42.9277 33.9498 42.9277H35.7269C36.882 42.9277 37.8002 42.01 37.8002 40.8554V40.2632C37.8002 40.2632 37.8002 38.6054 37.8002 36.1185C37.8002 34.9639 36.882 34.0461 35.7269 34.0461ZM36.3192 40.8554C36.3192 41.181 36.0527 41.4475 35.7269 41.4475H33.9498C33.624 41.4475 33.3574 41.181 33.3574 40.8554V36.1185C33.3574 35.7929 33.624 35.5264 33.9498 35.5264H35.7269C36.0527 35.5264 36.3192 35.7929 36.3192 36.1185V40.8554Z" fill="black"/>
<path d="M33.4465 2.57566C31.9359 0.976972 29.8035 0 27.4341 0C25.5089 0 23.7614 0.651314 22.3398 1.74671C20.8589 2.90131 20 4.70723 20 6.60197V9.97697C20 11.8717 20.8293 13.6776 22.3398 14.8322C23.7318 15.9276 25.5089 16.5789 27.4341 16.5789C29.063 16.5789 30.6032 16.1053 31.8767 15.2763V40.2631H37.8003C37.8003 40.2631 37.8003 38.6052 37.8003 36.1184V13.6184C37.8003 8.28947 35.9343 5.15131 33.4465 2.57566ZM21.6882 12.0197C21.2735 12.0197 21.0662 10.3322 21.0662 8.25986C21.0662 6.18749 21.2735 4.5 21.6882 4.5C22.1028 4.5 22.4286 6.18749 22.4286 8.25986C22.4286 10.3618 22.1028 12.0197 21.6882 12.0197ZM26.1013 8.88157C25.6866 8.88157 25.3608 8.55592 25.3608 8.14144C25.3608 7.72697 25.6866 7.40131 26.1013 7.40131C26.5159 7.40131 26.8417 7.72697 26.8417 8.14144C26.8417 8.55592 26.5159 8.88157 26.1013 8.88157ZM31.7582 5.32894C31.5805 5.03289 31.3436 4.76644 31.1067 4.5C30.8697 4.26315 30.5735 4.02631 30.2773 3.84868C29.9516 3.61184 29.7442 3.19737 29.8923 2.8125C29.9812 2.57566 30.2477 2.42763 30.5143 2.42763C30.692 2.42763 30.8697 2.48684 31.0474 2.60526C31.4325 2.8421 31.7879 3.13816 32.1137 3.46381C32.4394 3.78947 32.7356 4.14474 32.9726 4.5296C33.2688 5.00329 33.1503 5.56579 32.7652 5.71381C32.6764 5.74342 32.5875 5.77302 32.4987 5.77302C32.2321 5.74342 31.9359 5.56579 31.7582 5.32894Z" fill="black"/>
<path d="M44.6124 34.7866H42.8353C42.0948 34.7866 41.5024 35.3787 41.5024 36.1189V40.8557C41.5024 41.5958 42.0948 42.1879 42.8353 42.1879H44.6124C45.3528 42.1879 45.9452 41.5958 45.9452 40.8557V36.1189C45.9452 35.3787 45.3528 34.7866 44.6124 34.7866ZM45.2047 40.8557C45.2047 41.1814 44.9382 41.4478 44.6124 41.4478H42.8353C42.5095 41.4478 42.2429 41.1814 42.2429 40.8557V40.2636H45.2047V40.8557Z" fill="white"/>
<path d="M44.6125 34.0461H42.8355C41.6804 34.0461 40.7622 34.9639 40.7622 36.1185C40.7622 38.6054 40.7622 40.2632 40.7622 40.2632V40.8554C40.7622 42.01 41.6804 42.9277 42.8355 42.9277H44.6125C45.7676 42.9277 46.6858 42.01 46.6858 40.8554V36.1185C46.6858 34.9639 45.7676 34.0461 44.6125 34.0461ZM45.2049 40.8554C45.2049 41.181 44.9383 41.4475 44.6125 41.4475H42.8355C42.5097 41.4475 42.2431 41.181 42.2431 40.8554V36.1185C42.2431 35.7929 42.5097 35.5264 42.8355 35.5264H44.6125C44.9383 35.5264 45.2049 35.7929 45.2049 36.1185V40.8554Z" fill="black"/>
<path d="M56.2227 1.74671C54.8306 0.651314 53.0536 0 51.1284 0C48.759 0 46.6265 0.976972 45.116 2.57566C42.6281 5.15131 40.7622 8.28947 40.7622 13.6184V36.1184C40.7622 38.6052 40.7622 40.2631 40.7622 40.2631H46.6858V15.2763C47.9593 16.1053 49.4994 16.5789 51.1284 16.5789C53.0536 16.5789 54.801 15.6316 56.2227 14.5362C57.7036 13.3816 58.5625 11.546 58.5625 9.68091V6.30592C58.5329 4.41118 57.7036 2.90131 56.2227 1.74671ZM48.2851 3.84868C47.9889 4.02631 47.7224 4.26315 47.4558 4.5C47.2189 4.73684 46.9819 5.03289 46.8042 5.32894C46.6265 5.59539 46.36 5.77302 46.0342 5.77302C45.9453 5.77302 45.8565 5.74342 45.7676 5.71381C45.3826 5.56579 45.2641 5.00329 45.5603 4.5296C45.7972 4.14474 46.0934 3.78947 46.4192 3.46381C46.745 3.13816 47.1004 2.8421 47.4854 2.60526C47.6631 2.48684 47.8409 2.42763 48.0186 2.42763C48.3147 2.42763 48.5517 2.57566 48.6405 2.8125C48.8182 3.16776 48.6109 3.61184 48.2851 3.84868ZM52.4612 8.88157C52.0466 8.88157 51.7208 8.55592 51.7208 8.14144C51.7208 7.72697 52.0466 7.40131 52.4612 7.40131C52.8759 7.40131 53.2017 7.72697 53.2017 8.14144C53.2017 8.55592 52.8759 8.88157 52.4612 8.88157ZM56.8743 11.7237C56.4596 11.7237 56.1338 10.0362 56.1338 7.96381C56.1338 5.89144 56.4596 4.20394 56.8743 4.20394C57.2889 4.20394 57.4962 5.89144 57.4962 7.96381C57.4962 10.0658 57.2889 11.7237 56.8743 11.7237Z" fill="black"/>
</g>
</svg>
