<svg width="56" height="67" viewBox="0 0 56 67" fill="none" xmlns="http://www.w3.org/2000/svg">
<path d="M1.44922 65V55.1357H7.30078V56.2568H2.68652V65H1.44922ZM9.5293 64.0361C10.1309 64.0361 10.6299 63.863 11.0264 63.5166C11.4183 63.1657 11.6143 62.7259 11.6143 62.1973V61.6025L9.68652 61.7256C8.56543 61.7939 8.00488 62.1882 8.00488 62.9082C8.00488 63.25 8.14388 63.5234 8.42188 63.7285C8.69531 63.9336 9.06445 64.0361 9.5293 64.0361ZM9.27637 65.0684C8.52897 65.0684 7.92741 64.8701 7.47168 64.4736C7.01595 64.0771 6.78809 63.5531 6.78809 62.9014C6.78809 62.2679 7.02507 61.7712 7.49902 61.4111C7.97298 61.0465 8.65658 60.8369 9.5498 60.7822L11.6143 60.6592V60.0439C11.6143 59.5882 11.4684 59.2373 11.1768 58.9912C10.8851 58.7451 10.4681 58.6221 9.92578 58.6221C9.4974 58.6221 9.13737 58.7246 8.8457 58.9297C8.54948 59.1348 8.36491 59.4105 8.29199 59.7568H7.15039C7.16862 59.137 7.44434 58.6152 7.97754 58.1914C8.51074 57.7721 9.16471 57.5625 9.93945 57.5625C10.8099 57.5625 11.5049 57.7767 12.0244 58.2051C12.5439 58.638 12.8037 59.2168 12.8037 59.9414V65H11.6758V63.7217H11.6484C11.4388 64.1318 11.1198 64.4577 10.6914 64.6992C10.263 64.9453 9.79134 65.0684 9.27637 65.0684ZM19.3662 58.6152H16.5703L16.3379 61.7666C16.2604 62.8011 16.0576 63.5326 15.7295 63.9609V64.0156H19.3662V58.6152ZM13.7402 66.9482V64.0156H14.3555C14.8568 63.6875 15.1484 62.9287 15.2305 61.7393L15.5176 57.6309H20.542V64.0156H21.7178V66.9482H20.6104V65H14.8477V66.9482H13.7402ZM32.4912 65H30.9531L27.9385 61.4385H27.8838V65H26.708V61.4385H26.6533L23.6387 65H22.1279L25.4707 61.1377L22.2031 57.6309H23.6729L26.6533 60.9053H26.708V57.6309H27.8838V60.9053H27.9385L30.9189 57.6309H32.3818L29.1279 61.1172L32.4912 65ZM36.2715 58.6084C35.6927 58.6084 35.2142 58.7998 34.8359 59.1826C34.4531 59.5654 34.2412 60.069 34.2002 60.6934H38.2539C38.2402 60.069 38.0511 59.5654 37.6865 59.1826C37.3265 58.7998 36.8548 58.6084 36.2715 58.6084ZM39.4023 62.8945C39.3021 63.528 38.9648 64.0475 38.3906 64.4531C37.8164 64.8633 37.1351 65.0684 36.3467 65.0684C35.3122 65.0684 34.4896 64.7334 33.8789 64.0635C33.2728 63.3936 32.9697 62.4867 32.9697 61.3428C32.9697 60.1989 33.2728 59.2829 33.8789 58.5947C34.485 57.9066 35.2894 57.5625 36.292 57.5625C37.2764 57.5625 38.0557 57.8861 38.6299 58.5332C39.2041 59.1849 39.4912 60.0667 39.4912 61.1787V61.6436H34.2002V61.7119C34.2002 62.4137 34.3984 62.9743 34.7949 63.3936C35.1914 63.8128 35.7178 64.0225 36.374 64.0225C36.8343 64.0225 37.2331 63.9199 37.5703 63.7148C37.903 63.5143 38.1217 63.2409 38.2266 62.8945H39.4023ZM46.1016 58.6152H43.709V65H42.5332V58.6152H40.1406V57.6309H46.1016V58.6152ZM53.5117 57.6309H54.6875V65H53.5117V57.6309ZM48.4258 60.9805V64.0156H49.8135C50.2965 64.0156 50.6839 63.8766 50.9756 63.5986C51.2627 63.3252 51.4062 62.9583 51.4062 62.498C51.4062 62.0378 51.2604 61.6686 50.9688 61.3906C50.6816 61.1172 50.2965 60.9805 49.8135 60.9805H48.4258ZM47.25 57.6309H48.4258V59.9961H49.8135C50.6566 59.9961 51.3288 60.2217 51.8301 60.6729C52.3314 61.124 52.582 61.7324 52.582 62.498C52.582 63.2637 52.3314 63.8721 51.8301 64.3232C51.3288 64.7744 50.6566 65 49.8135 65H47.25V57.6309Z" fill="#1F1F1F"/>
<path opacity="0.3" d="M29.5556 6.30004C38.8056 7.31821 46 15.1337 46 24.625V43.0626H9V24.625C9 15.1337 16.1944 7.31821 25.4444 6.30004V0.0415039H29.5556V6.30004ZM41.8889 38.9653V24.625C41.8889 20.8217 40.3729 17.1741 37.6745 14.4848C34.976 11.7955 31.3162 10.2846 27.5 10.2846C23.6838 10.2846 20.024 11.7955 17.3255 14.4848C14.6271 17.1741 13.1111 20.8217 13.1111 24.625V38.9653H41.8889ZM27.5 34.8681C24.7742 34.8681 22.16 33.7889 20.2325 31.8679C18.3051 29.947 17.2222 27.3416 17.2222 24.625C17.2222 21.9083 18.3051 19.3029 20.2325 17.382C22.16 15.461 24.7742 14.3819 27.5 14.3819C30.2258 14.3819 32.84 15.461 34.7675 17.382C36.6949 19.3029 37.7778 21.9083 37.7778 24.625C37.7778 27.3416 36.6949 29.947 34.7675 31.8679C32.84 33.7889 30.2258 34.8681 27.5 34.8681ZM27.5 30.7708C29.1355 30.7708 30.704 30.1233 31.8605 28.9707C33.017 27.8182 33.6667 26.2549 33.6667 24.625C33.6667 22.995 33.017 21.4318 31.8605 20.2792C30.704 19.1266 29.1355 18.4791 27.5 18.4791C25.8645 18.4791 24.296 19.1266 23.1395 20.2792C21.983 21.4318 21.3333 22.995 21.3333 24.625C21.3333 26.2549 21.983 27.8182 23.1395 28.9707C24.296 30.1233 25.8645 30.7708 27.5 30.7708ZM27.5 26.6736C26.9548 26.6736 26.432 26.4577 26.0465 26.0736C25.661 25.6894 25.4444 25.1683 25.4444 24.625C25.4444 24.0816 25.661 23.5606 26.0465 23.1764C26.432 22.7922 26.9548 22.5763 27.5 22.5763C28.0452 22.5763 28.568 22.7922 28.9535 23.1764C29.339 23.5606 29.5556 24.0816 29.5556 24.625C29.5556 25.1683 29.339 25.6894 28.9535 26.0736C28.568 26.4577 28.0452 26.6736 27.5 26.6736Z" fill="black"/>
</svg>
