<svg width="40" height="68" viewBox="0 0 40 68" fill="none" xmlns="http://www.w3.org/2000/svg">
<path d="M7.91406 58.6309H9.10352V66H7.91406V58.6309ZM8.50879 57.4414C8.30371 57.4414 8.12826 57.3662 7.98242 57.2158C7.83203 57.07 7.75684 56.8945 7.75684 56.6895C7.75684 56.4798 7.83203 56.3021 7.98242 56.1562C8.12826 56.0104 8.30371 55.9375 8.50879 55.9375C8.71842 55.9375 8.89616 56.0104 9.04199 56.1562C9.18783 56.3021 9.26074 56.4798 9.26074 56.6895C9.26074 56.8945 9.18783 57.07 9.04199 57.2158C8.89616 57.3662 8.71842 57.4414 8.50879 57.4414ZM14.6611 56.1357C15.5908 56.1357 16.3496 56.4297 16.9375 57.0176C17.5254 57.6055 17.8193 58.3665 17.8193 59.3008C17.8193 60.235 17.5231 60.9984 16.9307 61.5908C16.3382 62.1833 15.5771 62.4795 14.6475 62.4795H12.166V66H10.9355V56.1357H14.6611ZM12.166 61.3857H14.3398C15.0417 61.3857 15.5863 61.2012 15.9736 60.832C16.361 60.4674 16.5547 59.957 16.5547 59.3008C16.5547 58.6445 16.3633 58.1364 15.9805 57.7764C15.5931 57.4118 15.0462 57.2295 14.3398 57.2295H12.166V61.3857ZM20.875 65.0361C21.4766 65.0361 21.9756 64.863 22.3721 64.5166C22.764 64.1657 22.96 63.7259 22.96 63.1973V62.6025L21.0322 62.7256C19.9111 62.7939 19.3506 63.1882 19.3506 63.9082C19.3506 64.25 19.4896 64.5234 19.7676 64.7285C20.041 64.9336 20.4102 65.0361 20.875 65.0361ZM20.6221 66.0684C19.8747 66.0684 19.2731 65.8701 18.8174 65.4736C18.3617 65.0771 18.1338 64.5531 18.1338 63.9014C18.1338 63.2679 18.3708 62.7712 18.8447 62.4111C19.3187 62.0465 20.0023 61.8369 20.8955 61.7822L22.96 61.6592V61.0439C22.96 60.5882 22.8141 60.2373 22.5225 59.9912C22.2308 59.7451 21.8138 59.6221 21.2715 59.6221C20.8431 59.6221 20.4831 59.7246 20.1914 59.9297C19.8952 60.1348 19.7106 60.4105 19.6377 60.7568H18.4961C18.5143 60.137 18.79 59.6152 19.3232 59.1914C19.8564 58.7721 20.5104 58.5625 21.2852 58.5625C22.1556 58.5625 22.8506 58.7767 23.3701 59.2051C23.8896 59.638 24.1494 60.2168 24.1494 60.9414V66H23.0215V64.7217H22.9941C22.7845 65.1318 22.4655 65.4577 22.0371 65.6992C21.6087 65.9453 21.137 66.0684 20.6221 66.0684ZM28.5244 66.0684C27.5947 66.0684 26.8359 65.7243 26.248 65.0361C25.6602 64.3434 25.3662 63.4365 25.3662 62.3154C25.3662 61.1989 25.6602 60.292 26.248 59.5947C26.8268 58.9066 27.5765 58.5625 28.4971 58.5625C29.5954 58.5625 30.3792 58.984 30.8486 59.8271H30.876V55.7051H32.0654V66H30.9307V64.7559H30.9102C30.418 65.6309 29.6227 66.0684 28.5244 66.0684ZM28.7363 59.6221C28.0892 59.6221 27.5697 59.8682 27.1777 60.3604C26.7812 60.8525 26.583 61.5042 26.583 62.3154C26.583 63.1312 26.7812 63.7852 27.1777 64.2773C27.5697 64.765 28.0892 65.0088 28.7363 65.0088C29.3743 65.0088 29.8916 64.7604 30.2881 64.2637C30.6846 63.7669 30.8828 63.1175 30.8828 62.3154C30.8828 61.5133 30.6846 60.8639 30.2881 60.3672C29.8916 59.8704 29.3743 59.6221 28.7363 59.6221Z" fill="#1F1F1F"/>
<g opacity="0.3">
<path d="M9.33341 42.0169V2.56697C9.33341 2.487 9.33341 2.38038 9.33341 2.30042C9.36007 2.06052 9.38674 1.84728 9.46674 1.63403H1.60008C1.09341 1.63403 0.666748 2.06052 0.666748 2.56697V42.0169C0.666748 42.5233 1.09341 42.9498 1.60008 42.9498H9.49341C9.41341 42.7366 9.36007 42.5233 9.36007 42.2834C9.33341 42.2035 9.33341 42.0969 9.33341 42.0169ZM2.26675 6.29872C2.26675 6.08548 2.45341 5.89889 2.66675 5.89889C2.88008 5.89889 3.06675 6.08548 3.06675 6.29872C3.06675 6.51196 2.88008 6.69855 2.66675 6.69855C2.45341 6.69855 2.26675 6.51196 2.26675 6.29872ZM2.66675 2.30042C3.41341 2.30042 4.00008 2.88683 4.00008 3.63318C4.00008 4.37953 3.41341 4.96595 2.66675 4.96595C1.92008 4.96595 1.33341 4.37953 1.33341 3.63318C1.33341 2.88683 1.92008 2.30042 2.66675 2.30042Z" fill="black"/>
<path d="M12.2667 42.2834H28.6134C28.5067 42.6566 28.1334 42.9498 27.7334 42.9498H10.9601C10.8267 42.7632 10.7201 42.5233 10.6934 42.2834C10.6667 42.2035 10.6667 42.0969 10.6667 42.0169V2.56697C10.6667 2.487 10.6667 2.38038 10.6934 2.30042C10.7201 2.06052 10.8267 1.82062 10.9601 1.63403H27.7334C28.1601 1.63403 28.5067 1.92724 28.6134 2.30042H12.2667C12.1334 2.30042 12.0001 2.40704 12.0001 2.56697V42.0169C12.0001 42.1502 12.1334 42.2834 12.2667 42.2834Z" fill="black"/>
<path d="M10.6933 42.2831C10.72 42.523 10.8267 42.7629 10.96 42.9495C11.2533 43.3493 11.7333 43.6158 12.2667 43.6158H27.7333C28.2666 43.6158 28.7466 43.3493 29.04 42.9495C29.1733 42.7629 29.28 42.523 29.3066 42.2831H10.6933ZM9.49333 42.9495C9.41333 42.7362 9.35999 42.523 9.35999 42.2831H1.62667C1.49333 42.2831 1.36 42.1498 1.36 42.0165V2.56661C1.36 2.40667 1.49333 2.30005 1.62667 2.30005H9.35999C9.38666 2.06015 9.41333 1.84691 9.49333 1.63367C9.57333 1.39377 9.67999 1.18053 9.81333 0.967285H1.6C0.719999 0.967285 0 1.68698 0 2.56661V42.0165C0 42.8961 0.719999 43.6158 1.6 43.6158H9.81333C9.67999 43.4026 9.57333 43.1894 9.49333 42.9495ZM29.04 1.63367C28.7466 1.23384 28.2666 0.967285 27.7333 0.967285H12.2667C11.7333 0.967285 11.2533 1.23384 10.96 1.63367C10.8267 1.82026 10.72 2.06015 10.6933 2.30005H29.3066C29.28 2.06015 29.1733 1.82026 29.04 1.63367Z" fill="black"/>
<path d="M38.4001 0.967285H12.2667C11.7334 0.967285 11.2534 1.23384 10.9601 1.63367C10.8267 1.82026 10.7201 2.06015 10.6934 2.30005C10.6667 2.38002 10.6667 2.48664 10.6667 2.56661V42.0165C10.6667 42.0965 10.6667 42.2031 10.6934 42.2831C10.7201 42.523 10.8267 42.7629 10.9601 42.9495C11.2534 43.3493 11.7334 43.6158 12.2667 43.6158H38.4001C39.2801 43.6158 40.0001 42.8961 40.0001 42.0165V2.56661C40.0001 1.68698 39.2801 0.967285 38.4001 0.967285ZM38.6667 42.0165C38.6667 42.1498 38.5334 42.2831 38.4001 42.2831H12.2667C12.1334 42.2831 12.0001 42.1498 12.0001 42.0165V2.56661C12.0001 2.40667 12.1334 2.30005 12.2667 2.30005H38.4001C38.5334 2.30005 38.6667 2.40667 38.6667 2.56661V42.0165Z" fill="white"/>
<path d="M38.3999 1.63403H12.2666C11.8399 1.63403 11.4933 1.92724 11.3866 2.30042C11.3599 2.38038 11.3333 2.487 11.3333 2.56697V42.0169C11.3333 42.0969 11.3333 42.2035 11.3866 42.2834C11.4933 42.6566 11.8666 42.9498 12.2666 42.9498H38.3999C38.9066 42.9498 39.3333 42.5233 39.3333 42.0169V2.56697C39.3333 2.06052 38.9066 1.63403 38.3999 1.63403ZM38.6666 42.0169C38.6666 42.1502 38.5333 42.2834 38.3999 42.2834H12.2666C12.1333 42.2834 11.9999 42.1502 11.9999 42.0169V2.56697C11.9999 2.40704 12.1333 2.30042 12.2666 2.30042H38.3999C38.5333 2.30042 38.6666 2.40704 38.6666 2.56697V42.0169Z" fill="white"/>
<path d="M38.4001 0.967285H12.2667C11.7334 0.967285 11.2534 1.23384 10.9601 1.63367C10.8267 1.82026 10.7201 2.06015 10.6934 2.30005C10.6667 2.38002 10.6667 2.48664 10.6667 2.56661V42.0165C10.6667 42.0965 10.6667 42.2031 10.6934 42.2831C10.7201 42.523 10.8267 42.7629 10.9601 42.9495C11.2534 43.3493 11.7334 43.6158 12.2667 43.6158H38.4001C39.2801 43.6158 40.0001 42.8961 40.0001 42.0165V2.56661C40.0001 1.68698 39.2801 0.967285 38.4001 0.967285ZM38.6667 42.0165C38.6667 42.1498 38.5334 42.2831 38.4001 42.2831H12.2667C12.1334 42.2831 12.0001 42.1498 12.0001 42.0165V2.56661C12.0001 2.40667 12.1334 2.30005 12.2667 2.30005H38.4001C38.5334 2.30005 38.6667 2.40667 38.6667 2.56661V42.0165Z" fill="black"/>
</g>
</svg>
