<svg width="43" height="69" viewBox="0 0 43 69" fill="none" xmlns="http://www.w3.org/2000/svg">
<path d="M1.33398 59.6309H2.52344V67H1.33398V59.6309ZM1.92871 58.4414C1.72363 58.4414 1.54818 58.3662 1.40234 58.2158C1.25195 58.07 1.17676 57.8945 1.17676 57.6895C1.17676 57.4798 1.25195 57.3021 1.40234 57.1562C1.54818 57.0104 1.72363 56.9375 1.92871 56.9375C2.13835 56.9375 2.31608 57.0104 2.46191 57.1562C2.60775 57.3021 2.68066 57.4798 2.68066 57.6895C2.68066 57.8945 2.60775 58.07 2.46191 58.2158C2.31608 58.3662 2.13835 58.4414 1.92871 58.4414ZM8.08105 57.1357C9.01074 57.1357 9.76953 57.4297 10.3574 58.0176C10.9453 58.6055 11.2393 59.3665 11.2393 60.3008C11.2393 61.235 10.943 61.9984 10.3506 62.5908C9.75814 63.1833 8.99707 63.4795 8.06738 63.4795H5.58594V67H4.35547V57.1357H8.08105ZM5.58594 62.3857H7.75977C8.46159 62.3857 9.00618 62.2012 9.39355 61.832C9.78092 61.4674 9.97461 60.957 9.97461 60.3008C9.97461 59.6445 9.7832 59.1364 9.40039 58.7764C9.01302 58.4118 8.46615 58.2295 7.75977 58.2295H5.58594V62.3857ZM12.5723 56.7051H13.7617V60.8271H13.7891C14.2539 59.984 15.056 59.5625 16.1953 59.5625C17.002 59.5625 17.6536 59.8132 18.1504 60.3145C18.6471 60.8158 18.8955 61.4766 18.8955 62.2969V67H17.7061V62.5088C17.7061 61.9209 17.542 61.4583 17.2139 61.1211C16.8812 60.7884 16.4232 60.6221 15.8398 60.6221C15.2155 60.6221 14.7142 60.818 14.3359 61.21C13.9531 61.6019 13.7617 62.1191 13.7617 62.7617V67H12.5723V56.7051ZM23.5098 67.0684C22.4753 67.0684 21.6504 66.7288 21.0352 66.0498C20.4199 65.3708 20.1123 64.4593 20.1123 63.3154C20.1123 62.1715 20.4199 61.2601 21.0352 60.5811C21.6504 59.902 22.4753 59.5625 23.5098 59.5625C24.5443 59.5625 25.3691 59.902 25.9844 60.5811C26.5996 61.2601 26.9072 62.1715 26.9072 63.3154C26.9072 64.4593 26.5996 65.3708 25.9844 66.0498C25.3691 66.7288 24.5443 67.0684 23.5098 67.0684ZM23.5098 66.0088C24.1979 66.0088 24.7334 65.7718 25.1162 65.2979C25.5036 64.8193 25.6973 64.1585 25.6973 63.3154C25.6973 62.4678 25.5036 61.807 25.1162 61.333C24.7334 60.859 24.1979 60.6221 23.5098 60.6221C22.8216 60.6221 22.2861 60.859 21.9033 61.333C21.516 61.8115 21.3223 62.4723 21.3223 63.3154C21.3223 64.1585 21.516 64.8193 21.9033 65.2979C22.2907 65.7718 22.8262 66.0088 23.5098 66.0088ZM28.1582 59.6309H29.2793V60.8271H29.3066C29.776 59.984 30.5781 59.5625 31.7129 59.5625C32.5241 59.5625 33.1644 59.8063 33.6338 60.2939C34.1032 60.777 34.3379 61.4378 34.3379 62.2764V67H33.1484V62.4814C33.1484 61.8799 32.9958 61.4196 32.6904 61.1006C32.3805 60.7816 31.9362 60.6221 31.3574 60.6221C30.7513 60.6221 30.266 60.8135 29.9014 61.1963C29.5322 61.5791 29.3477 62.0872 29.3477 62.7207V67H28.1582V59.6309ZM38.8633 60.6084C38.2845 60.6084 37.806 60.7998 37.4277 61.1826C37.0449 61.5654 36.833 62.069 36.792 62.6934H40.8457C40.832 62.069 40.6429 61.5654 40.2783 61.1826C39.9183 60.7998 39.4466 60.6084 38.8633 60.6084ZM41.9941 64.8945C41.8939 65.528 41.5566 66.0475 40.9824 66.4531C40.4082 66.8633 39.7269 67.0684 38.9385 67.0684C37.904 67.0684 37.0814 66.7334 36.4707 66.0635C35.8646 65.3936 35.5615 64.4867 35.5615 63.3428C35.5615 62.1989 35.8646 61.2829 36.4707 60.5947C37.0768 59.9066 37.8812 59.5625 38.8838 59.5625C39.8682 59.5625 40.6475 59.8861 41.2217 60.5332C41.7959 61.1849 42.083 62.0667 42.083 63.1787V63.6436H36.792V63.7119C36.792 64.4137 36.9902 64.9743 37.3867 65.3936C37.7832 65.8128 38.3096 66.0225 38.9658 66.0225C39.4261 66.0225 39.8249 65.9199 40.1621 65.7148C40.4948 65.5143 40.7135 65.2409 40.8184 64.8945H41.9941Z" fill="#1F1F1F"/>
<g opacity="0.3">
<path d="M10.2722 8.87413C10.6487 8.87413 10.954 8.56887 10.954 8.19232C10.954 7.81576 10.6487 7.5105 10.2722 7.5105C9.89559 7.5105 9.59033 7.81576 9.59033 8.19232C9.59033 8.56887 9.89559 8.87413 10.2722 8.87413Z" fill="black"/>
<path d="M10.2722 5.60205C9.89033 5.60205 9.59033 5.90205 9.59033 6.28387C9.59033 6.66569 9.89033 6.96569 10.2722 6.96569C10.654 6.96569 10.954 6.66569 10.954 6.28387C10.954 5.90205 10.654 5.60205 10.2722 5.60205ZM10.2722 6.69296C10.054 6.69296 9.86306 6.50205 9.86306 6.28387C9.86306 6.06569 10.054 5.87478 10.2722 5.87478C10.4903 5.87478 10.6812 6.06569 10.6812 6.28387C10.6812 6.50205 10.4903 6.69296 10.2722 6.69296Z" fill="black"/>
<path d="M10.2722 5.05724C10.6487 5.05724 10.954 4.75198 10.954 4.37542C10.954 3.99886 10.6487 3.6936 10.2722 3.6936C9.89559 3.6936 9.59033 3.99886 9.59033 4.37542C9.59033 4.75198 9.89559 5.05724 10.2722 5.05724Z" fill="black"/>
<path d="M14.0626 43.2227C13.8989 42.7865 13.8171 42.3503 13.8171 41.8596V3.694C13.8171 3.2033 13.8989 2.76712 14.0626 2.33094C14.1444 2.08559 14.2535 1.8675 14.3898 1.64941H9.75346C8.63528 1.64941 7.70801 2.57629 7.70801 3.694V41.8596C7.70801 42.9773 8.63528 43.9042 9.75346 43.9042H14.3898C14.2262 43.6861 14.1444 43.468 14.0626 43.2227ZM8.90801 8.3284V4.23922C8.90801 3.47591 9.50801 2.87617 10.2716 2.87617C10.6535 2.87617 10.9807 3.03973 11.2262 3.28508C11.4716 3.53043 11.6353 3.85757 11.6353 4.23922V8.3284C11.6353 9.09171 11.0353 9.69145 10.2716 9.69145C9.50801 9.69145 8.90801 9.09171 8.90801 8.3284Z" fill="black"/>
<path d="M17.908 43.2227H27.6171C27.2353 43.6316 26.6898 43.9042 26.0898 43.9042H16.108C15.8898 43.7134 15.6989 43.468 15.5626 43.2227C15.3171 42.8138 15.208 42.3503 15.208 41.8596V3.694C15.208 3.2033 15.3444 2.73986 15.5626 2.33094C15.6989 2.08559 15.8898 1.84024 16.108 1.64941H26.0898C26.6898 1.64941 27.2353 1.92203 27.6171 2.33094C27.808 2.52177 27.9444 2.76712 28.0262 3.01247C28.108 3.23056 28.1353 3.44865 28.1353 3.694H21.9989C21.2353 3.694 20.6353 3.09426 20.6353 2.33094H17.908C17.1444 2.33094 16.5444 2.93069 16.5444 3.694V41.8596C16.5444 42.6229 17.1444 43.2227 17.908 43.2227Z" fill="black"/>
<path d="M28.7364 3.01236C28.6818 2.76701 28.5727 2.54892 28.4636 2.33083C28.3273 2.08548 28.1364 1.84013 27.9182 1.6493C27.4273 1.21312 26.8 0.967773 26.1182 0.967773H17.9364C17.2545 0.967773 16.6273 1.21312 16.1364 1.6493C15.9182 1.84013 15.7273 2.08548 15.5909 2.33083H26.0909C26.5818 2.33083 27.0454 2.60344 27.2636 3.01236C27.3727 3.20319 27.4545 3.44854 27.4545 3.69389H28.8182C28.8182 3.44854 28.7909 3.23045 28.7364 3.01236ZM15.5364 43.2226C15.6727 43.4679 15.8636 43.7133 16.0818 43.9041C16.5727 44.3403 17.2 44.5856 17.8818 44.5856H26.0636C26.7455 44.5856 27.3727 44.3403 27.8636 43.9041C28.0818 43.7133 28.2727 43.4679 28.4091 43.2226H15.5364ZM14.3636 43.9041C14.2273 43.686 14.1182 43.4679 14.0364 43.2226H9.72727C8.96364 43.2226 8.36364 42.6228 8.36364 41.8595V3.69389C8.36364 2.93058 8.96364 2.33083 9.72727 2.33083H14.0636C14.1455 2.08548 14.2545 1.86739 14.3909 1.6493C14.5273 1.40395 14.6909 1.18586 14.8818 0.967773H9.72727C8.22727 0.967773 7 2.19453 7 3.69389V41.8595C7 43.3589 8.22727 44.5856 9.72727 44.5856H14.8545C14.6636 44.3675 14.5 44.1494 14.3636 43.9041Z" fill="black"/>
<path d="M34.2716 0.967773H17.908C17.2262 0.967773 16.5989 1.21312 16.108 1.6493C15.8898 1.84013 15.6989 2.08548 15.5625 2.33083C15.3171 2.73975 15.208 3.20319 15.208 3.69389V41.8595C15.208 42.3502 15.3444 42.8137 15.5625 43.2226C15.6989 43.4679 15.8898 43.7133 16.108 43.9041C16.5989 44.3403 17.2262 44.5856 17.908 44.5856H34.2716C35.7716 44.5856 36.9989 43.3589 36.9989 41.8595V3.69389C36.9989 2.19453 35.7716 0.967773 34.2716 0.967773ZM35.6353 41.8595C35.6353 42.6228 35.0353 43.2226 34.2716 43.2226H17.908C17.1444 43.2226 16.5444 42.6228 16.5444 41.8595V3.69389C16.5444 2.93058 17.1444 2.33083 17.908 2.33083H20.6353C20.6353 3.09414 21.2353 3.69389 21.9989 3.69389H30.1807C30.9444 3.69389 31.5444 3.09414 31.5444 2.33083H34.2716C35.0353 2.33083 35.6353 2.93058 35.6353 3.69389V41.8595Z" fill="white"/>
<path d="M34.2738 1.64941H17.9102C17.3102 1.64941 16.7647 1.92203 16.3829 2.33094C16.0557 2.68534 15.8647 3.17604 15.8647 3.694V41.8596C15.8647 42.3776 16.0557 42.8683 16.3829 43.2227C16.7647 43.6316 17.3102 43.9042 17.9102 43.9042H34.2738C35.392 43.9042 36.3193 42.9773 36.3193 41.8596V3.694C36.3193 2.57629 35.392 1.64941 34.2738 1.64941ZM35.6375 41.8596C35.6375 42.6229 35.0375 43.2227 34.2738 43.2227H17.9102C17.1466 43.2227 16.5466 42.6229 16.5466 41.8596V3.694C16.5466 2.93069 17.1466 2.33094 17.9102 2.33094H20.6375C20.6375 3.09426 21.2375 3.694 22.0011 3.694H30.1829C30.9466 3.694 31.5466 3.09426 31.5466 2.33094H34.2738C35.0375 2.33094 35.6375 2.93069 35.6375 3.694V41.8596Z" fill="white"/>
<path d="M34.2716 0.967773H17.908C17.2262 0.967773 16.5989 1.21312 16.108 1.6493C15.8898 1.84013 15.6989 2.08548 15.5625 2.33083C15.3171 2.73975 15.208 3.20319 15.208 3.69389V41.8595C15.208 42.3502 15.3444 42.8137 15.5625 43.2226C15.6989 43.4679 15.8898 43.7133 16.108 43.9041C16.5989 44.3403 17.2262 44.5856 17.908 44.5856H34.2716C35.7716 44.5856 36.9989 43.3589 36.9989 41.8595V3.69389C36.9989 2.19453 35.7716 0.967773 34.2716 0.967773ZM35.6353 41.8595C35.6353 42.6228 35.0353 43.2226 34.2716 43.2226H17.908C17.1444 43.2226 16.5444 42.6228 16.5444 41.8595V3.69389C16.5444 2.93058 17.1444 2.33083 17.908 2.33083H34.2716C35.0353 2.33083 35.6353 2.93058 35.6353 3.69389V41.8595Z" fill="black"/>
<path d="M22.0007 3.01305C21.6188 3.01305 21.3188 2.71305 21.3188 2.33123C21.3188 1.94941 21.6188 1.64941 22.0007 1.64941H30.1825C30.5643 1.64941 30.8643 1.94941 30.8643 2.33123C30.8643 2.71305 30.5643 3.01305 30.1825 3.01305H22.0007Z" fill="white"/>
<path d="M31.5443 2.33083C31.5443 3.09415 30.9443 3.69389 30.1807 3.69389H21.9989C21.2353 3.69389 20.6353 3.09415 20.6353 2.33083C20.6353 2.08548 20.6898 1.84013 20.8262 1.6493C21.0716 1.24039 21.508 0.967773 21.9989 0.967773H30.1807C30.6716 0.967773 31.1352 1.24039 31.3534 1.6493C31.4898 1.84013 31.5443 2.08548 31.5443 2.33083Z" fill="black"/>
<path d="M10.2722 8.87413C10.6487 8.87413 10.954 8.56887 10.954 8.19232C10.954 7.81576 10.6487 7.5105 10.2722 7.5105C9.89559 7.5105 9.59033 7.81576 9.59033 8.19232C9.59033 8.56887 9.89559 8.87413 10.2722 8.87413Z" fill="white"/>
<path d="M10.2722 5.60205C9.89033 5.60205 9.59033 5.90205 9.59033 6.28387C9.59033 6.66569 9.89033 6.96569 10.2722 6.96569C10.654 6.96569 10.954 6.66569 10.954 6.28387C10.954 5.90205 10.654 5.60205 10.2722 5.60205ZM10.2722 6.69296C10.054 6.69296 9.86306 6.50205 9.86306 6.28387C9.86306 6.06569 10.054 5.87478 10.2722 5.87478C10.4903 5.87478 10.6812 6.06569 10.6812 6.28387C10.6812 6.50205 10.4903 6.69296 10.2722 6.69296Z" fill="white"/>
<path d="M10.2722 5.05724C10.6487 5.05724 10.954 4.75198 10.954 4.37542C10.954 3.99886 10.6487 3.6936 10.2722 3.6936C9.89559 3.6936 9.59033 3.99886 9.59033 4.37542C9.59033 4.75198 9.89559 5.05724 10.2722 5.05724Z" fill="white"/>
<path d="M10.2722 5.05724C10.6487 5.05724 10.954 4.75198 10.954 4.37542C10.954 3.99886 10.6487 3.6936 10.2722 3.6936C9.89559 3.6936 9.59033 3.99886 9.59033 4.37542C9.59033 4.75198 9.89559 5.05724 10.2722 5.05724Z" fill="black"/>
<path d="M10.2722 5.60205C9.89033 5.60205 9.59033 5.90205 9.59033 6.28387C9.59033 6.66569 9.89033 6.96569 10.2722 6.96569C10.654 6.96569 10.954 6.66569 10.954 6.28387C10.954 5.90205 10.654 5.60205 10.2722 5.60205ZM10.2722 6.69296C10.054 6.69296 9.86306 6.50205 9.86306 6.28387C9.86306 6.06569 10.054 5.87478 10.2722 5.87478C10.4903 5.87478 10.6812 6.06569 10.6812 6.28387C10.6812 6.50205 10.4903 6.69296 10.2722 6.69296Z" fill="black"/>
<path d="M10.2722 8.87413C10.6487 8.87413 10.954 8.56887 10.954 8.19232C10.954 7.81576 10.6487 7.5105 10.2722 7.5105C9.89559 7.5105 9.59033 7.81576 9.59033 8.19232C9.59033 8.56887 9.89559 8.87413 10.2722 8.87413Z" fill="black"/>
</g>
</svg>
