<svg width="48" height="66" viewBox="0 0 48 66" fill="none" xmlns="http://www.w3.org/2000/svg">
<path d="M20.1006 64H18.9521V56.3984H18.9043L15.7598 63.9316H14.7207L11.5762 56.3984H11.5283V64H10.3799V54.1357H11.8086L15.2129 62.3662H15.2676L18.6719 54.1357H20.1006V64ZM24.2705 63.0361C24.8721 63.0361 25.3711 62.863 25.7676 62.5166C26.1595 62.1657 26.3555 61.7259 26.3555 61.1973V60.6025L24.4277 60.7256C23.3066 60.7939 22.7461 61.1882 22.7461 61.9082C22.7461 62.25 22.8851 62.5234 23.1631 62.7285C23.4365 62.9336 23.8057 63.0361 24.2705 63.0361ZM24.0176 64.0684C23.2702 64.0684 22.6686 63.8701 22.2129 63.4736C21.7572 63.0771 21.5293 62.5531 21.5293 61.9014C21.5293 61.2679 21.7663 60.7712 22.2402 60.4111C22.7142 60.0465 23.3978 59.8369 24.291 59.7822L26.3555 59.6592V59.0439C26.3555 58.5882 26.2096 58.2373 25.918 57.9912C25.6263 57.7451 25.2093 57.6221 24.667 57.6221C24.2386 57.6221 23.8786 57.7246 23.5869 57.9297C23.2907 58.1348 23.1061 58.4105 23.0332 58.7568H21.8916C21.9098 58.137 22.1855 57.6152 22.7188 57.1914C23.252 56.7721 23.9059 56.5625 24.6807 56.5625C25.5511 56.5625 26.2461 56.7767 26.7656 57.2051C27.2852 57.638 27.5449 58.2168 27.5449 58.9414V64H26.417V62.7217H26.3896C26.18 63.1318 25.861 63.4577 25.4326 63.6992C25.0042 63.9453 24.5326 64.0684 24.0176 64.0684ZM34.0459 59.0303C33.9684 58.6156 33.7702 58.2829 33.4512 58.0322C33.1048 57.7588 32.665 57.6221 32.1318 57.6221C31.4847 57.6221 30.9652 57.8682 30.5732 58.3604C30.1722 58.8525 29.9717 59.5042 29.9717 60.3154C29.9717 61.1449 30.1745 61.8034 30.5801 62.291C30.972 62.7695 31.4938 63.0088 32.1455 63.0088C33.2119 63.0088 33.8499 62.5531 34.0596 61.6416H35.2285C35.1283 62.3662 34.7979 62.9495 34.2373 63.3916C33.6722 63.8428 32.9727 64.0684 32.1387 64.0684C31.1178 64.0684 30.3021 63.7334 29.6914 63.0635C29.0716 62.3799 28.7617 61.4639 28.7617 60.3154C28.7617 59.1852 29.0693 58.276 29.6846 57.5879C30.2998 56.9043 31.1133 56.5625 32.125 56.5625C32.9954 56.5625 33.7201 56.8132 34.2988 57.3145C34.832 57.7747 35.1374 58.3467 35.2148 59.0303H34.0459Z" fill="#1F1F1F"/>
<g opacity="0.3">
<path d="M45.9337 0.966553H1.42063C0.639284 0.966553 0 1.60556 0 2.38658V27.9471C0 28.7281 0.639284 29.3671 1.42063 29.3671H2.36772V28.1837H1.42063C1.30224 28.1837 1.18386 28.0654 1.18386 27.9471V2.38658C1.18386 2.24458 1.30224 2.14991 1.42063 2.14991H45.9337C46.0521 2.14991 46.1705 2.24458 46.1705 2.38658V27.9471C46.1705 28.0654 46.0521 28.1837 45.9337 28.1837H44.9866V29.3671H45.9337C46.7151 29.3671 47.3543 28.7281 47.3543 27.9471V2.38658C47.3543 1.60556 46.7151 0.966553 45.9337 0.966553Z" fill="black"/>
<path d="M45.9337 0.966553H1.42063C0.639284 0.966553 0 1.60556 0 2.38658V27.9471C0 28.7281 0.639284 29.3671 1.42063 29.3671H2.36772V28.1837H1.42063C1.30224 28.1837 1.18386 28.0654 1.18386 27.9471V2.38658C1.18386 2.24458 1.30224 2.14991 1.42063 2.14991H45.9337C46.0521 2.14991 46.1705 2.24458 46.1705 2.38658V27.9471C46.1705 28.0654 46.0521 28.1837 45.9337 28.1837H44.9866V29.3671H45.9337C46.7151 29.3671 47.3543 28.7281 47.3543 27.9471V2.38658C47.3543 1.60556 46.7151 0.966553 45.9337 0.966553Z" fill="black"/>
<path d="M45.9337 29.367H44.9866V28.1837H2.36772V29.367H1.42063C0.639284 29.367 0 28.728 0 27.947V32.6804C0 33.4615 0.639284 34.1005 1.42063 34.1005H45.9337C46.7151 34.1005 47.3543 33.4615 47.3543 32.6804V27.947C47.3543 28.728 46.7151 29.367 45.9337 29.367ZM24.861 31.9704C24.861 32.2308 24.6479 32.4438 24.3875 32.4438H22.9669C22.7064 32.4438 22.4933 32.2308 22.4933 31.9704V30.5504C22.4933 30.2901 22.7064 30.0771 22.9669 30.0771H24.3875C24.6479 30.0771 24.861 30.2901 24.861 30.5504V31.9704Z" fill="black"/>
<path d="M28.9335 36.4673H19.0128C18.0657 36.4673 17.7579 36.7276 17.7105 37.059C17.5448 38.195 16.8818 39.3073 16.3136 40.0647C15.9821 40.538 16.3136 41.177 16.8818 41.177H30.4252C30.9934 41.177 31.3486 40.5144 30.9934 40.0647C30.4252 39.2837 29.7859 38.195 29.5965 37.059C29.5965 36.7276 29.2887 36.4673 28.9335 36.4673Z" fill="black"/>
</g>
</svg>
