<svg width="147" height="44" viewBox="0 0 147 44" fill="none" xmlns="http://www.w3.org/2000/svg">
<path d="M37.3253 21.9866C36.8249 22.9927 36.338 23.9854 35.8377 24.9915C35.0533 26.5744 34.2824 28.1439 33.4981 29.7134C33.3223 30.0622 33.0653 30.2634 32.6596 30.2366C32.2945 30.2232 32.0781 30.022 31.9158 29.7134C31.0503 27.9829 30.1712 26.2524 29.3057 24.522C28.9406 23.7976 28.5755 23.0732 28.2103 22.3488C28.1833 22.2817 28.1427 22.2146 28.1021 22.1476H28.048V22.389C28.048 24.8171 28.048 27.2451 28.048 29.6732C28.0616 29.8342 28.048 29.9817 28.0075 30.1427C27.8993 30.5317 27.5341 30.7732 27.1284 30.7195C26.7227 30.6793 26.3981 30.3573 26.3711 29.9549C26.3711 29.9012 26.3711 29.8476 26.3711 29.7939C26.3711 26.2122 26.3711 22.6439 26.3711 19.0622C26.3711 18.472 26.7362 18.1098 27.2907 18.15C27.6288 18.1768 27.8452 18.3781 27.9939 18.6732C29.0758 20.8195 30.1577 22.9659 31.2396 25.0988C31.7129 26.0378 32.1863 26.9768 32.6596 27.9159C32.7002 27.9829 32.7407 28.0634 32.7948 28.1707C32.9436 27.8622 33.0924 27.5805 33.2276 27.2988C34.6341 24.4146 36.0405 21.5439 37.4605 18.6598C37.6228 18.2707 38.042 18.0695 38.4342 18.1768C38.8264 18.2707 39.0563 18.5793 39.0563 19.022C39.0563 22.6305 39.0563 26.239 39.0563 29.8476C39.0833 30.3037 38.7182 30.7061 38.2584 30.7195C38.2449 30.7195 38.2313 30.7195 38.2043 30.7195C37.7174 30.7195 37.3794 30.3439 37.3794 29.8207C37.3794 27.2988 37.3794 24.7634 37.3794 22.2415V21.9732L37.3253 21.9866Z" fill="white"/>
<path d="M58.7739 28.9891C58.7198 29.0561 58.6792 29.1232 58.6251 29.2037C57.124 31.4574 53.8242 31.1891 52.4042 29.2842C51.7822 28.4391 51.4576 27.4196 51.4711 26.3866C51.4576 25.0318 51.8903 23.8513 52.9317 22.9391C53.8513 22.1342 54.9467 21.8391 56.1638 21.8793C58.1518 21.9464 59.7611 23.194 60.248 25.0854C60.3426 25.461 60.3967 25.85 60.3967 26.2257C60.4102 27.4598 60.4102 28.6805 60.3967 29.9147C60.3832 31.9805 59.0579 33.7781 57.1105 34.2208C55.1901 34.65 53.4997 34.2074 52.1473 32.7183C51.7957 32.3293 51.7957 31.9269 52.1473 31.6452C52.526 31.3366 52.9993 31.3903 53.3374 31.7927C54.257 32.8793 55.7852 33.2549 57.1105 32.7049C58.0301 32.3025 58.5575 31.5781 58.7333 30.6122C58.828 30.0891 58.828 29.5391 58.8685 29.0025L58.7739 28.9891ZM55.9474 29.3513C57.1646 29.3513 58.1112 28.7342 58.571 27.6342C58.8415 26.9769 58.8956 26.2659 58.7333 25.5818C58.4899 24.5086 57.8678 23.7171 56.7724 23.4354C55.677 23.1537 54.6492 23.3415 53.8377 24.2C53.2021 24.8708 53.0128 25.6891 53.0534 26.5879C53.121 28.1708 54.3381 29.3513 55.9474 29.3513Z" fill="white"/>
<path d="M75.4621 29.4049V30.089C75.4621 31.2829 75.4621 32.4903 75.4621 33.6842C75.4756 34.0061 75.2998 34.2878 75.0023 34.4086C74.7048 34.5695 74.3397 34.5159 74.0962 34.2744C73.9745 34.1403 73.8934 33.9793 73.8393 33.8049C73.8123 33.711 73.8123 33.6305 73.8258 33.5366C73.8258 31.1488 73.8258 28.761 73.8258 26.3866C73.8258 25.0988 74.2315 23.9585 75.1917 23.0732C76.5034 21.8659 78.0586 21.5573 79.722 22.0939C81.3719 22.6171 82.3591 23.7976 82.6702 25.4878C82.9542 27.0439 82.5755 28.439 81.4666 29.6195C79.9925 31.1756 77.2743 31.2025 75.7461 29.6195C75.665 29.539 75.5974 29.4585 75.5162 29.3781L75.4621 29.4049ZM75.3945 26.3329C75.4216 26.5476 75.4216 26.7756 75.4621 27.0037C75.6785 28.05 76.2465 28.8281 77.2743 29.1903C78.3021 29.5525 79.2893 29.4317 80.1278 28.7073C80.9662 27.9829 81.2908 27.0037 81.142 25.9171C80.8986 24.0256 79.1135 22.8451 77.2608 23.5025C76.1113 23.9049 75.408 25.0049 75.3945 26.3329Z" fill="white"/>
<path d="M69.701 29.3378C69.1194 29.9817 68.4838 30.4244 67.713 30.639C65.3734 31.3097 63.0068 29.861 62.5334 27.4597C62.2359 25.9841 62.4523 24.6158 63.453 23.4219C65.3328 21.1951 69.16 21.3427 70.7288 24.0256C71.1345 24.7097 71.3373 25.4878 71.3373 26.2792C71.3508 27.4731 71.3373 28.6805 71.3373 29.8744C71.3373 30.4512 70.9451 30.7866 70.3771 30.7195C69.9714 30.6792 69.6739 30.3305 69.6874 29.9414C69.701 29.767 69.701 29.5792 69.701 29.3378ZM63.9669 26.3463C63.994 26.628 64.0346 26.9232 64.1022 27.2049C64.4132 28.2914 65.1029 29.0427 66.2254 29.2841C67.3343 29.5256 68.3216 29.2573 69.0654 28.3585C69.6739 27.6341 69.8227 26.789 69.7415 25.8634C69.5792 24.2939 68.1728 23.1536 66.5905 23.3146C66.4688 23.328 66.3471 23.3414 66.2254 23.3817C64.873 23.7171 63.994 24.8707 63.9669 26.3463Z" fill="white"/>
<path d="M43.2082 26.8963C43.3164 27.661 43.7221 28.3585 44.3577 28.8146C45.4937 29.6061 46.9948 29.6195 48.1443 28.8415C48.3337 28.6939 48.5771 28.6134 48.807 28.6268C49.1316 28.6537 49.402 28.8817 49.4967 29.1768C49.5643 29.4183 49.4697 29.6732 49.2533 29.8073C48.4148 30.4244 47.4005 30.7732 46.3592 30.7732C44.6958 30.7866 43.3164 30.1963 42.3832 28.7878C41.8153 27.9427 41.653 26.9902 41.7071 25.9841C41.7747 24.7366 42.248 23.6634 43.2217 22.8317C44.7364 21.5439 47.3735 21.5171 48.7664 22.7915C49.4696 23.4354 49.8483 24.2536 50.0241 25.1793C50.0647 25.461 50.0917 25.7427 50.1053 26.0244C50.1323 26.6012 49.8754 26.8695 49.2938 26.8695C47.3735 26.8695 45.4531 26.8695 43.5192 26.8695L43.2082 26.8963ZM48.6177 25.6085C48.5365 24.2134 47.4276 23.2207 45.9941 23.2476C44.5335 23.2744 43.2758 24.361 43.2488 25.6085H48.6177Z" fill="white"/>
<path d="M88.6746 30.7865C87.5656 30.7865 86.2268 30.1426 85.3613 28.6805C84.2388 26.7756 84.4822 23.167 87.7414 22.0939C89.5536 21.4902 91.5821 22.0402 92.7046 23.4085C93.5025 24.3744 93.7865 25.5012 93.6918 26.7219C93.6512 27.7012 93.2726 28.6268 92.6235 29.3646C91.7309 30.3707 90.5814 30.7865 88.6746 30.7865ZM86.3485 26.4134C86.3755 26.6817 86.4161 26.95 86.4702 27.2183C86.7677 28.3048 87.4574 29.0426 88.5799 29.2707C89.7023 29.4987 90.7031 29.2573 91.4604 28.3317C92.0419 27.6207 92.2177 26.7756 92.096 25.8768C91.7985 23.6097 89.7159 22.8317 88.066 23.5292C86.8759 24.0524 86.4026 25.0719 86.3485 26.4134Z" fill="white"/>
<path d="M109.204 30.7865C108.189 30.7865 107.256 30.6256 106.391 30.1426C106.147 30.0085 105.917 29.8475 105.714 29.6731C105.295 29.3243 105.255 28.8951 105.579 28.5463C105.958 28.1438 106.445 28.1438 106.864 28.4792C107.148 28.7341 107.459 28.9353 107.811 29.0963C108.663 29.4316 109.555 29.4719 110.421 29.0963C111.232 28.7341 111.3 27.889 110.569 27.3792C110.461 27.2987 110.34 27.2316 110.218 27.1914C109.785 27.0573 109.339 26.9231 108.893 26.8292C108.149 26.6682 107.405 26.4804 106.742 26.0646C105.714 25.4073 105.417 24.0792 106.066 23.1268C106.445 22.6036 106.999 22.228 107.635 22.067C109.055 21.678 110.421 21.7585 111.665 22.5902C111.895 22.7512 112.098 22.9524 112.287 23.167C112.49 23.3682 112.53 23.6634 112.395 23.9182C112.26 24.1731 111.976 24.3073 111.692 24.2536C111.435 24.1999 111.192 24.106 110.989 23.9451C110.029 23.1536 108.96 23.1402 107.851 23.5158C107.554 23.5963 107.337 23.8646 107.324 24.1731C107.27 24.5219 107.445 24.8707 107.757 25.0317C108.257 25.3268 108.825 25.4207 109.379 25.5414C110.042 25.6621 110.691 25.8634 111.3 26.1317C113.18 27.0438 112.936 29.2707 111.53 30.1695C110.813 30.6524 110.015 30.7999 109.204 30.7865Z" fill="white"/>
<path d="M95.8557 23.5963C95.8557 22.0804 95.8557 20.5511 95.8557 19.0353C95.8557 18.3914 96.3426 18.0292 96.9376 18.217C97.2351 18.2975 97.4515 18.5658 97.465 18.8743C97.465 18.9682 97.465 19.0621 97.465 19.1694C97.465 22.0268 97.465 24.8707 97.4786 27.728C97.4921 28.0633 97.5732 28.3987 97.6949 28.7207C97.7896 29.0158 98.0871 29.1902 98.3982 29.1365C98.4658 29.1365 98.5469 29.1365 98.6281 29.1365C99.0473 29.1365 99.3313 29.3512 99.4124 29.7268C99.4936 30.1426 99.3178 30.478 98.9256 30.6255C98.1683 30.8938 97.465 30.7194 96.87 30.2097C96.2885 29.7133 95.9369 28.989 95.9233 28.2243C95.8828 27.3121 95.8963 26.3865 95.8828 25.4743C95.8557 24.8438 95.8557 24.2133 95.8557 23.5963Z" fill="white"/>
<path d="M102.861 26.3328C102.861 27.5133 102.861 28.6938 102.861 29.8877C102.861 30.5584 102.252 30.9341 101.644 30.6523C101.333 30.5048 101.225 30.2231 101.225 29.9011C101.225 28.667 101.225 27.4328 101.225 26.1987C101.225 25.0584 101.225 23.9182 101.225 22.778C101.198 22.4426 101.4 22.1206 101.725 21.9999C102.063 21.8792 102.482 21.9463 102.672 22.2145C102.793 22.4024 102.861 22.617 102.861 22.8316C102.874 23.9853 102.861 25.1523 102.861 26.3328Z" fill="white"/>
<path d="M100.981 19.4379C100.981 18.8611 101.455 18.3916 102.036 18.3916H102.05C102.645 18.405 103.104 18.8879 103.091 19.4782C103.077 20.055 102.591 20.5111 102.009 20.4977C101.428 20.4977 100.968 20.0282 100.968 19.4648C100.981 19.4514 100.981 19.4379 100.981 19.4379Z" fill="white"/>
<path d="M42.0722 16.0439C41.369 15.8427 40.7199 15.4671 40.1789 14.9573C37.65 12.5963 34.215 11.1878 30.4419 11.3085C23.2879 11.5366 17.4997 17.3585 17.351 24.4549C17.2834 27.7549 18.4058 30.7866 20.3397 33.161C20.8401 33.778 21.9761 34.8512 21.9761 34.8512C22.6928 35.5354 23.2743 34.6634 22.6928 34.1805C22.3953 33.9256 22.1113 33.6573 21.8408 33.3756C19.6635 31.122 18.3247 28.0768 18.3247 24.7098C18.3382 17.8817 23.964 12.2878 30.8341 12.261C33.7687 12.2476 36.4599 13.2268 38.6102 14.8768C39.6921 15.7756 38.7724 16.4598 37.1361 15.4134C35.2969 14.1927 33.079 13.5085 30.6988 13.5488C24.6808 13.6561 19.7717 18.4988 19.6365 24.4683C19.5553 28.1171 21.2323 31.3768 23.8829 33.4695C24.1263 33.6573 24.3697 33.8451 24.6267 34.0061C25.2082 34.4219 25.5057 34.878 25.5057 34.878C25.7627 35.3207 25.8844 35.75 25.8844 36.1524C25.8844 36.4878 25.8168 36.8232 25.6815 37.1183C25.0595 38.6207 23.1526 39.6 23.1526 39.6C23.1526 39.6 19.9881 41.3976 16.6613 42.6988C14.484 43.5439 12.2255 44.1744 10.7649 43.9463C7.05947 43.3561 7.12709 41.7732 6.9648 41.1024C6.78899 40.4451 7.00537 38.8219 7.15413 38.2317C7.30289 37.6415 5.51777 36.7695 5.51777 36.7695C5.51777 36.7695 5.1932 36.3268 5.62596 35.6427C6.04519 34.9585 6.24805 34.9988 6.24805 34.9988L5.69358 34.6768C4.31416 34.0061 4.85511 33.1878 4.85511 33.1878C4.85511 33.1878 4.99035 32.839 5.15263 32.3963C5.36901 31.7927 5.61244 31.028 5.55834 30.7732C5.46368 30.3439 4.53054 30.1024 4.53054 30.1024C4.32769 30.0488 4.15188 29.9817 4.00312 29.9012C3.02942 29.4451 2.85361 28.7476 2.9077 28.1841C2.94828 27.7683 3.13761 27.3793 3.40808 27.0573C6.34271 23.6098 7.12709 21.1817 7.26232 19.7329C7.31642 19.1695 7.26232 18.7402 7.1947 18.4585C7.08651 18.0024 7.08651 17.9219 7.0189 17.05C7.0189 17.0098 7.0189 16.9695 7.0189 16.9293C7.0189 10.9195 10.251 5.64756 15.0925 2.76341C16.9858 1.79756 19.0414 1.05976 21.2052 0.590244C22.9903 0.201219 24.8566 0 26.7634 0C35.1887 0 42.6132 3.98415 46.9407 10.0341C47.7792 11.2012 48.0767 12.6902 47.644 14.0585C46.7108 16.889 43.8032 16.5402 42.0722 16.0439Z" fill="white"/>
</svg>
