<svg width="230" height="30" viewBox="0 0 230 30" fill="none" xmlns="http://www.w3.org/2000/svg">
<path d="M24.1912 16.0233V5.00618C24.1912 3.48044 22.9473 2.23657 21.4216 2.23657H2.76961C1.24387 2.23657 0 3.48044 0 5.00618V16.0233C0 17.5491 1.24387 18.7929 2.76961 18.7929H3.56005V22.114C3.56005 22.7268 4.05637 23.2231 4.67525 23.2231C4.99387 23.2231 5.30025 23.0822 5.51471 22.8371L9.01348 18.7868H21.4277C22.9473 18.7929 24.1912 17.5491 24.1912 16.0233ZM8.66422 17.2917C8.44363 17.2917 8.24142 17.3836 8.09436 17.5491L5.05515 21.0601V18.0393C5.05515 17.6226 4.71814 17.2856 4.30147 17.2856H2.76961C2.07108 17.2856 1.50123 16.7157 1.50123 16.0172V5.00618C1.50123 4.30765 2.07108 3.7378 2.76961 3.7378H21.4216C22.1201 3.7378 22.69 4.30765 22.69 5.00618V16.0233C22.69 16.7219 22.1201 17.2917 21.4216 17.2917H8.66422Z" fill="black"/>
<path d="M24.4915 27.3776C24.7059 27.6288 25.0123 27.7636 25.3248 27.7636C25.4535 27.7636 25.5883 27.7391 25.7169 27.6901C26.1581 27.5247 26.44 27.1203 26.44 26.6484V23.3274H27.2304C28.7562 23.3274 30 22.0835 30 20.5578V9.5406C30 8.01487 28.7562 6.771 27.2304 6.771C26.8138 6.771 26.4767 7.10801 26.4767 7.51854C26.4767 7.93521 26.8138 8.27222 27.2304 8.27222C27.929 8.27222 28.4988 8.84207 28.4988 9.5406V20.5578C28.4988 21.2563 27.929 21.8261 27.2304 21.8261H25.6924C25.2758 21.8261 24.9388 22.1632 24.9388 22.5798V25.6007L21.8995 22.0896C21.7586 21.9242 21.5503 21.8323 21.3297 21.8323H10.0552C9.63852 21.8323 9.30151 22.1693 9.30151 22.5859C9.30151 23.0026 9.63852 23.3396 10.0552 23.3396H20.9866L24.4915 27.3776Z" fill="black"/>
<path d="M12.0955 11.6728C12.5896 11.6728 12.9901 11.2722 12.9901 10.7782C12.9901 10.2841 12.5896 9.88354 12.0955 9.88354C11.6015 9.88354 11.2009 10.2841 11.2009 10.7782C11.2009 11.2722 11.6015 11.6728 12.0955 11.6728Z" fill="black"/>
<path d="M15.0919 11.6728C15.5859 11.6728 15.9865 11.2722 15.9865 10.7782C15.9865 10.2841 15.5859 9.88354 15.0919 9.88354C14.5978 9.88354 14.1973 10.2841 14.1973 10.7782C14.1973 11.2722 14.5978 11.6728 15.0919 11.6728Z" fill="black"/>
<path d="M9.0992 11.6728C9.59328 11.6728 9.99381 11.2722 9.99381 10.7782C9.99381 10.2841 9.59328 9.88354 9.0992 9.88354C8.60512 9.88354 8.20459 10.2841 8.20459 10.7782C8.20459 11.2722 8.60512 11.6728 9.0992 11.6728Z" fill="black"/>
<path d="M51.4434 21V8.31738H49.8613V13.8018H42.9004V8.31738H41.3184V21H42.9004V15.2256H49.8613V21H51.4434ZM56.9805 19.7607C55.7852 19.7607 55.0205 19.1895 55.0205 18.3105C55.0205 17.3965 55.7588 16.8779 57.1826 16.79L59.6611 16.6318V17.3965C59.6611 18.7588 58.5273 19.7607 56.9805 19.7607ZM56.6553 21.0879C57.9824 21.0879 59.1689 20.4111 59.7051 19.3564H59.7402V21H61.1904V14.4961C61.1904 12.6328 59.749 11.4375 57.5078 11.4375C55.5215 11.4375 53.9658 12.6592 53.9219 14.2588H55.3896C55.5742 13.3623 56.3916 12.7998 57.4902 12.7998C58.8877 12.7998 59.6611 13.4502 59.6611 14.6279V15.4189L57.0068 15.5771C54.7041 15.7178 53.4561 16.6758 53.4561 18.3018C53.4561 19.9805 54.7305 21.0879 56.6553 21.0879ZM69.584 21H71.0957V11.5254H63.3438V21H64.8555V12.791H69.584V21ZM74.8574 21L79.7354 13.8896H79.8057V21H81.3174V11.5254H79.8057L74.9277 18.6357H74.8574V11.5254H73.3457V21H74.8574ZM91.3809 14.4258C91.1084 12.835 89.6934 11.4375 87.4346 11.4375C84.8418 11.4375 83.1104 13.3535 83.1104 16.2627C83.1104 19.2422 84.8506 21.0879 87.4521 21.0879C89.5527 21.0879 91.082 19.8838 91.3984 18.126H89.8779C89.5703 19.1631 88.7178 19.7256 87.4609 19.7256C85.8086 19.7256 84.666 18.416 84.666 16.2627C84.666 14.1709 85.791 12.7998 87.4434 12.7998C88.7793 12.7998 89.6055 13.5029 89.8604 14.4258H91.3809ZM96.1445 19.7607C94.9492 19.7607 94.1846 19.1895 94.1846 18.3105C94.1846 17.3965 94.9229 16.8779 96.3467 16.79L98.8252 16.6318V17.3965C98.8252 18.7588 97.6914 19.7607 96.1445 19.7607ZM95.8193 21.0879C97.1465 21.0879 98.333 20.4111 98.8691 19.3564H98.9043V21H100.354V14.4961C100.354 12.6328 98.9131 11.4375 96.6719 11.4375C94.6855 11.4375 93.1299 12.6592 93.0859 14.2588H94.5537C94.7383 13.3623 95.5557 12.7998 96.6543 12.7998C98.0518 12.7998 98.8252 13.4502 98.8252 14.6279V15.4189L96.1709 15.5771C93.8682 15.7178 92.6201 16.6758 92.6201 18.3018C92.6201 19.9805 93.8945 21.0879 95.8193 21.0879ZM109.223 11.5254H101.559V12.791H104.635V21H106.146V12.791H109.223V11.5254ZM113.995 15.832C115.234 15.832 116.043 16.5967 116.043 17.7832C116.043 18.9609 115.243 19.7344 113.995 19.7344H112.211V15.832H113.995ZM110.699 21H113.995C116.166 21 117.555 19.752 117.555 17.7832C117.555 15.8145 116.166 14.5664 113.995 14.5664H112.211V11.5254H110.699V21ZM127.469 12.791C128.462 12.791 129.007 13.2568 129.007 14.1094C129.007 15.0234 128.427 15.4629 127.223 15.4629H125.113V12.791H127.469ZM127.354 16.7285C128.752 16.7285 129.42 17.2207 129.42 18.249C129.42 19.2158 128.796 19.7344 127.645 19.7344H125.113V16.7285H127.354ZM123.602 21H127.68C129.684 21 130.923 19.9541 130.923 18.2754C130.923 17.0977 130.141 16.2275 128.954 16.0605V15.9902C129.824 15.8057 130.501 14.918 130.501 13.9512C130.501 12.4482 129.42 11.5254 127.662 11.5254H123.602V21ZM143.307 21H144.818V11.5254H137.066V21H138.578V12.791H143.307V21ZM150.971 21.0879C153.634 21.0879 155.339 19.1982 155.339 16.2627C155.339 13.3184 153.634 11.4375 150.971 11.4375C148.308 11.4375 146.603 13.3184 146.603 16.2627C146.603 19.1982 148.308 21.0879 150.971 21.0879ZM150.971 19.7256C149.213 19.7256 148.158 18.4336 148.158 16.2627C148.158 14.0918 149.204 12.7998 150.971 12.7998C152.737 12.7998 153.783 14.083 153.783 16.2627C153.783 18.4336 152.737 19.7256 150.971 19.7256ZM163.407 19.7344H158.731V19.6641C159.188 19.0664 159.426 18.0205 159.514 16.8428L159.812 12.791H163.407V19.7344ZM157.598 23.5049V21H165.007V23.5049H166.431V19.7344H164.919V11.5254H158.459L158.09 16.8076C158.002 18.082 157.659 19.2773 156.965 19.7344H156.174V23.5049H157.598ZM174.587 19.7344H169.911V19.6641C170.368 19.0664 170.605 18.0205 170.693 16.8428L170.992 12.791H174.587V19.7344ZM168.777 23.5049V21H176.187V23.5049H177.61V19.7344H176.099V11.5254H169.639L169.27 16.8076C169.182 18.082 168.839 19.2773 168.145 19.7344H167.354V23.5049H168.777ZM182.822 12.7822C184.316 12.7822 185.336 13.8545 185.371 15.4629H180.159C180.265 13.8633 181.337 12.7822 182.822 12.7822ZM185.336 18.293C185.063 19.1807 184.141 19.7432 182.954 19.7432C181.267 19.7432 180.159 18.5742 180.159 16.7725V16.6846H186.962V16.0869C186.962 13.2217 185.38 11.4375 182.849 11.4375C180.265 11.4375 178.577 13.3623 178.577 16.2979C178.577 19.2334 180.256 21.0879 182.919 21.0879C184.94 21.0879 186.584 19.9189 186.848 18.293H185.336ZM193.299 11.4375C191.989 11.4375 190.785 12.0791 190.231 13.0635H190.196V11.5254H188.746V24.1641H190.275V19.4619H190.311C190.908 20.499 191.989 21.0879 193.334 21.0879C195.725 21.0879 197.359 19.1543 197.359 16.2627C197.359 13.3711 195.716 11.4375 193.299 11.4375ZM193.018 19.7256C191.383 19.7256 190.267 18.3281 190.267 16.2627C190.267 14.2061 191.383 12.7998 193.018 12.7998C194.688 12.7998 195.795 14.1709 195.795 16.2627C195.795 18.3633 194.688 19.7256 193.018 19.7256ZM206.983 16.0078L211.167 11.5254H209.286L205.454 15.7354H205.384V11.5254H203.872V15.7354H203.802L199.97 11.5254H198.08L202.281 16.0342L197.983 21H199.926L203.802 16.4209H203.872V21H205.384V16.4209H205.454L209.33 21H211.308L206.983 16.0078ZM215.772 16.0166L220.229 11.5254H218.33L214.234 15.7354H214.164V11.5254H212.652V21H214.164V16.4209H214.234L218.374 21H220.352L215.772 16.0166ZM222.514 24.4365C224.192 24.4365 224.948 23.7773 225.757 21.5801L229.466 11.5254H227.857L225.203 19.4443H225.168L222.514 11.5254H220.888L224.395 21.0088L224.21 21.5713C223.823 22.7139 223.349 23.1357 222.47 23.1357C222.268 23.1357 222.021 23.1182 221.846 23.083V24.375C222.03 24.4102 222.32 24.4365 222.514 24.4365Z" fill="black"/>
</svg>
