<svg width="39" height="68" viewBox="0 0 39 68" fill="none" xmlns="http://www.w3.org/2000/svg">
<path d="M4.29004 66H3.12793L0.441406 56.1357H1.72656L3.70215 64.1885H3.75684L5.97852 56.1357H7.22266L9.44434 64.1885H9.49902L11.4746 56.1357H12.7598L10.0732 66H8.91113L6.63477 58.1729H6.56641L4.29004 66ZM15.46 65.0361C16.0615 65.0361 16.5605 64.863 16.957 64.5166C17.349 64.1657 17.5449 63.7259 17.5449 63.1973V62.6025L15.6172 62.7256C14.4961 62.7939 13.9355 63.1882 13.9355 63.9082C13.9355 64.25 14.0745 64.5234 14.3525 64.7285C14.626 64.9336 14.9951 65.0361 15.46 65.0361ZM15.207 66.0684C14.4596 66.0684 13.8581 65.8701 13.4023 65.4736C12.9466 65.0771 12.7188 64.5531 12.7188 63.9014C12.7188 63.2679 12.9557 62.7712 13.4297 62.4111C13.9036 62.0465 14.5872 61.8369 15.4805 61.7822L17.5449 61.6592V61.0439C17.5449 60.5882 17.3991 60.2373 17.1074 59.9912C16.8158 59.7451 16.3988 59.6221 15.8564 59.6221C15.4281 59.6221 15.068 59.7246 14.7764 59.9297C14.4801 60.1348 14.2956 60.4105 14.2227 60.7568H13.0811C13.0993 60.137 13.375 59.6152 13.9082 59.1914C14.4414 58.7721 15.0954 58.5625 15.8701 58.5625C16.7406 58.5625 17.4355 58.7767 17.9551 59.2051C18.4746 59.638 18.7344 60.2168 18.7344 60.9414V66H17.6064V64.7217H17.5791C17.3695 65.1318 17.0505 65.4577 16.6221 65.6992C16.1937 65.9453 15.722 66.0684 15.207 66.0684ZM21.8926 56.9697V58.6309H23.3281V59.6152H21.8926V64.0381C21.8926 64.6943 22.1979 65.0225 22.8086 65.0225C23.0137 65.0225 23.1846 65.0111 23.3213 64.9883V65.9932C23.1481 66.0342 22.8929 66.0547 22.5557 66.0547C21.8903 66.0547 21.4141 65.9043 21.127 65.6035C20.8444 65.2982 20.7031 64.7923 20.7031 64.0859V59.6152H19.6777V58.6309H20.7031V56.9697H21.8926ZM29.3643 61.0303C29.2868 60.6156 29.0885 60.2829 28.7695 60.0322C28.4232 59.7588 27.9834 59.6221 27.4502 59.6221C26.8031 59.6221 26.2835 59.8682 25.8916 60.3604C25.4906 60.8525 25.29 61.5042 25.29 62.3154C25.29 63.1449 25.4928 63.8034 25.8984 64.291C26.2904 64.7695 26.8122 65.0088 27.4639 65.0088C28.5303 65.0088 29.1683 64.5531 29.3779 63.6416H30.5469C30.4466 64.3662 30.1162 64.9495 29.5557 65.3916C28.9906 65.8428 28.291 66.0684 27.457 66.0684C26.4362 66.0684 25.6204 65.7334 25.0098 65.0635C24.39 64.3799 24.0801 63.4639 24.0801 62.3154C24.0801 61.1852 24.3877 60.276 25.0029 59.5879C25.6182 58.9043 26.4316 58.5625 27.4434 58.5625C28.3138 58.5625 29.0384 58.8132 29.6172 59.3145C30.1504 59.7747 30.4557 60.3467 30.5332 61.0303H29.3643ZM31.7568 55.7051H32.9463V59.8271H32.9736C33.4385 58.984 34.2406 58.5625 35.3799 58.5625C36.1865 58.5625 36.8382 58.8132 37.335 59.3145C37.8317 59.8158 38.0801 60.4766 38.0801 61.2969V66H36.8906V61.5088C36.8906 60.9209 36.7266 60.4583 36.3984 60.1211C36.0658 59.7884 35.6077 59.6221 35.0244 59.6221C34.4001 59.6221 33.8988 59.818 33.5205 60.21C33.1377 60.6019 32.9463 61.1191 32.9463 61.7617V66H31.7568V55.7051Z" fill="#1F1F1F"/>
<g opacity="0.4">
<path d="M26.5054 11.792C24.6559 12.5157 21.5466 13.159 18.5981 13.159V11.0415H23.959C24.8971 11.0415 25.7817 11.3095 26.5054 11.792Z" fill="black"/>
<path d="M28.0331 10.9342C27.9795 10.9878 27.9258 11.0682 27.8454 11.1218C26.8001 10.2376 25.4598 9.72857 23.9856 9.72857H18.6248V0.994141H21.3052C23.0207 0.994141 24.4681 1.47641 24.6825 3.16435C24.6825 3.16435 24.9774 6.62062 26.7197 9.03196C27.0949 9.54103 27.5238 9.9965 28.0331 10.3716C28.1939 10.5324 28.1939 10.7199 28.0331 10.9342Z" fill="black"/>
<path d="M18.5978 0.99408V9.70173H13.237C11.7628 9.70173 10.4226 10.2376 9.37721 11.095C9.2968 11.0414 9.2432 10.961 9.1896 10.9074C9.02877 10.6931 9.02876 10.5055 9.24319 10.3448C9.75247 9.96966 10.1813 9.51418 10.5566 9.00512C12.2989 6.59377 12.5937 3.1375 12.5937 3.1375C12.8081 1.44956 14.2556 0.967285 15.971 0.967285H18.5978V0.99408Z" fill="black"/>
<path d="M18.5979 11.0413V13.1588C15.6494 13.1588 12.5402 12.4887 10.6907 11.7918C11.4144 11.3093 12.2989 11.0413 13.2371 11.0413H18.5979Z" fill="black"/>
<path d="M26.5061 33.0655C25.7824 33.548 24.8978 33.816 23.9597 33.816H18.5989V31.6985C21.5473 31.6985 24.6566 32.3418 26.5061 33.0655Z" fill="black"/>
<path d="M27.9793 34.4859C27.47 34.861 27.0412 35.3164 26.6659 35.8255C24.9236 38.2368 24.6288 41.6931 24.6288 41.6931C24.4144 43.3811 22.9669 43.8633 21.2515 43.8633H18.571V35.1557H23.9319C25.4061 35.1557 26.7463 34.6198 27.7917 33.7625C27.8721 33.816 27.9257 33.8964 27.9793 33.95C28.1937 34.1376 28.1937 34.3251 27.9793 34.4859Z" fill="black"/>
<path d="M18.5979 31.6985V33.816H13.2371C12.2989 33.816 11.4144 33.548 10.6907 33.0655C12.5402 32.3418 15.6494 31.6985 18.5979 31.6985Z" fill="black"/>
<path d="M18.598 35.1556V43.8633H15.9176C14.2021 43.8633 12.7547 43.381 12.5402 41.6931C12.5402 41.6931 12.2454 38.2368 10.5031 35.8254C10.1279 35.3164 9.69901 34.8609 9.18973 34.4858C8.9753 34.325 8.9753 34.1375 9.13612 33.9231C9.18973 33.8696 9.24334 33.7892 9.32375 33.7356C10.3691 34.6198 11.7093 35.1288 13.1835 35.1288H18.598V35.1556Z" fill="black"/>
<path d="M26.505 11.792C25.7813 11.3097 24.8967 11.0418 23.9586 11.0418H13.237C12.2988 11.0418 11.4143 11.3097 10.6906 11.792C9.40397 12.6226 8.54624 14.0962 8.54624 15.7306V29.1269C8.54624 30.7881 9.40397 32.2349 10.6906 33.0655C11.4143 33.5477 12.2988 33.8157 13.237 33.8157H23.9586C24.8967 33.8157 25.7813 33.5477 26.505 33.0655C27.7916 32.2349 28.6493 30.7881 28.6493 29.1269V15.7306C28.6493 14.0694 27.7916 12.6226 26.505 11.792ZM16.4802 26.1261C16.3998 25.8582 16.4266 25.5635 16.6143 25.3224C16.7751 25.108 17.0431 24.9741 17.3112 24.9741C17.3916 24.9741 17.4988 24.9741 17.5792 25.0276C17.7937 25.0812 18.0349 25.108 18.2761 25.108C18.8122 25.108 19.3483 24.9473 19.7772 24.6258C20.206 24.3042 20.5545 23.8488 20.7153 23.3397C20.7957 23.0718 20.8493 22.8306 20.8493 22.5359C20.8493 22.268 20.7957 22.0001 20.7153 21.7589C20.5545 21.2499 20.2328 20.7944 19.7772 20.4729C19.5895 20.3389 19.3751 20.2049 19.1607 20.1514C18.7854 20.0174 18.571 19.6959 18.571 19.3208C18.571 19.0261 18.705 18.7849 18.9462 18.6242C19.1607 18.4634 19.4287 18.4098 19.6699 18.4902C19.6967 18.4902 19.7235 18.517 19.7504 18.517C19.8576 18.5438 19.938 18.5974 20.0184 18.6242C20.0988 18.6778 20.206 18.7045 20.2864 18.7581C20.3668 18.8117 20.4473 18.8385 20.5277 18.8921C20.5545 18.8921 20.5545 18.9189 20.5813 18.9189C20.6617 18.9725 20.7421 19.0261 20.8225 19.0796C21.5462 19.6155 22.1091 20.3657 22.3772 21.2231C22.5112 21.6518 22.5916 22.0804 22.5916 22.5359C22.5916 22.9914 22.5112 23.4469 22.3772 23.8756C22.1091 24.7329 21.5462 25.4831 20.8225 26.019C20.0988 26.5548 19.2143 26.8496 18.3029 26.8496C18.1957 26.8496 18.0617 26.8496 17.9545 26.8228C17.9009 26.8228 17.8473 26.8228 17.7937 26.796C17.74 26.796 17.6596 26.7692 17.606 26.7692C17.5524 26.7692 17.4988 26.7424 17.472 26.7424C17.4184 26.7424 17.3648 26.7156 17.3112 26.7156C17.2576 26.7156 17.204 26.6888 17.1503 26.662H17.1236C17.0967 26.662 17.0967 26.662 17.0699 26.6352C17.0699 26.6352 17.0699 26.6352 17.0431 26.6352C16.7483 26.5816 16.5607 26.3941 16.4802 26.1261ZM16.8555 27.1711H16.8823C16.9091 27.1711 16.9359 27.1711 16.9627 27.1979C17.0163 27.2246 17.0967 27.2246 17.1503 27.2514C17.204 27.2782 17.2844 27.2782 17.338 27.305C17.3916 27.305 17.4452 27.3318 17.4988 27.3318C17.7669 27.3854 18.0349 27.3854 18.3029 27.3854C19.3483 27.3854 20.3132 27.0639 21.1442 26.4477C21.9483 25.8582 22.5916 25.0008 22.8864 24.0363C23.0473 23.554 23.1277 23.045 23.1277 22.5359C23.1277 22.0269 23.0473 21.5178 22.8864 21.0355C22.5648 20.071 21.9483 19.2136 21.1442 18.6242C21.0638 18.5706 21.0102 18.517 20.9297 18.4902C20.6617 18.3027 20.3669 18.1687 20.0452 18.0347C20.0184 18.0079 19.9648 18.0079 19.938 17.9812H19.9112C19.6968 17.9008 19.4823 17.8472 19.2411 17.7936C18.839 17.7132 18.571 17.3649 18.571 16.9362C18.571 16.6683 18.6782 16.4272 18.8926 16.2664C19.0802 16.1324 19.2947 16.0521 19.5091 16.0789C19.5627 16.0789 19.5895 16.1057 19.6431 16.1057C19.7236 16.1057 19.804 16.1324 19.8844 16.1592C19.938 16.1592 19.9916 16.186 20.0452 16.186C20.0988 16.2128 20.1792 16.2128 20.2328 16.2396C20.2864 16.2664 20.3668 16.2932 20.4205 16.2932C20.5277 16.32 20.6617 16.3736 20.7689 16.4272C21.0369 16.5343 21.2782 16.6415 21.5194 16.7755C21.573 16.8023 21.6266 16.8291 21.6803 16.8559C21.7607 16.9094 21.8679 16.963 21.9483 17.0166C22.0287 17.0702 22.1091 17.1238 22.1895 17.1774C23.3153 17.9812 24.1462 19.16 24.5751 20.4729C24.7895 21.1159 24.8967 21.8125 24.8967 22.5091C24.8967 23.2057 24.7895 23.9024 24.5751 24.5454C24.5483 24.599 24.5215 24.6793 24.5215 24.7329C24.4947 24.7865 24.4679 24.8669 24.4411 24.9205C24.4143 24.9741 24.3875 25.0544 24.3607 25.108C24.2803 25.3224 24.173 25.5367 24.0658 25.7243C24.039 25.7778 23.9854 25.8582 23.9586 25.9118C23.905 25.9922 23.8514 26.0994 23.771 26.1797C23.7174 26.2333 23.6906 26.3137 23.6369 26.3673C23.5833 26.4477 23.5029 26.5548 23.4225 26.6352C23.3689 26.7156 23.2885 26.796 23.2349 26.8496C23.2081 26.8763 23.1813 26.9299 23.1545 26.9567C23.0741 27.0371 22.9936 27.1175 22.9132 27.1979C22.6988 27.4122 22.4308 27.6265 22.1895 27.8141C21.0638 28.6447 19.7236 29.0733 18.3297 29.0733C16.9359 29.0733 15.5957 28.6447 14.4699 27.8141C13.7194 27.2514 13.0493 26.528 12.5937 25.7243C12.4596 25.5099 12.4596 25.242 12.5401 25.0008C12.6473 24.7597 12.8349 24.5722 13.1029 24.4918C13.1833 24.465 13.2906 24.4382 13.371 24.4382C13.6658 24.4382 13.9607 24.599 14.1215 24.8669C14.4699 25.4831 14.9256 26.019 15.4885 26.4209C15.8906 26.796 16.373 27.0371 16.8555 27.1711ZM24.4679 28.9126C24.2803 29.1001 24.039 29.1805 23.771 29.1537C23.5029 29.1269 23.2885 28.993 23.1277 28.8054C22.8596 28.4571 22.9132 27.9748 23.2349 27.6533C23.2617 27.6265 23.2617 27.6265 23.2885 27.5997C23.3421 27.5462 23.4225 27.4658 23.4761 27.3854C23.5833 27.2782 23.6638 27.1711 23.7442 27.0639C23.8246 26.9567 23.9318 26.8495 24.0122 26.7424C24.0658 26.662 24.1194 26.5816 24.173 26.5012C24.2266 26.4477 24.2534 26.3673 24.3071 26.2869C24.3339 26.2333 24.3875 26.1797 24.4143 26.0994C24.4411 26.0458 24.4679 26.019 24.4947 25.9654C24.5215 25.9118 24.5751 25.8314 24.6019 25.7778C24.6287 25.751 24.6287 25.6975 24.6555 25.6707C24.7091 25.5903 24.7359 25.4831 24.7895 25.4027C24.8967 25.1884 24.9772 24.9741 25.0308 24.7597C25.272 24.0631 25.3792 23.3129 25.3792 22.5627C25.3792 21.8125 25.272 21.0623 25.0308 20.3657C24.5751 18.9457 23.6638 17.6864 22.4576 16.8023C22.3772 16.7487 22.2968 16.6683 22.1895 16.6147C22.1627 16.5879 22.1359 16.5611 22.0823 16.5611C21.8947 16.454 21.7071 16.3468 21.5194 16.2396C21.4658 16.2128 21.4122 16.186 21.3586 16.1592C21.1978 16.0789 21.0638 15.9985 20.8761 15.9449C20.8225 15.9181 20.7689 15.8913 20.7153 15.8913C20.6349 15.8645 20.5545 15.8377 20.4741 15.8109C20.4205 15.8109 20.3937 15.7841 20.34 15.7573C20.2328 15.7305 20.0988 15.677 19.9648 15.6502C19.8844 15.6234 19.804 15.5966 19.7236 15.5966H19.6967C19.6699 15.5966 19.67 15.5966 19.6431 15.5966C19.6163 15.5966 19.5895 15.5966 19.5895 15.5966C19.4823 15.5698 19.3751 15.5698 19.2679 15.543C18.839 15.4894 18.5174 15.1143 18.5174 14.6856C18.5174 14.4445 18.6246 14.2034 18.8122 14.0426C18.973 13.9087 19.1875 13.8283 19.4019 13.8283C19.4555 13.8283 19.4823 13.8283 19.5359 13.8283C20.9565 14.0426 22.2968 14.5785 23.4761 15.4358C24.9772 16.5343 26.1297 18.1151 26.6926 19.8566C26.9875 20.7408 27.1215 21.6517 27.1215 22.5895C27.1215 23.5272 26.9875 24.4382 26.6926 25.3224C26.2906 26.662 25.5132 27.8945 24.4679 28.9126ZM26.505 11.792C25.7813 11.3097 24.8967 11.0418 23.9586 11.0418H13.237C12.2988 11.0418 11.4143 11.3097 10.6906 11.792C9.40397 12.6226 8.54624 14.0962 8.54624 15.7306V29.1269C8.54624 30.7881 9.40397 32.2349 10.6906 33.0655C11.4143 33.5477 12.2988 33.8157 13.237 33.8157H23.9586C24.8967 33.8157 25.7813 33.5477 26.505 33.0655C27.7916 32.2349 28.6493 30.7881 28.6493 29.1269V15.7306C28.6493 14.0694 27.7916 12.6226 26.505 11.792ZM16.4802 26.1261C16.3998 25.8582 16.4266 25.5635 16.6143 25.3224C16.7751 25.108 17.0431 24.9741 17.3112 24.9741C17.3916 24.9741 17.4988 24.9741 17.5792 25.0276C17.7937 25.0812 18.0349 25.108 18.2761 25.108C18.8122 25.108 19.3483 24.9473 19.7772 24.6258C20.206 24.3042 20.5545 23.8488 20.7153 23.3397C20.7957 23.0718 20.8493 22.8306 20.8493 22.5359C20.8493 22.268 20.7957 22.0001 20.7153 21.7589C20.5545 21.2499 20.2328 20.7944 19.7772 20.4729C19.5895 20.3389 19.3751 20.2049 19.1607 20.1514C18.7854 20.0174 18.571 19.6959 18.571 19.3208C18.571 19.0261 18.705 18.7849 18.9462 18.6242C19.1607 18.4634 19.4287 18.4098 19.6699 18.4902C19.6967 18.4902 19.7235 18.517 19.7504 18.517C19.8576 18.5438 19.938 18.5974 20.0184 18.6242C20.0988 18.6778 20.206 18.7045 20.2864 18.7581C20.3668 18.8117 20.4473 18.8385 20.5277 18.8921C20.5545 18.8921 20.5545 18.9189 20.5813 18.9189C20.6617 18.9725 20.7421 19.0261 20.8225 19.0796C21.5462 19.6155 22.1091 20.3657 22.3772 21.2231C22.5112 21.6518 22.5916 22.0804 22.5916 22.5359C22.5916 22.9914 22.5112 23.4469 22.3772 23.8756C22.1091 24.7329 21.5462 25.4831 20.8225 26.019C20.0988 26.5548 19.2143 26.8496 18.3029 26.8496C18.1957 26.8496 18.0617 26.8496 17.9545 26.8228C17.9009 26.8228 17.8473 26.8228 17.7937 26.796C17.74 26.796 17.6596 26.7692 17.606 26.7692C17.5524 26.7692 17.4988 26.7424 17.472 26.7424C17.4184 26.7424 17.3648 26.7156 17.3112 26.7156C17.2576 26.7156 17.204 26.6888 17.1503 26.662H17.1236C17.0967 26.662 17.0967 26.662 17.0699 26.6352C17.0699 26.6352 17.0699 26.6352 17.0431 26.6352C16.7483 26.5816 16.5607 26.3941 16.4802 26.1261ZM16.8555 27.1711H16.8823C16.9091 27.1711 16.9359 27.1711 16.9627 27.1979C17.0163 27.2246 17.0967 27.2246 17.1503 27.2514C17.204 27.2782 17.2844 27.2782 17.338 27.305C17.3916 27.305 17.4452 27.3318 17.4988 27.3318C17.7669 27.3854 18.0349 27.3854 18.3029 27.3854C19.3483 27.3854 20.3132 27.0639 21.1442 26.4477C21.9483 25.8582 22.5916 25.0008 22.8864 24.0363C23.0473 23.554 23.1277 23.045 23.1277 22.5359C23.1277 22.0269 23.0473 21.5178 22.8864 21.0355C22.5648 20.071 21.9483 19.2136 21.1442 18.6242C21.0638 18.5706 21.0102 18.517 20.9297 18.4902C20.6617 18.3027 20.3669 18.1687 20.0452 18.0347C20.0184 18.0079 19.9648 18.0079 19.938 17.9812H19.9112C19.6968 17.9008 19.4823 17.8472 19.2411 17.7936C18.839 17.7132 18.571 17.3649 18.571 16.9362C18.571 16.6683 18.6782 16.4272 18.8926 16.2664C19.0802 16.1324 19.2947 16.0521 19.5091 16.0789C19.5627 16.0789 19.5895 16.1057 19.6431 16.1057C19.7236 16.1057 19.804 16.1324 19.8844 16.1592C19.938 16.1592 19.9916 16.186 20.0452 16.186C20.0988 16.2128 20.1792 16.2128 20.2328 16.2396C20.2864 16.2664 20.3668 16.2932 20.4205 16.2932C20.5277 16.32 20.6617 16.3736 20.7689 16.4272C21.0369 16.5343 21.2782 16.6415 21.5194 16.7755C21.573 16.8023 21.6266 16.8291 21.6803 16.8559C21.7607 16.9094 21.8679 16.963 21.9483 17.0166C22.0287 17.0702 22.1091 17.1238 22.1895 17.1774C23.3153 17.9812 24.1462 19.16 24.5751 20.4729C24.7895 21.1159 24.8967 21.8125 24.8967 22.5091C24.8967 23.2057 24.7895 23.9024 24.5751 24.5454C24.5483 24.599 24.5215 24.6793 24.5215 24.7329C24.4947 24.7865 24.4679 24.8669 24.4411 24.9205C24.4143 24.9741 24.3875 25.0544 24.3607 25.108C24.2803 25.3224 24.173 25.5367 24.0658 25.7243C24.039 25.7778 23.9854 25.8582 23.9586 25.9118C23.905 25.9922 23.8514 26.0994 23.771 26.1797C23.7174 26.2333 23.6906 26.3137 23.6369 26.3673C23.5833 26.4477 23.5029 26.5548 23.4225 26.6352C23.3689 26.7156 23.2885 26.796 23.2349 26.8496C23.2081 26.8763 23.1813 26.9299 23.1545 26.9567C23.0741 27.0371 22.9936 27.1175 22.9132 27.1979C22.6988 27.4122 22.4308 27.6265 22.1895 27.8141C21.0638 28.6447 19.7236 29.0733 18.3297 29.0733C16.9359 29.0733 15.5957 28.6447 14.4699 27.8141C13.7194 27.2514 13.0493 26.528 12.5937 25.7243C12.4596 25.5099 12.4596 25.242 12.5401 25.0008C12.6473 24.7597 12.8349 24.5722 13.1029 24.4918C13.1833 24.465 13.2906 24.4382 13.371 24.4382C13.6658 24.4382 13.9607 24.599 14.1215 24.8669C14.4699 25.4831 14.9256 26.019 15.4885 26.4209C15.8906 26.796 16.373 27.0371 16.8555 27.1711ZM24.4679 28.9126C24.2803 29.1001 24.039 29.1805 23.771 29.1537C23.5029 29.1269 23.2885 28.993 23.1277 28.8054C22.8596 28.4571 22.9132 27.9748 23.2349 27.6533C23.2617 27.6265 23.2617 27.6265 23.2885 27.5997C23.3421 27.5462 23.4225 27.4658 23.4761 27.3854C23.5833 27.2782 23.6638 27.1711 23.7442 27.0639C23.8246 26.9567 23.9318 26.8495 24.0122 26.7424C24.0658 26.662 24.1194 26.5816 24.173 26.5012C24.2266 26.4477 24.2534 26.3673 24.3071 26.2869C24.3339 26.2333 24.3875 26.1797 24.4143 26.0994C24.4411 26.0458 24.4679 26.019 24.4947 25.9654C24.5215 25.9118 24.5751 25.8314 24.6019 25.7778C24.6287 25.751 24.6287 25.6975 24.6555 25.6707C24.7091 25.5903 24.7359 25.4831 24.7895 25.4027C24.8967 25.1884 24.9772 24.9741 25.0308 24.7597C25.272 24.0631 25.3792 23.3129 25.3792 22.5627C25.3792 21.8125 25.272 21.0623 25.0308 20.3657C24.5751 18.9457 23.6638 17.6864 22.4576 16.8023C22.3772 16.7487 22.2968 16.6683 22.1895 16.6147C22.1627 16.5879 22.1359 16.5611 22.0823 16.5611C21.8947 16.454 21.7071 16.3468 21.5194 16.2396C21.4658 16.2128 21.4122 16.186 21.3586 16.1592C21.1978 16.0789 21.0638 15.9985 20.8761 15.9449C20.8225 15.9181 20.7689 15.8913 20.7153 15.8913C20.6349 15.8645 20.5545 15.8377 20.4741 15.8109C20.4205 15.8109 20.3937 15.7841 20.34 15.7573C20.2328 15.7305 20.0988 15.677 19.9648 15.6502C19.8844 15.6234 19.804 15.5966 19.7236 15.5966H19.6967C19.6699 15.5966 19.67 15.5966 19.6431 15.5966C19.6163 15.5966 19.5895 15.5966 19.5895 15.5966C19.4823 15.5698 19.3751 15.5698 19.2679 15.543C18.839 15.4894 18.5174 15.1143 18.5174 14.6856C18.5174 14.4445 18.6246 14.2034 18.8122 14.0426C18.973 13.9087 19.1875 13.8283 19.4019 13.8283C19.4555 13.8283 19.4823 13.8283 19.5359 13.8283C20.9565 14.0426 22.2968 14.5785 23.4761 15.4358C24.9772 16.5343 26.1297 18.1151 26.6926 19.8566C26.9875 20.7408 27.1215 21.6517 27.1215 22.5895C27.1215 23.5272 26.9875 24.4382 26.6926 25.3224C26.2906 26.662 25.5132 27.8945 24.4679 28.9126ZM26.505 11.792C25.7813 11.3097 24.8967 11.0418 23.9586 11.0418H13.237C12.2988 11.0418 11.4143 11.3097 10.6906 11.792C9.40397 12.6226 8.54624 14.0962 8.54624 15.7306V29.1269C8.54624 30.7881 9.40397 32.2349 10.6906 33.0655C11.4143 33.5477 12.2988 33.8157 13.237 33.8157H23.9586C24.8967 33.8157 25.7813 33.5477 26.505 33.0655C27.7916 32.2349 28.6493 30.7881 28.6493 29.1269V15.7306C28.6493 14.0694 27.7916 12.6226 26.505 11.792ZM16.4802 26.1261C16.3998 25.8582 16.4266 25.5635 16.6143 25.3224C16.7751 25.108 17.0431 24.9741 17.3112 24.9741C17.3916 24.9741 17.4988 24.9741 17.5792 25.0276C17.7937 25.0812 18.0349 25.108 18.2761 25.108C18.8122 25.108 19.3483 24.9473 19.7772 24.6258C20.206 24.3042 20.5545 23.8488 20.7153 23.3397C20.7957 23.0718 20.8493 22.8306 20.8493 22.5359C20.8493 22.268 20.7957 22.0001 20.7153 21.7589C20.5545 21.2499 20.2328 20.7944 19.7772 20.4729C19.5895 20.3389 19.3751 20.2049 19.1607 20.1514C18.7854 20.0174 18.571 19.6959 18.571 19.3208C18.571 19.0261 18.705 18.7849 18.9462 18.6242C19.1607 18.4634 19.4287 18.4098 19.6699 18.4902C19.6967 18.4902 19.7235 18.517 19.7504 18.517C19.8576 18.5438 19.938 18.5974 20.0184 18.6242C20.0988 18.6778 20.206 18.7045 20.2864 18.7581C20.3668 18.8117 20.4473 18.8385 20.5277 18.8921C20.5545 18.8921 20.5545 18.9189 20.5813 18.9189C20.6617 18.9725 20.7421 19.0261 20.8225 19.0796C21.5462 19.6155 22.1091 20.3657 22.3772 21.2231C22.5112 21.6518 22.5916 22.0804 22.5916 22.5359C22.5916 22.9914 22.5112 23.4469 22.3772 23.8756C22.1091 24.7329 21.5462 25.4831 20.8225 26.019C20.0988 26.5548 19.2143 26.8496 18.3029 26.8496C18.1957 26.8496 18.0617 26.8496 17.9545 26.8228C17.9009 26.8228 17.8473 26.8228 17.7937 26.796C17.74 26.796 17.6596 26.7692 17.606 26.7692C17.5524 26.7692 17.4988 26.7424 17.472 26.7424C17.4184 26.7424 17.3648 26.7156 17.3112 26.7156C17.2576 26.7156 17.204 26.6888 17.1503 26.662H17.1236C17.0967 26.662 17.0967 26.662 17.0699 26.6352C17.0699 26.6352 17.0699 26.6352 17.0431 26.6352C16.7483 26.5816 16.5607 26.3941 16.4802 26.1261ZM16.8555 27.1711H16.8823C16.9091 27.1711 16.9359 27.1711 16.9627 27.1979C17.0163 27.2246 17.0967 27.2246 17.1503 27.2514C17.204 27.2782 17.2844 27.2782 17.338 27.305C17.3916 27.305 17.4452 27.3318 17.4988 27.3318C17.7669 27.3854 18.0349 27.3854 18.3029 27.3854C19.3483 27.3854 20.3132 27.0639 21.1442 26.4477C21.9483 25.8582 22.5916 25.0008 22.8864 24.0363C23.0473 23.554 23.1277 23.045 23.1277 22.5359C23.1277 22.0269 23.0473 21.5178 22.8864 21.0355C22.5648 20.071 21.9483 19.2136 21.1442 18.6242C21.0638 18.5706 21.0102 18.517 20.9297 18.4902C20.6617 18.3027 20.3669 18.1687 20.0452 18.0347C20.0184 18.0079 19.9648 18.0079 19.938 17.9812H19.9112C19.6968 17.9008 19.4823 17.8472 19.2411 17.7936C18.839 17.7132 18.571 17.3649 18.571 16.9362C18.571 16.6683 18.6782 16.4272 18.8926 16.2664C19.0802 16.1324 19.2947 16.0521 19.5091 16.0789C19.5627 16.0789 19.5895 16.1057 19.6431 16.1057C19.7236 16.1057 19.804 16.1324 19.8844 16.1592C19.938 16.1592 19.9916 16.186 20.0452 16.186C20.0988 16.2128 20.1792 16.2128 20.2328 16.2396C20.2864 16.2664 20.3668 16.2932 20.4205 16.2932C20.5277 16.32 20.6617 16.3736 20.7689 16.4272C21.0369 16.5343 21.2782 16.6415 21.5194 16.7755C21.573 16.8023 21.6266 16.8291 21.6803 16.8559C21.7607 16.9094 21.8679 16.963 21.9483 17.0166C22.0287 17.0702 22.1091 17.1238 22.1895 17.1774C23.3153 17.9812 24.1462 19.16 24.5751 20.4729C24.7895 21.1159 24.8967 21.8125 24.8967 22.5091C24.8967 23.2057 24.7895 23.9024 24.5751 24.5454C24.5483 24.599 24.5215 24.6793 24.5215 24.7329C24.4947 24.7865 24.4679 24.8669 24.4411 24.9205C24.4143 24.9741 24.3875 25.0544 24.3607 25.108C24.2803 25.3224 24.173 25.5367 24.0658 25.7243C24.039 25.7778 23.9854 25.8582 23.9586 25.9118C23.905 25.9922 23.8514 26.0994 23.771 26.1797C23.7174 26.2333 23.6906 26.3137 23.6369 26.3673C23.5833 26.4477 23.5029 26.5548 23.4225 26.6352C23.3689 26.7156 23.2885 26.796 23.2349 26.8496C23.2081 26.8763 23.1813 26.9299 23.1545 26.9567C23.0741 27.0371 22.9936 27.1175 22.9132 27.1979C22.6988 27.4122 22.4308 27.6265 22.1895 27.8141C21.0638 28.6447 19.7236 29.0733 18.3297 29.0733C16.9359 29.0733 15.5957 28.6447 14.4699 27.8141C13.7194 27.2514 13.0493 26.528 12.5937 25.7243C12.4596 25.5099 12.4596 25.242 12.5401 25.0008C12.6473 24.7597 12.8349 24.5722 13.1029 24.4918C13.1833 24.465 13.2906 24.4382 13.371 24.4382C13.6658 24.4382 13.9607 24.599 14.1215 24.8669C14.4699 25.4831 14.9256 26.019 15.4885 26.4209C15.8906 26.796 16.373 27.0371 16.8555 27.1711ZM24.4679 28.9126C24.2803 29.1001 24.039 29.1805 23.771 29.1537C23.5029 29.1269 23.2885 28.993 23.1277 28.8054C22.8596 28.4571 22.9132 27.9748 23.2349 27.6533C23.2617 27.6265 23.2617 27.6265 23.2885 27.5997C23.3421 27.5462 23.4225 27.4658 23.4761 27.3854C23.5833 27.2782 23.6638 27.1711 23.7442 27.0639C23.8246 26.9567 23.9318 26.8495 24.0122 26.7424C24.0658 26.662 24.1194 26.5816 24.173 26.5012C24.2266 26.4477 24.2534 26.3673 24.3071 26.2869C24.3339 26.2333 24.3875 26.1797 24.4143 26.0994C24.4411 26.0458 24.4679 26.019 24.4947 25.9654C24.5215 25.9118 24.5751 25.8314 24.6019 25.7778C24.6287 25.751 24.6287 25.6975 24.6555 25.6707C24.7091 25.5903 24.7359 25.4831 24.7895 25.4027C24.8967 25.1884 24.9772 24.9741 25.0308 24.7597C25.272 24.0631 25.3792 23.3129 25.3792 22.5627C25.3792 21.8125 25.272 21.0623 25.0308 20.3657C24.5751 18.9457 23.6638 17.6864 22.4576 16.8023C22.3772 16.7487 22.2968 16.6683 22.1895 16.6147C22.1627 16.5879 22.1359 16.5611 22.0823 16.5611C21.8947 16.454 21.7071 16.3468 21.5194 16.2396C21.4658 16.2128 21.4122 16.186 21.3586 16.1592C21.1978 16.0789 21.0638 15.9985 20.8761 15.9449C20.8225 15.9181 20.7689 15.8913 20.7153 15.8913C20.6349 15.8645 20.5545 15.8377 20.4741 15.8109C20.4205 15.8109 20.3937 15.7841 20.34 15.7573C20.2328 15.7305 20.0988 15.677 19.9648 15.6502C19.8844 15.6234 19.804 15.5966 19.7236 15.5966H19.6967C19.6699 15.5966 19.67 15.5966 19.6431 15.5966C19.6163 15.5966 19.5895 15.5966 19.5895 15.5966C19.4823 15.5698 19.3751 15.5698 19.2679 15.543C18.839 15.4894 18.5174 15.1143 18.5174 14.6856C18.5174 14.4445 18.6246 14.2034 18.8122 14.0426C18.973 13.9087 19.1875 13.8283 19.4019 13.8283C19.4555 13.8283 19.4823 13.8283 19.5359 13.8283C20.9565 14.0426 22.2968 14.5785 23.4761 15.4358C24.9772 16.5343 26.1297 18.1151 26.6926 19.8566C26.9875 20.7408 27.1215 21.6517 27.1215 22.5895C27.1215 23.5272 26.9875 24.4382 26.6926 25.3224C26.2906 26.662 25.5132 27.8945 24.4679 28.9126ZM26.505 11.792C25.7813 11.3097 24.8967 11.0418 23.9586 11.0418H13.237C12.2988 11.0418 11.4143 11.3097 10.6906 11.792C9.40397 12.6226 8.54624 14.0962 8.54624 15.7306V29.1269C8.54624 30.7881 9.40397 32.2349 10.6906 33.0655C11.4143 33.5477 12.2988 33.8157 13.237 33.8157H23.9586C24.8967 33.8157 25.7813 33.5477 26.505 33.0655C27.7916 32.2349 28.6493 30.7881 28.6493 29.1269V15.7306C28.6493 14.0694 27.7916 12.6226 26.505 11.792ZM16.4802 26.1261C16.3998 25.8582 16.4266 25.5635 16.6143 25.3224C16.7751 25.108 17.0431 24.9741 17.3112 24.9741C17.3916 24.9741 17.4988 24.9741 17.5792 25.0276C17.7937 25.0812 18.0349 25.108 18.2761 25.108C18.8122 25.108 19.3483 24.9473 19.7772 24.6258C20.206 24.3042 20.5545 23.8488 20.7153 23.3397C20.7957 23.0718 20.8493 22.8306 20.8493 22.5359C20.8493 22.268 20.7957 22.0001 20.7153 21.7589C20.5545 21.2499 20.2328 20.7944 19.7772 20.4729C19.5895 20.3389 19.3751 20.2049 19.1607 20.1514C18.7854 20.0174 18.571 19.6959 18.571 19.3208C18.571 19.0261 18.705 18.7849 18.9462 18.6242C19.1607 18.4634 19.4287 18.4098 19.6699 18.4902C19.6967 18.4902 19.7235 18.517 19.7504 18.517C19.8576 18.5438 19.938 18.5974 20.0184 18.6242C20.0988 18.6778 20.206 18.7045 20.2864 18.7581C20.3668 18.8117 20.4473 18.8385 20.5277 18.8921C20.5545 18.8921 20.5545 18.9189 20.5813 18.9189C20.6617 18.9725 20.7421 19.0261 20.8225 19.0796C21.5462 19.6155 22.1091 20.3657 22.3772 21.2231C22.5112 21.6518 22.5916 22.0804 22.5916 22.5359C22.5916 22.9914 22.5112 23.4469 22.3772 23.8756C22.1091 24.7329 21.5462 25.4831 20.8225 26.019C20.0988 26.5548 19.2143 26.8496 18.3029 26.8496C18.1957 26.8496 18.0617 26.8496 17.9545 26.8228C17.9009 26.8228 17.8473 26.8228 17.7937 26.796C17.74 26.796 17.6596 26.7692 17.606 26.7692C17.5524 26.7692 17.4988 26.7424 17.472 26.7424C17.4184 26.7424 17.3648 26.7156 17.3112 26.7156C17.2576 26.7156 17.204 26.6888 17.1503 26.662H17.1236C17.0967 26.662 17.0967 26.662 17.0699 26.6352C17.0699 26.6352 17.0699 26.6352 17.0431 26.6352C16.7483 26.5816 16.5607 26.3941 16.4802 26.1261ZM16.8555 27.1711H16.8823C16.9091 27.1711 16.9359 27.1711 16.9627 27.1979C17.0163 27.2246 17.0967 27.2246 17.1503 27.2514C17.204 27.2782 17.2844 27.2782 17.338 27.305C17.3916 27.305 17.4452 27.3318 17.4988 27.3318C17.7669 27.3854 18.0349 27.3854 18.3029 27.3854C19.3483 27.3854 20.3132 27.0639 21.1442 26.4477C21.9483 25.8582 22.5916 25.0008 22.8864 24.0363C23.0473 23.554 23.1277 23.045 23.1277 22.5359C23.1277 22.0269 23.0473 21.5178 22.8864 21.0355C22.5648 20.071 21.9483 19.2136 21.1442 18.6242C21.0638 18.5706 21.0102 18.517 20.9297 18.4902C20.6617 18.3027 20.3669 18.1687 20.0452 18.0347C20.0184 18.0079 19.9648 18.0079 19.938 17.9812H19.9112C19.6968 17.9008 19.4823 17.8472 19.2411 17.7936C18.839 17.7132 18.571 17.3649 18.571 16.9362C18.571 16.6683 18.6782 16.4272 18.8926 16.2664C19.0802 16.1324 19.2947 16.0521 19.5091 16.0789C19.5627 16.0789 19.5895 16.1057 19.6431 16.1057C19.7236 16.1057 19.804 16.1324 19.8844 16.1592C19.938 16.1592 19.9916 16.186 20.0452 16.186C20.0988 16.2128 20.1792 16.2128 20.2328 16.2396C20.2864 16.2664 20.3668 16.2932 20.4205 16.2932C20.5277 16.32 20.6617 16.3736 20.7689 16.4272C21.0369 16.5343 21.2782 16.6415 21.5194 16.7755C21.573 16.8023 21.6266 16.8291 21.6803 16.8559C21.7607 16.9094 21.8679 16.963 21.9483 17.0166C22.0287 17.0702 22.1091 17.1238 22.1895 17.1774C23.3153 17.9812 24.1462 19.16 24.5751 20.4729C24.7895 21.1159 24.8967 21.8125 24.8967 22.5091C24.8967 23.2057 24.7895 23.9024 24.5751 24.5454C24.5483 24.599 24.5215 24.6793 24.5215 24.7329C24.4947 24.7865 24.4679 24.8669 24.4411 24.9205C24.4143 24.9741 24.3875 25.0544 24.3607 25.108C24.2803 25.3224 24.173 25.5367 24.0658 25.7243C24.039 25.7778 23.9854 25.8582 23.9586 25.9118C23.905 25.9922 23.8514 26.0994 23.771 26.1797C23.7174 26.2333 23.6906 26.3137 23.6369 26.3673C23.5833 26.4477 23.5029 26.5548 23.4225 26.6352C23.3689 26.7156 23.2885 26.796 23.2349 26.8496C23.2081 26.8763 23.1813 26.9299 23.1545 26.9567C23.0741 27.0371 22.9936 27.1175 22.9132 27.1979C22.6988 27.4122 22.4308 27.6265 22.1895 27.8141C21.0638 28.6447 19.7236 29.0733 18.3297 29.0733C16.9359 29.0733 15.5957 28.6447 14.4699 27.8141C13.7194 27.2514 13.0493 26.528 12.5937 25.7243C12.4596 25.5099 12.4596 25.242 12.5401 25.0008C12.6473 24.7597 12.8349 24.5722 13.1029 24.4918C13.1833 24.465 13.2906 24.4382 13.371 24.4382C13.6658 24.4382 13.9607 24.599 14.1215 24.8669C14.4699 25.4831 14.9256 26.019 15.4885 26.4209C15.8906 26.796 16.373 27.0371 16.8555 27.1711ZM24.4679 28.9126C24.2803 29.1001 24.039 29.1805 23.771 29.1537C23.5029 29.1269 23.2885 28.993 23.1277 28.8054C22.8596 28.4571 22.9132 27.9748 23.2349 27.6533C23.2617 27.6265 23.2617 27.6265 23.2885 27.5997C23.3421 27.5462 23.4225 27.4658 23.4761 27.3854C23.5833 27.2782 23.6638 27.1711 23.7442 27.0639C23.8246 26.9567 23.9318 26.8495 24.0122 26.7424C24.0658 26.662 24.1194 26.5816 24.173 26.5012C24.2266 26.4477 24.2534 26.3673 24.3071 26.2869C24.3339 26.2333 24.3875 26.1797 24.4143 26.0994C24.4411 26.0458 24.4679 26.019 24.4947 25.9654C24.5215 25.9118 24.5751 25.8314 24.6019 25.7778C24.6287 25.751 24.6287 25.6975 24.6555 25.6707C24.7091 25.5903 24.7359 25.4831 24.7895 25.4027C24.8967 25.1884 24.9772 24.9741 25.0308 24.7597C25.272 24.0631 25.3792 23.3129 25.3792 22.5627C25.3792 21.8125 25.272 21.0623 25.0308 20.3657C24.5751 18.9457 23.6638 17.6864 22.4576 16.8023C22.3772 16.7487 22.2968 16.6683 22.1895 16.6147C22.1627 16.5879 22.1359 16.5611 22.0823 16.5611C21.8947 16.454 21.7071 16.3468 21.5194 16.2396C21.4658 16.2128 21.4122 16.186 21.3586 16.1592C21.1978 16.0789 21.0638 15.9985 20.8761 15.9449C20.8225 15.9181 20.7689 15.8913 20.7153 15.8913C20.6349 15.8645 20.5545 15.8377 20.4741 15.8109C20.4205 15.8109 20.3937 15.7841 20.34 15.7573C20.2328 15.7305 20.0988 15.677 19.9648 15.6502C19.8844 15.6234 19.804 15.5966 19.7236 15.5966H19.6967C19.6699 15.5966 19.67 15.5966 19.6431 15.5966C19.6163 15.5966 19.5895 15.5966 19.5895 15.5966C19.4823 15.5698 19.3751 15.5698 19.2679 15.543C18.839 15.4894 18.5174 15.1143 18.5174 14.6856C18.5174 14.4445 18.6246 14.2034 18.8122 14.0426C18.973 13.9087 19.1875 13.8283 19.4019 13.8283C19.4555 13.8283 19.4823 13.8283 19.5359 13.8283C20.9565 14.0426 22.2968 14.5785 23.4761 15.4358C24.9772 16.5343 26.1297 18.1151 26.6926 19.8566C26.9875 20.7408 27.1215 21.6517 27.1215 22.5895C27.1215 23.5272 26.9875 24.4382 26.6926 25.3224C26.2906 26.662 25.5132 27.8945 24.4679 28.9126ZM26.505 11.792C25.7813 11.3097 24.8967 11.0418 23.9586 11.0418H13.237C12.2988 11.0418 11.4143 11.3097 10.6906 11.792C9.40397 12.6226 8.54624 14.0962 8.54624 15.7306V29.1269C8.54624 30.7881 9.40397 32.2349 10.6906 33.0655C11.4143 33.5477 12.2988 33.8157 13.237 33.8157H23.9586C24.8967 33.8157 25.7813 33.5477 26.505 33.0655C27.7916 32.2349 28.6493 30.7881 28.6493 29.1269V15.7306C28.6493 14.0694 27.7916 12.6226 26.505 11.792ZM16.4802 26.1261C16.3998 25.8582 16.4266 25.5635 16.6143 25.3224C16.7751 25.108 17.0431 24.9741 17.3112 24.9741C17.3916 24.9741 17.4988 24.9741 17.5792 25.0276C17.7937 25.0812 18.0349 25.108 18.2761 25.108C18.8122 25.108 19.3483 24.9473 19.7772 24.6258C20.206 24.3042 20.5545 23.8488 20.7153 23.3397C20.7957 23.0718 20.8493 22.8306 20.8493 22.5359C20.8493 22.268 20.7957 22.0001 20.7153 21.7589C20.5545 21.2499 20.2328 20.7944 19.7772 20.4729C19.5895 20.3389 19.3751 20.2049 19.1607 20.1514C18.7854 20.0174 18.571 19.6959 18.571 19.3208C18.571 19.0261 18.705 18.7849 18.9462 18.6242C19.1607 18.4634 19.4287 18.4098 19.6699 18.4902C19.6967 18.4902 19.7235 18.517 19.7504 18.517C19.8576 18.5438 19.938 18.5974 20.0184 18.6242C20.0988 18.6778 20.206 18.7045 20.2864 18.7581C20.3668 18.8117 20.4473 18.8385 20.5277 18.8921C20.5545 18.8921 20.5545 18.9189 20.5813 18.9189C20.6617 18.9725 20.7421 19.0261 20.8225 19.0796C21.5462 19.6155 22.1091 20.3657 22.3772 21.2231C22.5112 21.6518 22.5916 22.0804 22.5916 22.5359C22.5916 22.9914 22.5112 23.4469 22.3772 23.8756C22.1091 24.7329 21.5462 25.4831 20.8225 26.019C20.0988 26.5548 19.2143 26.8496 18.3029 26.8496C18.1957 26.8496 18.0617 26.8496 17.9545 26.8228C17.9009 26.8228 17.8473 26.8228 17.7937 26.796C17.74 26.796 17.6596 26.7692 17.606 26.7692C17.5524 26.7692 17.4988 26.7424 17.472 26.7424C17.4184 26.7424 17.3648 26.7156 17.3112 26.7156C17.2576 26.7156 17.204 26.6888 17.1503 26.662H17.1236C17.0967 26.662 17.0967 26.662 17.0699 26.6352C17.0699 26.6352 17.0699 26.6352 17.0431 26.6352C16.7483 26.5816 16.5607 26.3941 16.4802 26.1261ZM16.8555 27.1711H16.8823C16.9091 27.1711 16.9359 27.1711 16.9627 27.1979C17.0163 27.2246 17.0967 27.2246 17.1503 27.2514C17.204 27.2782 17.2844 27.2782 17.338 27.305C17.3916 27.305 17.4452 27.3318 17.4988 27.3318C17.7669 27.3854 18.0349 27.3854 18.3029 27.3854C19.3483 27.3854 20.3132 27.0639 21.1442 26.4477C21.9483 25.8582 22.5916 25.0008 22.8864 24.0363C23.0473 23.554 23.1277 23.045 23.1277 22.5359C23.1277 22.0269 23.0473 21.5178 22.8864 21.0355C22.5648 20.071 21.9483 19.2136 21.1442 18.6242C21.0638 18.5706 21.0102 18.517 20.9297 18.4902C20.6617 18.3027 20.3669 18.1687 20.0452 18.0347C20.0184 18.0079 19.9648 18.0079 19.938 17.9812H19.9112C19.6968 17.9008 19.4823 17.8472 19.2411 17.7936C18.839 17.7132 18.571 17.3649 18.571 16.9362C18.571 16.6683 18.6782 16.4272 18.8926 16.2664C19.0802 16.1324 19.2947 16.0521 19.5091 16.0789C19.5627 16.0789 19.5895 16.1057 19.6431 16.1057C19.7236 16.1057 19.804 16.1324 19.8844 16.1592C19.938 16.1592 19.9916 16.186 20.0452 16.186C20.0988 16.2128 20.1792 16.2128 20.2328 16.2396C20.2864 16.2664 20.3668 16.2932 20.4205 16.2932C20.5277 16.32 20.6617 16.3736 20.7689 16.4272C21.0369 16.5343 21.2782 16.6415 21.5194 16.7755C21.573 16.8023 21.6266 16.8291 21.6803 16.8559C21.7607 16.9094 21.8679 16.963 21.9483 17.0166C22.0287 17.0702 22.1091 17.1238 22.1895 17.1774C23.3153 17.9812 24.1462 19.16 24.5751 20.4729C24.7895 21.1159 24.8967 21.8125 24.8967 22.5091C24.8967 23.2057 24.7895 23.9024 24.5751 24.5454C24.5483 24.599 24.5215 24.6793 24.5215 24.7329C24.4947 24.7865 24.4679 24.8669 24.4411 24.9205C24.4143 24.9741 24.3875 25.0544 24.3607 25.108C24.2803 25.3224 24.173 25.5367 24.0658 25.7243C24.039 25.7778 23.9854 25.8582 23.9586 25.9118C23.905 25.9922 23.8514 26.0994 23.771 26.1797C23.7174 26.2333 23.6906 26.3137 23.6369 26.3673C23.5833 26.4477 23.5029 26.5548 23.4225 26.6352C23.3689 26.7156 23.2885 26.796 23.2349 26.8496C23.2081 26.8763 23.1813 26.9299 23.1545 26.9567C23.0741 27.0371 22.9936 27.1175 22.9132 27.1979C22.6988 27.4122 22.4308 27.6265 22.1895 27.8141C21.0638 28.6447 19.7236 29.0733 18.3297 29.0733C16.9359 29.0733 15.5957 28.6447 14.4699 27.8141C13.7194 27.2514 13.0493 26.528 12.5937 25.7243C12.4596 25.5099 12.4596 25.242 12.5401 25.0008C12.6473 24.7597 12.8349 24.5722 13.1029 24.4918C13.1833 24.465 13.2906 24.4382 13.371 24.4382C13.6658 24.4382 13.9607 24.599 14.1215 24.8669C14.4699 25.4831 14.9256 26.019 15.4885 26.4209C15.8906 26.796 16.373 27.0371 16.8555 27.1711ZM24.4679 28.9126C24.2803 29.1001 24.039 29.1805 23.771 29.1537C23.5029 29.1269 23.2885 28.993 23.1277 28.8054C22.8596 28.4571 22.9132 27.9748 23.2349 27.6533C23.2617 27.6265 23.2617 27.6265 23.2885 27.5997C23.3421 27.5462 23.4225 27.4658 23.4761 27.3854C23.5833 27.2782 23.6638 27.1711 23.7442 27.0639C23.8246 26.9567 23.9318 26.8495 24.0122 26.7424C24.0658 26.662 24.1194 26.5816 24.173 26.5012C24.2266 26.4477 24.2534 26.3673 24.3071 26.2869C24.3339 26.2333 24.3875 26.1797 24.4143 26.0994C24.4411 26.0458 24.4679 26.019 24.4947 25.9654C24.5215 25.9118 24.5751 25.8314 24.6019 25.7778C24.6287 25.751 24.6287 25.6975 24.6555 25.6707C24.7091 25.5903 24.7359 25.4831 24.7895 25.4027C24.8967 25.1884 24.9772 24.9741 25.0308 24.7597C25.272 24.0631 25.3792 23.3129 25.3792 22.5627C25.3792 21.8125 25.272 21.0623 25.0308 20.3657C24.5751 18.9457 23.6638 17.6864 22.4576 16.8023C22.3772 16.7487 22.2968 16.6683 22.1895 16.6147C22.1627 16.5879 22.1359 16.5611 22.0823 16.5611C21.8947 16.454 21.7071 16.3468 21.5194 16.2396C21.4658 16.2128 21.4122 16.186 21.3586 16.1592C21.1978 16.0789 21.0638 15.9985 20.8761 15.9449C20.8225 15.9181 20.7689 15.8913 20.7153 15.8913C20.6349 15.8645 20.5545 15.8377 20.4741 15.8109C20.4205 15.8109 20.3937 15.7841 20.34 15.7573C20.2328 15.7305 20.0988 15.677 19.9648 15.6502C19.8844 15.6234 19.804 15.5966 19.7236 15.5966H19.6967C19.6699 15.5966 19.67 15.5966 19.6431 15.5966C19.6163 15.5966 19.5895 15.5966 19.5895 15.5966C19.4823 15.5698 19.3751 15.5698 19.2679 15.543C18.839 15.4894 18.5174 15.1143 18.5174 14.6856C18.5174 14.4445 18.6246 14.2034 18.8122 14.0426C18.973 13.9087 19.1875 13.8283 19.4019 13.8283C19.4555 13.8283 19.4823 13.8283 19.5359 13.8283C20.9565 14.0426 22.2968 14.5785 23.4761 15.4358C24.9772 16.5343 26.1297 18.1151 26.6926 19.8566C26.9875 20.7408 27.1215 21.6517 27.1215 22.5895C27.1215 23.5272 26.9875 24.4382 26.6926 25.3224C26.2906 26.662 25.5132 27.8945 24.4679 28.9126ZM26.505 11.792C25.7813 11.3097 24.8967 11.0418 23.9586 11.0418H13.237C12.2988 11.0418 11.4143 11.3097 10.6906 11.792C9.40397 12.6226 8.54624 14.0962 8.54624 15.7306V29.1269C8.54624 30.7881 9.40397 32.2349 10.6906 33.0655C11.4143 33.5477 12.2988 33.8157 13.237 33.8157H23.9586C24.8967 33.8157 25.7813 33.5477 26.505 33.0655C27.7916 32.2349 28.6493 30.7881 28.6493 29.1269V15.7306C28.6493 14.0694 27.7916 12.6226 26.505 11.792ZM16.4802 26.1261C16.3998 25.8582 16.4266 25.5635 16.6143 25.3224C16.7751 25.108 17.0431 24.9741 17.3112 24.9741C17.3916 24.9741 17.4988 24.9741 17.5792 25.0276C17.7937 25.0812 18.0349 25.108 18.2761 25.108C18.8122 25.108 19.3483 24.9473 19.7772 24.6258C20.206 24.3042 20.5545 23.8488 20.7153 23.3397C20.7957 23.0718 20.8493 22.8306 20.8493 22.5359C20.8493 22.268 20.7957 22.0001 20.7153 21.7589C20.5545 21.2499 20.2328 20.7944 19.7772 20.4729C19.5895 20.3389 19.3751 20.2049 19.1607 20.1514C18.7854 20.0174 18.571 19.6959 18.571 19.3208C18.571 19.0261 18.705 18.7849 18.9462 18.6242C19.1607 18.4634 19.4287 18.4098 19.6699 18.4902C19.6967 18.4902 19.7235 18.517 19.7504 18.517C19.8576 18.5438 19.938 18.5974 20.0184 18.6242C20.0988 18.6778 20.206 18.7045 20.2864 18.7581C20.3668 18.8117 20.4473 18.8385 20.5277 18.8921C20.5545 18.8921 20.5545 18.9189 20.5813 18.9189C20.6617 18.9725 20.7421 19.0261 20.8225 19.0796C21.5462 19.6155 22.1091 20.3657 22.3772 21.2231C22.5112 21.6518 22.5916 22.0804 22.5916 22.5359C22.5916 22.9914 22.5112 23.4469 22.3772 23.8756C22.1091 24.7329 21.5462 25.4831 20.8225 26.019C20.0988 26.5548 19.2143 26.8496 18.3029 26.8496C18.1957 26.8496 18.0617 26.8496 17.9545 26.8228C17.9009 26.8228 17.8473 26.8228 17.7937 26.796C17.74 26.796 17.6596 26.7692 17.606 26.7692C17.5524 26.7692 17.4988 26.7424 17.472 26.7424C17.4184 26.7424 17.3648 26.7156 17.3112 26.7156C17.2576 26.7156 17.204 26.6888 17.1503 26.662H17.1236C17.0967 26.662 17.0967 26.662 17.0699 26.6352C17.0699 26.6352 17.0699 26.6352 17.0431 26.6352C16.7483 26.5816 16.5607 26.3941 16.4802 26.1261ZM16.8555 27.1711H16.8823C16.9091 27.1711 16.9359 27.1711 16.9627 27.1979C17.0163 27.2246 17.0967 27.2246 17.1503 27.2514C17.204 27.2782 17.2844 27.2782 17.338 27.305C17.3916 27.305 17.4452 27.3318 17.4988 27.3318C17.7669 27.3854 18.0349 27.3854 18.3029 27.3854C19.3483 27.3854 20.3132 27.0639 21.1442 26.4477C21.9483 25.8582 22.5916 25.0008 22.8864 24.0363C23.0473 23.554 23.1277 23.045 23.1277 22.5359C23.1277 22.0269 23.0473 21.5178 22.8864 21.0355C22.5648 20.071 21.9483 19.2136 21.1442 18.6242C21.0638 18.5706 21.0102 18.517 20.9297 18.4902C20.6617 18.3027 20.3669 18.1687 20.0452 18.0347C20.0184 18.0079 19.9648 18.0079 19.938 17.9812H19.9112C19.6968 17.9008 19.4823 17.8472 19.2411 17.7936C18.839 17.7132 18.571 17.3649 18.571 16.9362C18.571 16.6683 18.6782 16.4272 18.8926 16.2664C19.0802 16.1324 19.2947 16.0521 19.5091 16.0789C19.5627 16.0789 19.5895 16.1057 19.6431 16.1057C19.7236 16.1057 19.804 16.1324 19.8844 16.1592C19.938 16.1592 19.9916 16.186 20.0452 16.186C20.0988 16.2128 20.1792 16.2128 20.2328 16.2396C20.2864 16.2664 20.3668 16.2932 20.4205 16.2932C20.5277 16.32 20.6617 16.3736 20.7689 16.4272C21.0369 16.5343 21.2782 16.6415 21.5194 16.7755C21.573 16.8023 21.6266 16.8291 21.6803 16.8559C21.7607 16.9094 21.8679 16.963 21.9483 17.0166C22.0287 17.0702 22.1091 17.1238 22.1895 17.1774C23.3153 17.9812 24.1462 19.16 24.5751 20.4729C24.7895 21.1159 24.8967 21.8125 24.8967 22.5091C24.8967 23.2057 24.7895 23.9024 24.5751 24.5454C24.5483 24.599 24.5215 24.6793 24.5215 24.7329C24.4947 24.7865 24.4679 24.8669 24.4411 24.9205C24.4143 24.9741 24.3875 25.0544 24.3607 25.108C24.2803 25.3224 24.173 25.5367 24.0658 25.7243C24.039 25.7778 23.9854 25.8582 23.9586 25.9118C23.905 25.9922 23.8514 26.0994 23.771 26.1797C23.7174 26.2333 23.6906 26.3137 23.6369 26.3673C23.5833 26.4477 23.5029 26.5548 23.4225 26.6352C23.3689 26.7156 23.2885 26.796 23.2349 26.8496C23.2081 26.8763 23.1813 26.9299 23.1545 26.9567C23.0741 27.0371 22.9936 27.1175 22.9132 27.1979C22.6988 27.4122 22.4308 27.6265 22.1895 27.8141C21.0638 28.6447 19.7236 29.0733 18.3297 29.0733C16.9359 29.0733 15.5957 28.6447 14.4699 27.8141C13.7194 27.2514 13.0493 26.528 12.5937 25.7243C12.4596 25.5099 12.4596 25.242 12.5401 25.0008C12.6473 24.7597 12.8349 24.5722 13.1029 24.4918C13.1833 24.465 13.2906 24.4382 13.371 24.4382C13.6658 24.4382 13.9607 24.599 14.1215 24.8669C14.4699 25.4831 14.9256 26.019 15.4885 26.4209C15.8906 26.796 16.373 27.0371 16.8555 27.1711ZM24.4679 28.9126C24.2803 29.1001 24.039 29.1805 23.771 29.1537C23.5029 29.1269 23.2885 28.993 23.1277 28.8054C22.8596 28.4571 22.9132 27.9748 23.2349 27.6533C23.2617 27.6265 23.2617 27.6265 23.2885 27.5997C23.3421 27.5462 23.4225 27.4658 23.4761 27.3854C23.5833 27.2782 23.6638 27.1711 23.7442 27.0639C23.8246 26.9567 23.9318 26.8495 24.0122 26.7424C24.0658 26.662 24.1194 26.5816 24.173 26.5012C24.2266 26.4477 24.2534 26.3673 24.3071 26.2869C24.3339 26.2333 24.3875 26.1797 24.4143 26.0994C24.4411 26.0458 24.4679 26.019 24.4947 25.9654C24.5215 25.9118 24.5751 25.8314 24.6019 25.7778C24.6287 25.751 24.6287 25.6975 24.6555 25.6707C24.7091 25.5903 24.7359 25.4831 24.7895 25.4027C24.8967 25.1884 24.9772 24.9741 25.0308 24.7597C25.272 24.0631 25.3792 23.3129 25.3792 22.5627C25.3792 21.8125 25.272 21.0623 25.0308 20.3657C24.5751 18.9457 23.6638 17.6864 22.4576 16.8023C22.3772 16.7487 22.2968 16.6683 22.1895 16.6147C22.1627 16.5879 22.1359 16.5611 22.0823 16.5611C21.8947 16.454 21.7071 16.3468 21.5194 16.2396C21.4658 16.2128 21.4122 16.186 21.3586 16.1592C21.1978 16.0789 21.0638 15.9985 20.8761 15.9449C20.8225 15.9181 20.7689 15.8913 20.7153 15.8913C20.6349 15.8645 20.5545 15.8377 20.4741 15.8109C20.4205 15.8109 20.3937 15.7841 20.34 15.7573C20.2328 15.7305 20.0988 15.677 19.9648 15.6502C19.8844 15.6234 19.804 15.5966 19.7236 15.5966H19.6967C19.6699 15.5966 19.67 15.5966 19.6431 15.5966C19.6163 15.5966 19.5895 15.5966 19.5895 15.5966C19.4823 15.5698 19.3751 15.5698 19.2679 15.543C18.839 15.4894 18.5174 15.1143 18.5174 14.6856C18.5174 14.4445 18.6246 14.2034 18.8122 14.0426C18.973 13.9087 19.1875 13.8283 19.4019 13.8283C19.4555 13.8283 19.4823 13.8283 19.5359 13.8283C20.9565 14.0426 22.2968 14.5785 23.4761 15.4358C24.9772 16.5343 26.1297 18.1151 26.6926 19.8566C26.9875 20.7408 27.1215 21.6517 27.1215 22.5895C27.1215 23.5272 26.9875 24.4382 26.6926 25.3224C26.2906 26.662 25.5132 27.8945 24.4679 28.9126ZM30.204 14.9C29.9895 13.2924 29.1854 11.8992 28.0328 10.9079C26.9339 9.97011 25.5132 9.40747 23.9586 9.40747H13.237C11.6823 9.40747 10.2617 9.97011 9.16273 10.9079C7.79572 12.0599 6.93799 13.8015 6.93799 15.7038V29.1001C6.93799 31.0292 7.79572 32.744 9.16273 33.896C10.2617 34.8338 11.6823 35.3964 13.237 35.3964H23.9586C25.5132 35.3964 26.9339 34.8338 28.0328 33.896C29.3998 32.744 30.2576 31.0024 30.2576 29.1001V15.7038C30.2576 15.4626 30.2308 15.1679 30.204 14.9ZM29.9895 29.1269C29.9895 30.9756 29.1586 32.6368 27.8184 33.7353C26.773 34.6195 25.4328 35.1285 23.9586 35.1285H13.237C11.7627 35.1285 10.4225 34.5927 9.37716 33.7353C8.06375 32.6368 7.20603 30.9756 7.20603 29.1269V15.7306C7.20603 13.8819 8.06375 12.2207 9.37716 11.1222C10.4225 10.238 11.7627 9.72897 13.237 9.72897H23.9586C25.4328 9.72897 26.773 10.2648 27.8184 11.1222C29.1318 12.2207 29.9895 13.8819 29.9895 15.7306V29.1269ZM26.505 11.792C25.7813 11.3097 24.8967 11.0418 23.9586 11.0418H13.237C12.2988 11.0418 11.4143 11.3097 10.6906 11.792C9.40397 12.6226 8.54624 14.0962 8.54624 15.7306V29.1269C8.54624 30.7881 9.40397 32.2349 10.6906 33.0655C11.4143 33.5477 12.2988 33.8157 13.237 33.8157H23.9586C24.8967 33.8157 25.7813 33.5477 26.505 33.0655C27.7916 32.2349 28.6493 30.7881 28.6493 29.1269V15.7306C28.6493 14.0694 27.7916 12.6226 26.505 11.792ZM16.4802 26.1261C16.3998 25.8582 16.4266 25.5635 16.6143 25.3224C16.7751 25.108 17.0431 24.9741 17.3112 24.9741C17.3916 24.9741 17.4988 24.9741 17.5792 25.0276C17.7937 25.0812 18.0349 25.108 18.2761 25.108C18.8122 25.108 19.3483 24.9473 19.7772 24.6258C20.206 24.3042 20.5545 23.8488 20.7153 23.3397C20.7957 23.0718 20.8493 22.8306 20.8493 22.5359C20.8493 22.268 20.7957 22.0001 20.7153 21.7589C20.5545 21.2499 20.2328 20.7944 19.7772 20.4729C19.5895 20.3389 19.3751 20.2049 19.1607 20.1514C18.7854 20.0174 18.571 19.6959 18.571 19.3208C18.571 19.0261 18.705 18.7849 18.9462 18.6242C19.1607 18.4634 19.4287 18.4098 19.6699 18.4902C19.6967 18.4902 19.7235 18.517 19.7504 18.517C19.8576 18.5438 19.938 18.5974 20.0184 18.6242C20.0988 18.6778 20.206 18.7045 20.2864 18.7581C20.3668 18.8117 20.4473 18.8385 20.5277 18.8921C20.5545 18.8921 20.5545 18.9189 20.5813 18.9189C20.6617 18.9725 20.7421 19.0261 20.8225 19.0796C21.5462 19.6155 22.1091 20.3657 22.3772 21.2231C22.5112 21.6518 22.5916 22.0804 22.5916 22.5359C22.5916 22.9914 22.5112 23.4469 22.3772 23.8756C22.1091 24.7329 21.5462 25.4831 20.8225 26.019C20.0988 26.5548 19.2143 26.8496 18.3029 26.8496C18.1957 26.8496 18.0617 26.8496 17.9545 26.8228C17.9009 26.8228 17.8473 26.8228 17.7937 26.796C17.74 26.796 17.6596 26.7692 17.606 26.7692C17.5524 26.7692 17.4988 26.7424 17.472 26.7424C17.4184 26.7424 17.3648 26.7156 17.3112 26.7156C17.2576 26.7156 17.204 26.6888 17.1503 26.662H17.1236C17.0967 26.662 17.0967 26.662 17.0699 26.6352C17.0699 26.6352 17.0699 26.6352 17.0431 26.6352C16.7483 26.5816 16.5607 26.3941 16.4802 26.1261ZM16.8555 27.1711H16.8823C16.9091 27.1711 16.9359 27.1711 16.9627 27.1979C17.0163 27.2246 17.0967 27.2246 17.1503 27.2514C17.204 27.2782 17.2844 27.2782 17.338 27.305C17.3916 27.305 17.4452 27.3318 17.4988 27.3318C17.7669 27.3854 18.0349 27.3854 18.3029 27.3854C19.3483 27.3854 20.3132 27.0639 21.1442 26.4477C21.9483 25.8582 22.5916 25.0008 22.8864 24.0363C23.0473 23.554 23.1277 23.045 23.1277 22.5359C23.1277 22.0269 23.0473 21.5178 22.8864 21.0355C22.5648 20.071 21.9483 19.2136 21.1442 18.6242C21.0638 18.5706 21.0102 18.517 20.9297 18.4902C20.6617 18.3027 20.3669 18.1687 20.0452 18.0347C20.0184 18.0079 19.9648 18.0079 19.938 17.9812H19.9112C19.6968 17.9008 19.4823 17.8472 19.2411 17.7936C18.839 17.7132 18.571 17.3649 18.571 16.9362C18.571 16.6683 18.6782 16.4272 18.8926 16.2664C19.0802 16.1324 19.2947 16.0521 19.5091 16.0789C19.5627 16.0789 19.5895 16.1057 19.6431 16.1057C19.7236 16.1057 19.804 16.1324 19.8844 16.1592C19.938 16.1592 19.9916 16.186 20.0452 16.186C20.0988 16.2128 20.1792 16.2128 20.2328 16.2396C20.2864 16.2664 20.3668 16.2932 20.4205 16.2932C20.5277 16.32 20.6617 16.3736 20.7689 16.4272C21.0369 16.5343 21.2782 16.6415 21.5194 16.7755C21.573 16.8023 21.6266 16.8291 21.6803 16.8559C21.7607 16.9094 21.8679 16.963 21.9483 17.0166C22.0287 17.0702 22.1091 17.1238 22.1895 17.1774C23.3153 17.9812 24.1462 19.16 24.5751 20.4729C24.7895 21.1159 24.8967 21.8125 24.8967 22.5091C24.8967 23.2057 24.7895 23.9024 24.5751 24.5454C24.5483 24.599 24.5215 24.6793 24.5215 24.7329C24.4947 24.7865 24.4679 24.8669 24.4411 24.9205C24.4143 24.9741 24.3875 25.0544 24.3607 25.108C24.2803 25.3224 24.173 25.5367 24.0658 25.7243C24.039 25.7778 23.9854 25.8582 23.9586 25.9118C23.905 25.9922 23.8514 26.0994 23.771 26.1797C23.7174 26.2333 23.6906 26.3137 23.6369 26.3673C23.5833 26.4477 23.5029 26.5548 23.4225 26.6352C23.3689 26.7156 23.2885 26.796 23.2349 26.8496C23.2081 26.8763 23.1813 26.9299 23.1545 26.9567C23.0741 27.0371 22.9936 27.1175 22.9132 27.1979C22.6988 27.4122 22.4308 27.6265 22.1895 27.8141C21.0638 28.6447 19.7236 29.0733 18.3297 29.0733C16.9359 29.0733 15.5957 28.6447 14.4699 27.8141C13.7194 27.2514 13.0493 26.528 12.5937 25.7243C12.4596 25.5099 12.4596 25.242 12.5401 25.0008C12.6473 24.7597 12.8349 24.5722 13.1029 24.4918C13.1833 24.465 13.2906 24.4382 13.371 24.4382C13.6658 24.4382 13.9607 24.599 14.1215 24.8669C14.4699 25.4831 14.9256 26.019 15.4885 26.4209C15.8906 26.796 16.373 27.0371 16.8555 27.1711ZM24.4679 28.9126C24.2803 29.1001 24.039 29.1805 23.771 29.1537C23.5029 29.1269 23.2885 28.993 23.1277 28.8054C22.8596 28.4571 22.9132 27.9748 23.2349 27.6533C23.2617 27.6265 23.2617 27.6265 23.2885 27.5997C23.3421 27.5462 23.4225 27.4658 23.4761 27.3854C23.5833 27.2782 23.6638 27.1711 23.7442 27.0639C23.8246 26.9567 23.9318 26.8495 24.0122 26.7424C24.0658 26.662 24.1194 26.5816 24.173 26.5012C24.2266 26.4477 24.2534 26.3673 24.3071 26.2869C24.3339 26.2333 24.3875 26.1797 24.4143 26.0994C24.4411 26.0458 24.4679 26.019 24.4947 25.9654C24.5215 25.9118 24.5751 25.8314 24.6019 25.7778C24.6287 25.751 24.6287 25.6975 24.6555 25.6707C24.7091 25.5903 24.7359 25.4831 24.7895 25.4027C24.8967 25.1884 24.9772 24.9741 25.0308 24.7597C25.272 24.0631 25.3792 23.3129 25.3792 22.5627C25.3792 21.8125 25.272 21.0623 25.0308 20.3657C24.5751 18.9457 23.6638 17.6864 22.4576 16.8023C22.3772 16.7487 22.2968 16.6683 22.1895 16.6147C22.1627 16.5879 22.1359 16.5611 22.0823 16.5611C21.8947 16.454 21.7071 16.3468 21.5194 16.2396C21.4658 16.2128 21.4122 16.186 21.3586 16.1592C21.1978 16.0789 21.0638 15.9985 20.8761 15.9449C20.8225 15.9181 20.7689 15.8913 20.7153 15.8913C20.6349 15.8645 20.5545 15.8377 20.4741 15.8109C20.4205 15.8109 20.3937 15.7841 20.34 15.7573C20.2328 15.7305 20.0988 15.677 19.9648 15.6502C19.8844 15.6234 19.804 15.5966 19.7236 15.5966H19.6967C19.6699 15.5966 19.67 15.5966 19.6431 15.5966C19.6163 15.5966 19.5895 15.5966 19.5895 15.5966C19.4823 15.5698 19.3751 15.5698 19.2679 15.543C18.839 15.4894 18.5174 15.1143 18.5174 14.6856C18.5174 14.4445 18.6246 14.2034 18.8122 14.0426C18.973 13.9087 19.1875 13.8283 19.4019 13.8283C19.4555 13.8283 19.4823 13.8283 19.5359 13.8283C20.9565 14.0426 22.2968 14.5785 23.4761 15.4358C24.9772 16.5343 26.1297 18.1151 26.6926 19.8566C26.9875 20.7408 27.1215 21.6517 27.1215 22.5895C27.1215 23.5272 26.9875 24.4382 26.6926 25.3224C26.2906 26.662 25.5132 27.8945 24.4679 28.9126ZM26.505 11.792C25.7813 11.3097 24.8967 11.0418 23.9586 11.0418H13.237C12.2988 11.0418 11.4143 11.3097 10.6906 11.792C9.40397 12.6226 8.54624 14.0962 8.54624 15.7306V29.1269C8.54624 30.7881 9.40397 32.2349 10.6906 33.0655C11.4143 33.5477 12.2988 33.8157 13.237 33.8157H23.9586C24.8967 33.8157 25.7813 33.5477 26.505 33.0655C27.7916 32.2349 28.6493 30.7881 28.6493 29.1269V15.7306C28.6493 14.0694 27.7916 12.6226 26.505 11.792ZM16.4802 26.1261C16.3998 25.8582 16.4266 25.5635 16.6143 25.3224C16.7751 25.108 17.0431 24.9741 17.3112 24.9741C17.3916 24.9741 17.4988 24.9741 17.5792 25.0276C17.7937 25.0812 18.0349 25.108 18.2761 25.108C18.8122 25.108 19.3483 24.9473 19.7772 24.6258C20.206 24.3042 20.5545 23.8488 20.7153 23.3397C20.7957 23.0718 20.8493 22.8306 20.8493 22.5359C20.8493 22.268 20.7957 22.0001 20.7153 21.7589C20.5545 21.2499 20.2328 20.7944 19.7772 20.4729C19.5895 20.3389 19.3751 20.2049 19.1607 20.1514C18.7854 20.0174 18.571 19.6959 18.571 19.3208C18.571 19.0261 18.705 18.7849 18.9462 18.6242C19.1607 18.4634 19.4287 18.4098 19.6699 18.4902C19.6967 18.4902 19.7235 18.517 19.7504 18.517C19.8576 18.5438 19.938 18.5974 20.0184 18.6242C20.0988 18.6778 20.206 18.7045 20.2864 18.7581C20.3668 18.8117 20.4473 18.8385 20.5277 18.8921C20.5545 18.8921 20.5545 18.9189 20.5813 18.9189C20.6617 18.9725 20.7421 19.0261 20.8225 19.0796C21.5462 19.6155 22.1091 20.3657 22.3772 21.2231C22.5112 21.6518 22.5916 22.0804 22.5916 22.5359C22.5916 22.9914 22.5112 23.4469 22.3772 23.8756C22.1091 24.7329 21.5462 25.4831 20.8225 26.019C20.0988 26.5548 19.2143 26.8496 18.3029 26.8496C18.1957 26.8496 18.0617 26.8496 17.9545 26.8228C17.9009 26.8228 17.8473 26.8228 17.7937 26.796C17.74 26.796 17.6596 26.7692 17.606 26.7692C17.5524 26.7692 17.4988 26.7424 17.472 26.7424C17.4184 26.7424 17.3648 26.7156 17.3112 26.7156C17.2576 26.7156 17.204 26.6888 17.1503 26.662H17.1236C17.0967 26.662 17.0967 26.662 17.0699 26.6352C17.0699 26.6352 17.0699 26.6352 17.0431 26.6352C16.7483 26.5816 16.5607 26.3941 16.4802 26.1261ZM16.8555 27.1711H16.8823C16.9091 27.1711 16.9359 27.1711 16.9627 27.1979C17.0163 27.2246 17.0967 27.2246 17.1503 27.2514C17.204 27.2782 17.2844 27.2782 17.338 27.305C17.3916 27.305 17.4452 27.3318 17.4988 27.3318C17.7669 27.3854 18.0349 27.3854 18.3029 27.3854C19.3483 27.3854 20.3132 27.0639 21.1442 26.4477C21.9483 25.8582 22.5916 25.0008 22.8864 24.0363C23.0473 23.554 23.1277 23.045 23.1277 22.5359C23.1277 22.0269 23.0473 21.5178 22.8864 21.0355C22.5648 20.071 21.9483 19.2136 21.1442 18.6242C21.0638 18.5706 21.0102 18.517 20.9297 18.4902C20.6617 18.3027 20.3669 18.1687 20.0452 18.0347C20.0184 18.0079 19.9648 18.0079 19.938 17.9812H19.9112C19.6968 17.9008 19.4823 17.8472 19.2411 17.7936C18.839 17.7132 18.571 17.3649 18.571 16.9362C18.571 16.6683 18.6782 16.4272 18.8926 16.2664C19.0802 16.1324 19.2947 16.0521 19.5091 16.0789C19.5627 16.0789 19.5895 16.1057 19.6431 16.1057C19.7236 16.1057 19.804 16.1324 19.8844 16.1592C19.938 16.1592 19.9916 16.186 20.0452 16.186C20.0988 16.2128 20.1792 16.2128 20.2328 16.2396C20.2864 16.2664 20.3668 16.2932 20.4205 16.2932C20.5277 16.32 20.6617 16.3736 20.7689 16.4272C21.0369 16.5343 21.2782 16.6415 21.5194 16.7755C21.573 16.8023 21.6266 16.8291 21.6803 16.8559C21.7607 16.9094 21.8679 16.963 21.9483 17.0166C22.0287 17.0702 22.1091 17.1238 22.1895 17.1774C23.3153 17.9812 24.1462 19.16 24.5751 20.4729C24.7895 21.1159 24.8967 21.8125 24.8967 22.5091C24.8967 23.2057 24.7895 23.9024 24.5751 24.5454C24.5483 24.599 24.5215 24.6793 24.5215 24.7329C24.4947 24.7865 24.4679 24.8669 24.4411 24.9205C24.4143 24.9741 24.3875 25.0544 24.3607 25.108C24.2803 25.3224 24.173 25.5367 24.0658 25.7243C24.039 25.7778 23.9854 25.8582 23.9586 25.9118C23.905 25.9922 23.8514 26.0994 23.771 26.1797C23.7174 26.2333 23.6906 26.3137 23.6369 26.3673C23.5833 26.4477 23.5029 26.5548 23.4225 26.6352C23.3689 26.7156 23.2885 26.796 23.2349 26.8496C23.2081 26.8763 23.1813 26.9299 23.1545 26.9567C23.0741 27.0371 22.9936 27.1175 22.9132 27.1979C22.6988 27.4122 22.4308 27.6265 22.1895 27.8141C21.0638 28.6447 19.7236 29.0733 18.3297 29.0733C16.9359 29.0733 15.5957 28.6447 14.4699 27.8141C13.7194 27.2514 13.0493 26.528 12.5937 25.7243C12.4596 25.5099 12.4596 25.242 12.5401 25.0008C12.6473 24.7597 12.8349 24.5722 13.1029 24.4918C13.1833 24.465 13.2906 24.4382 13.371 24.4382C13.6658 24.4382 13.9607 24.599 14.1215 24.8669C14.4699 25.4831 14.9256 26.019 15.4885 26.4209C15.8906 26.796 16.373 27.0371 16.8555 27.1711ZM24.4679 28.9126C24.2803 29.1001 24.039 29.1805 23.771 29.1537C23.5029 29.1269 23.2885 28.993 23.1277 28.8054C22.8596 28.4571 22.9132 27.9748 23.2349 27.6533C23.2617 27.6265 23.2617 27.6265 23.2885 27.5997C23.3421 27.5462 23.4225 27.4658 23.4761 27.3854C23.5833 27.2782 23.6638 27.1711 23.7442 27.0639C23.8246 26.9567 23.9318 26.8495 24.0122 26.7424C24.0658 26.662 24.1194 26.5816 24.173 26.5012C24.2266 26.4477 24.2534 26.3673 24.3071 26.2869C24.3339 26.2333 24.3875 26.1797 24.4143 26.0994C24.4411 26.0458 24.4679 26.019 24.4947 25.9654C24.5215 25.9118 24.5751 25.8314 24.6019 25.7778C24.6287 25.751 24.6287 25.6975 24.6555 25.6707C24.7091 25.5903 24.7359 25.4831 24.7895 25.4027C24.8967 25.1884 24.9772 24.9741 25.0308 24.7597C25.272 24.0631 25.3792 23.3129 25.3792 22.5627C25.3792 21.8125 25.272 21.0623 25.0308 20.3657C24.5751 18.9457 23.6638 17.6864 22.4576 16.8023C22.3772 16.7487 22.2968 16.6683 22.1895 16.6147C22.1627 16.5879 22.1359 16.5611 22.0823 16.5611C21.8947 16.454 21.7071 16.3468 21.5194 16.2396C21.4658 16.2128 21.4122 16.186 21.3586 16.1592C21.1978 16.0789 21.0638 15.9985 20.8761 15.9449C20.8225 15.9181 20.7689 15.8913 20.7153 15.8913C20.6349 15.8645 20.5545 15.8377 20.4741 15.8109C20.4205 15.8109 20.3937 15.7841 20.34 15.7573C20.2328 15.7305 20.0988 15.677 19.9648 15.6502C19.8844 15.6234 19.804 15.5966 19.7236 15.5966H19.6967C19.6699 15.5966 19.67 15.5966 19.6431 15.5966C19.6163 15.5966 19.5895 15.5966 19.5895 15.5966C19.4823 15.5698 19.3751 15.5698 19.2679 15.543C18.839 15.4894 18.5174 15.1143 18.5174 14.6856C18.5174 14.4445 18.6246 14.2034 18.8122 14.0426C18.973 13.9087 19.1875 13.8283 19.4019 13.8283C19.4555 13.8283 19.4823 13.8283 19.5359 13.8283C20.9565 14.0426 22.2968 14.5785 23.4761 15.4358C24.9772 16.5343 26.1297 18.1151 26.6926 19.8566C26.9875 20.7408 27.1215 21.6517 27.1215 22.5895C27.1215 23.5272 26.9875 24.4382 26.6926 25.3224C26.2906 26.662 25.5132 27.8945 24.4679 28.9126ZM26.505 11.792C25.7813 11.3097 24.8967 11.0418 23.9586 11.0418H13.237C12.2988 11.0418 11.4143 11.3097 10.6906 11.792C9.40397 12.6226 8.54624 14.0962 8.54624 15.7306V29.1269C8.54624 30.7881 9.40397 32.2349 10.6906 33.0655C11.4143 33.5477 12.2988 33.8157 13.237 33.8157H23.9586C24.8967 33.8157 25.7813 33.5477 26.505 33.0655C27.7916 32.2349 28.6493 30.7881 28.6493 29.1269V15.7306C28.6493 14.0694 27.7916 12.6226 26.505 11.792ZM16.4802 26.1261C16.3998 25.8582 16.4266 25.5635 16.6143 25.3224C16.7751 25.108 17.0431 24.9741 17.3112 24.9741C17.3916 24.9741 17.4988 24.9741 17.5792 25.0276C17.7937 25.0812 18.0349 25.108 18.2761 25.108C18.8122 25.108 19.3483 24.9473 19.7772 24.6258C20.206 24.3042 20.5545 23.8488 20.7153 23.3397C20.7957 23.0718 20.8493 22.8306 20.8493 22.5359C20.8493 22.268 20.7957 22.0001 20.7153 21.7589C20.5545 21.2499 20.2328 20.7944 19.7772 20.4729C19.5895 20.3389 19.3751 20.2049 19.1607 20.1514C18.7854 20.0174 18.571 19.6959 18.571 19.3208C18.571 19.0261 18.705 18.7849 18.9462 18.6242C19.1607 18.4634 19.4287 18.4098 19.6699 18.4902C19.6967 18.4902 19.7235 18.517 19.7504 18.517C19.8576 18.5438 19.938 18.5974 20.0184 18.6242C20.0988 18.6778 20.206 18.7045 20.2864 18.7581C20.3668 18.8117 20.4473 18.8385 20.5277 18.8921C20.5545 18.8921 20.5545 18.9189 20.5813 18.9189C20.6617 18.9725 20.7421 19.0261 20.8225 19.0796C21.5462 19.6155 22.1091 20.3657 22.3772 21.2231C22.5112 21.6518 22.5916 22.0804 22.5916 22.5359C22.5916 22.9914 22.5112 23.4469 22.3772 23.8756C22.1091 24.7329 21.5462 25.4831 20.8225 26.019C20.0988 26.5548 19.2143 26.8496 18.3029 26.8496C18.1957 26.8496 18.0617 26.8496 17.9545 26.8228C17.9009 26.8228 17.8473 26.8228 17.7937 26.796C17.74 26.796 17.6596 26.7692 17.606 26.7692C17.5524 26.7692 17.4988 26.7424 17.472 26.7424C17.4184 26.7424 17.3648 26.7156 17.3112 26.7156C17.2576 26.7156 17.204 26.6888 17.1503 26.662H17.1236C17.0967 26.662 17.0967 26.662 17.0699 26.6352C17.0699 26.6352 17.0699 26.6352 17.0431 26.6352C16.7483 26.5816 16.5607 26.3941 16.4802 26.1261ZM16.8555 27.1711H16.8823C16.9091 27.1711 16.9359 27.1711 16.9627 27.1979C17.0163 27.2246 17.0967 27.2246 17.1503 27.2514C17.204 27.2782 17.2844 27.2782 17.338 27.305C17.3916 27.305 17.4452 27.3318 17.4988 27.3318C17.7669 27.3854 18.0349 27.3854 18.3029 27.3854C19.3483 27.3854 20.3132 27.0639 21.1442 26.4477C21.9483 25.8582 22.5916 25.0008 22.8864 24.0363C23.0473 23.554 23.1277 23.045 23.1277 22.5359C23.1277 22.0269 23.0473 21.5178 22.8864 21.0355C22.5648 20.071 21.9483 19.2136 21.1442 18.6242C21.0638 18.5706 21.0102 18.517 20.9297 18.4902C20.6617 18.3027 20.3669 18.1687 20.0452 18.0347C20.0184 18.0079 19.9648 18.0079 19.938 17.9812H19.9112C19.6968 17.9008 19.4823 17.8472 19.2411 17.7936C18.839 17.7132 18.571 17.3649 18.571 16.9362C18.571 16.6683 18.6782 16.4272 18.8926 16.2664C19.0802 16.1324 19.2947 16.0521 19.5091 16.0789C19.5627 16.0789 19.5895 16.1057 19.6431 16.1057C19.7236 16.1057 19.804 16.1324 19.8844 16.1592C19.938 16.1592 19.9916 16.186 20.0452 16.186C20.0988 16.2128 20.1792 16.2128 20.2328 16.2396C20.2864 16.2664 20.3668 16.2932 20.4205 16.2932C20.5277 16.32 20.6617 16.3736 20.7689 16.4272C21.0369 16.5343 21.2782 16.6415 21.5194 16.7755C21.573 16.8023 21.6266 16.8291 21.6803 16.8559C21.7607 16.9094 21.8679 16.963 21.9483 17.0166C22.0287 17.0702 22.1091 17.1238 22.1895 17.1774C23.3153 17.9812 24.1462 19.16 24.5751 20.4729C24.7895 21.1159 24.8967 21.8125 24.8967 22.5091C24.8967 23.2057 24.7895 23.9024 24.5751 24.5454C24.5483 24.599 24.5215 24.6793 24.5215 24.7329C24.4947 24.7865 24.4679 24.8669 24.4411 24.9205C24.4143 24.9741 24.3875 25.0544 24.3607 25.108C24.2803 25.3224 24.173 25.5367 24.0658 25.7243C24.039 25.7778 23.9854 25.8582 23.9586 25.9118C23.905 25.9922 23.8514 26.0994 23.771 26.1797C23.7174 26.2333 23.6906 26.3137 23.6369 26.3673C23.5833 26.4477 23.5029 26.5548 23.4225 26.6352C23.3689 26.7156 23.2885 26.796 23.2349 26.8496C23.2081 26.8763 23.1813 26.9299 23.1545 26.9567C23.0741 27.0371 22.9936 27.1175 22.9132 27.1979C22.6988 27.4122 22.4308 27.6265 22.1895 27.8141C21.0638 28.6447 19.7236 29.0733 18.3297 29.0733C16.9359 29.0733 15.5957 28.6447 14.4699 27.8141C13.7194 27.2514 13.0493 26.528 12.5937 25.7243C12.4596 25.5099 12.4596 25.242 12.5401 25.0008C12.6473 24.7597 12.8349 24.5722 13.1029 24.4918C13.1833 24.465 13.2906 24.4382 13.371 24.4382C13.6658 24.4382 13.9607 24.599 14.1215 24.8669C14.4699 25.4831 14.9256 26.019 15.4885 26.4209C15.8906 26.796 16.373 27.0371 16.8555 27.1711ZM24.4679 28.9126C24.2803 29.1001 24.039 29.1805 23.771 29.1537C23.5029 29.1269 23.2885 28.993 23.1277 28.8054C22.8596 28.4571 22.9132 27.9748 23.2349 27.6533C23.2617 27.6265 23.2617 27.6265 23.2885 27.5997C23.3421 27.5462 23.4225 27.4658 23.4761 27.3854C23.5833 27.2782 23.6638 27.1711 23.7442 27.0639C23.8246 26.9567 23.9318 26.8495 24.0122 26.7424C24.0658 26.662 24.1194 26.5816 24.173 26.5012C24.2266 26.4477 24.2534 26.3673 24.3071 26.2869C24.3339 26.2333 24.3875 26.1797 24.4143 26.0994C24.4411 26.0458 24.4679 26.019 24.4947 25.9654C24.5215 25.9118 24.5751 25.8314 24.6019 25.7778C24.6287 25.751 24.6287 25.6975 24.6555 25.6707C24.7091 25.5903 24.7359 25.4831 24.7895 25.4027C24.8967 25.1884 24.9772 24.9741 25.0308 24.7597C25.272 24.0631 25.3792 23.3129 25.3792 22.5627C25.3792 21.8125 25.272 21.0623 25.0308 20.3657C24.5751 18.9457 23.6638 17.6864 22.4576 16.8023C22.3772 16.7487 22.2968 16.6683 22.1895 16.6147C22.1627 16.5879 22.1359 16.5611 22.0823 16.5611C21.8947 16.454 21.7071 16.3468 21.5194 16.2396C21.4658 16.2128 21.4122 16.186 21.3586 16.1592C21.1978 16.0789 21.0638 15.9985 20.8761 15.9449C20.8225 15.9181 20.7689 15.8913 20.7153 15.8913C20.6349 15.8645 20.5545 15.8377 20.4741 15.8109C20.4205 15.8109 20.3937 15.7841 20.34 15.7573C20.2328 15.7305 20.0988 15.677 19.9648 15.6502C19.8844 15.6234 19.804 15.5966 19.7236 15.5966H19.6967C19.6699 15.5966 19.67 15.5966 19.6431 15.5966C19.6163 15.5966 19.5895 15.5966 19.5895 15.5966C19.4823 15.5698 19.3751 15.5698 19.2679 15.543C18.839 15.4894 18.5174 15.1143 18.5174 14.6856C18.5174 14.4445 18.6246 14.2034 18.8122 14.0426C18.973 13.9087 19.1875 13.8283 19.4019 13.8283C19.4555 13.8283 19.4823 13.8283 19.5359 13.8283C20.9565 14.0426 22.2968 14.5785 23.4761 15.4358C24.9772 16.5343 26.1297 18.1151 26.6926 19.8566C26.9875 20.7408 27.1215 21.6517 27.1215 22.5895C27.1215 23.5272 26.9875 24.4382 26.6926 25.3224C26.2906 26.662 25.5132 27.8945 24.4679 28.9126ZM26.505 11.792C25.7813 11.3097 24.8967 11.0418 23.9586 11.0418H13.237C12.2988 11.0418 11.4143 11.3097 10.6906 11.792C9.40397 12.6226 8.54624 14.0962 8.54624 15.7306V29.1269C8.54624 30.7881 9.40397 32.2349 10.6906 33.0655C11.4143 33.5477 12.2988 33.8157 13.237 33.8157H23.9586C24.8967 33.8157 25.7813 33.5477 26.505 33.0655C27.7916 32.2349 28.6493 30.7881 28.6493 29.1269V15.7306C28.6493 14.0694 27.7916 12.6226 26.505 11.792ZM16.4802 26.1261C16.3998 25.8582 16.4266 25.5635 16.6143 25.3224C16.7751 25.108 17.0431 24.9741 17.3112 24.9741C17.3916 24.9741 17.4988 24.9741 17.5792 25.0276C17.7937 25.0812 18.0349 25.108 18.2761 25.108C18.8122 25.108 19.3483 24.9473 19.7772 24.6258C20.206 24.3042 20.5545 23.8488 20.7153 23.3397C20.7957 23.0718 20.8493 22.8306 20.8493 22.5359C20.8493 22.268 20.7957 22.0001 20.7153 21.7589C20.5545 21.2499 20.2328 20.7944 19.7772 20.4729C19.5895 20.3389 19.3751 20.2049 19.1607 20.1514C18.7854 20.0174 18.571 19.6959 18.571 19.3208C18.571 19.0261 18.705 18.7849 18.9462 18.6242C19.1607 18.4634 19.4287 18.4098 19.6699 18.4902C19.6967 18.4902 19.7235 18.517 19.7504 18.517C19.8576 18.5438 19.938 18.5974 20.0184 18.6242C20.0988 18.6778 20.206 18.7045 20.2864 18.7581C20.3668 18.8117 20.4473 18.8385 20.5277 18.8921C20.5545 18.8921 20.5545 18.9189 20.5813 18.9189C20.6617 18.9725 20.7421 19.0261 20.8225 19.0796C21.5462 19.6155 22.1091 20.3657 22.3772 21.2231C22.5112 21.6518 22.5916 22.0804 22.5916 22.5359C22.5916 22.9914 22.5112 23.4469 22.3772 23.8756C22.1091 24.7329 21.5462 25.4831 20.8225 26.019C20.0988 26.5548 19.2143 26.8496 18.3029 26.8496C18.1957 26.8496 18.0617 26.8496 17.9545 26.8228C17.9009 26.8228 17.8473 26.8228 17.7937 26.796C17.74 26.796 17.6596 26.7692 17.606 26.7692C17.5524 26.7692 17.4988 26.7424 17.472 26.7424C17.4184 26.7424 17.3648 26.7156 17.3112 26.7156C17.2576 26.7156 17.204 26.6888 17.1503 26.662H17.1236C17.0967 26.662 17.0967 26.662 17.0699 26.6352C17.0699 26.6352 17.0699 26.6352 17.0431 26.6352C16.7483 26.5816 16.5607 26.3941 16.4802 26.1261ZM16.8555 27.1711H16.8823C16.9091 27.1711 16.9359 27.1711 16.9627 27.1979C17.0163 27.2246 17.0967 27.2246 17.1503 27.2514C17.204 27.2782 17.2844 27.2782 17.338 27.305C17.3916 27.305 17.4452 27.3318 17.4988 27.3318C17.7669 27.3854 18.0349 27.3854 18.3029 27.3854C19.3483 27.3854 20.3132 27.0639 21.1442 26.4477C21.9483 25.8582 22.5916 25.0008 22.8864 24.0363C23.0473 23.554 23.1277 23.045 23.1277 22.5359C23.1277 22.0269 23.0473 21.5178 22.8864 21.0355C22.5648 20.071 21.9483 19.2136 21.1442 18.6242C21.0638 18.5706 21.0102 18.517 20.9297 18.4902C20.6617 18.3027 20.3669 18.1687 20.0452 18.0347C20.0184 18.0079 19.9648 18.0079 19.938 17.9812H19.9112C19.6968 17.9008 19.4823 17.8472 19.2411 17.7936C18.839 17.7132 18.571 17.3649 18.571 16.9362C18.571 16.6683 18.6782 16.4272 18.8926 16.2664C19.0802 16.1324 19.2947 16.0521 19.5091 16.0789C19.5627 16.0789 19.5895 16.1057 19.6431 16.1057C19.7236 16.1057 19.804 16.1324 19.8844 16.1592C19.938 16.1592 19.9916 16.186 20.0452 16.186C20.0988 16.2128 20.1792 16.2128 20.2328 16.2396C20.2864 16.2664 20.3668 16.2932 20.4205 16.2932C20.5277 16.32 20.6617 16.3736 20.7689 16.4272C21.0369 16.5343 21.2782 16.6415 21.5194 16.7755C21.573 16.8023 21.6266 16.8291 21.6803 16.8559C21.7607 16.9094 21.8679 16.963 21.9483 17.0166C22.0287 17.0702 22.1091 17.1238 22.1895 17.1774C23.3153 17.9812 24.1462 19.16 24.5751 20.4729C24.7895 21.1159 24.8967 21.8125 24.8967 22.5091C24.8967 23.2057 24.7895 23.9024 24.5751 24.5454C24.5483 24.599 24.5215 24.6793 24.5215 24.7329C24.4947 24.7865 24.4679 24.8669 24.4411 24.9205C24.4143 24.9741 24.3875 25.0544 24.3607 25.108C24.2803 25.3224 24.173 25.5367 24.0658 25.7243C24.039 25.7778 23.9854 25.8582 23.9586 25.9118C23.905 25.9922 23.8514 26.0994 23.771 26.1797C23.7174 26.2333 23.6906 26.3137 23.6369 26.3673C23.5833 26.4477 23.5029 26.5548 23.4225 26.6352C23.3689 26.7156 23.2885 26.796 23.2349 26.8496C23.2081 26.8763 23.1813 26.9299 23.1545 26.9567C23.0741 27.0371 22.9936 27.1175 22.9132 27.1979C22.6988 27.4122 22.4308 27.6265 22.1895 27.8141C21.0638 28.6447 19.7236 29.0733 18.3297 29.0733C16.9359 29.0733 15.5957 28.6447 14.4699 27.8141C13.7194 27.2514 13.0493 26.528 12.5937 25.7243C12.4596 25.5099 12.4596 25.242 12.5401 25.0008C12.6473 24.7597 12.8349 24.5722 13.1029 24.4918C13.1833 24.465 13.2906 24.4382 13.371 24.4382C13.6658 24.4382 13.9607 24.599 14.1215 24.8669C14.4699 25.4831 14.9256 26.019 15.4885 26.4209C15.8906 26.796 16.373 27.0371 16.8555 27.1711ZM24.4679 28.9126C24.2803 29.1001 24.039 29.1805 23.771 29.1537C23.5029 29.1269 23.2885 28.993 23.1277 28.8054C22.8596 28.4571 22.9132 27.9748 23.2349 27.6533C23.2617 27.6265 23.2617 27.6265 23.2885 27.5997C23.3421 27.5462 23.4225 27.4658 23.4761 27.3854C23.5833 27.2782 23.6638 27.1711 23.7442 27.0639C23.8246 26.9567 23.9318 26.8495 24.0122 26.7424C24.0658 26.662 24.1194 26.5816 24.173 26.5012C24.2266 26.4477 24.2534 26.3673 24.3071 26.2869C24.3339 26.2333 24.3875 26.1797 24.4143 26.0994C24.4411 26.0458 24.4679 26.019 24.4947 25.9654C24.5215 25.9118 24.5751 25.8314 24.6019 25.7778C24.6287 25.751 24.6287 25.6975 24.6555 25.6707C24.7091 25.5903 24.7359 25.4831 24.7895 25.4027C24.8967 25.1884 24.9772 24.9741 25.0308 24.7597C25.272 24.0631 25.3792 23.3129 25.3792 22.5627C25.3792 21.8125 25.272 21.0623 25.0308 20.3657C24.5751 18.9457 23.6638 17.6864 22.4576 16.8023C22.3772 16.7487 22.2968 16.6683 22.1895 16.6147C22.1627 16.5879 22.1359 16.5611 22.0823 16.5611C21.8947 16.454 21.7071 16.3468 21.5194 16.2396C21.4658 16.2128 21.4122 16.186 21.3586 16.1592C21.1978 16.0789 21.0638 15.9985 20.8761 15.9449C20.8225 15.9181 20.7689 15.8913 20.7153 15.8913C20.6349 15.8645 20.5545 15.8377 20.4741 15.8109C20.4205 15.8109 20.3937 15.7841 20.34 15.7573C20.2328 15.7305 20.0988 15.677 19.9648 15.6502C19.8844 15.6234 19.804 15.5966 19.7236 15.5966H19.6967C19.6699 15.5966 19.67 15.5966 19.6431 15.5966C19.6163 15.5966 19.5895 15.5966 19.5895 15.5966C19.4823 15.5698 19.3751 15.5698 19.2679 15.543C18.839 15.4894 18.5174 15.1143 18.5174 14.6856C18.5174 14.4445 18.6246 14.2034 18.8122 14.0426C18.973 13.9087 19.1875 13.8283 19.4019 13.8283C19.4555 13.8283 19.4823 13.8283 19.5359 13.8283C20.9565 14.0426 22.2968 14.5785 23.4761 15.4358C24.9772 16.5343 26.1297 18.1151 26.6926 19.8566C26.9875 20.7408 27.1215 21.6517 27.1215 22.5895C27.1215 23.5272 26.9875 24.4382 26.6926 25.3224C26.2906 26.662 25.5132 27.8945 24.4679 28.9126ZM26.505 11.792C25.7813 11.3097 24.8967 11.0418 23.9586 11.0418H13.237C12.2988 11.0418 11.4143 11.3097 10.6906 11.792C9.40397 12.6226 8.54624 14.0962 8.54624 15.7306V29.1269C8.54624 30.7881 9.40397 32.2349 10.6906 33.0655C11.4143 33.5477 12.2988 33.8157 13.237 33.8157H23.9586C24.8967 33.8157 25.7813 33.5477 26.505 33.0655C27.7916 32.2349 28.6493 30.7881 28.6493 29.1269V15.7306C28.6493 14.0694 27.7916 12.6226 26.505 11.792ZM16.4802 26.1261C16.3998 25.8582 16.4266 25.5635 16.6143 25.3224C16.7751 25.108 17.0431 24.9741 17.3112 24.9741C17.3916 24.9741 17.4988 24.9741 17.5792 25.0276C17.7937 25.0812 18.0349 25.108 18.2761 25.108C18.8122 25.108 19.3483 24.9473 19.7772 24.6258C20.206 24.3042 20.5545 23.8488 20.7153 23.3397C20.7957 23.0718 20.8493 22.8306 20.8493 22.5359C20.8493 22.268 20.7957 22.0001 20.7153 21.7589C20.5545 21.2499 20.2328 20.7944 19.7772 20.4729C19.5895 20.3389 19.3751 20.2049 19.1607 20.1514C18.7854 20.0174 18.571 19.6959 18.571 19.3208C18.571 19.0261 18.705 18.7849 18.9462 18.6242C19.1607 18.4634 19.4287 18.4098 19.6699 18.4902C19.6967 18.4902 19.7235 18.517 19.7504 18.517C19.8576 18.5438 19.938 18.5974 20.0184 18.6242C20.0988 18.6778 20.206 18.7045 20.2864 18.7581C20.3668 18.8117 20.4473 18.8385 20.5277 18.8921C20.5545 18.8921 20.5545 18.9189 20.5813 18.9189C20.6617 18.9725 20.7421 19.0261 20.8225 19.0796C21.5462 19.6155 22.1091 20.3657 22.3772 21.2231C22.5112 21.6518 22.5916 22.0804 22.5916 22.5359C22.5916 22.9914 22.5112 23.4469 22.3772 23.8756C22.1091 24.7329 21.5462 25.4831 20.8225 26.019C20.0988 26.5548 19.2143 26.8496 18.3029 26.8496C18.1957 26.8496 18.0617 26.8496 17.9545 26.8228C17.9009 26.8228 17.8473 26.8228 17.7937 26.796C17.74 26.796 17.6596 26.7692 17.606 26.7692C17.5524 26.7692 17.4988 26.7424 17.472 26.7424C17.4184 26.7424 17.3648 26.7156 17.3112 26.7156C17.2576 26.7156 17.204 26.6888 17.1503 26.662H17.1236C17.0967 26.662 17.0967 26.662 17.0699 26.6352C17.0699 26.6352 17.0699 26.6352 17.0431 26.6352C16.7483 26.5816 16.5607 26.3941 16.4802 26.1261ZM16.8555 27.1711H16.8823C16.9091 27.1711 16.9359 27.1711 16.9627 27.1979C17.0163 27.2246 17.0967 27.2246 17.1503 27.2514C17.204 27.2782 17.2844 27.2782 17.338 27.305C17.3916 27.305 17.4452 27.3318 17.4988 27.3318C17.7669 27.3854 18.0349 27.3854 18.3029 27.3854C19.3483 27.3854 20.3132 27.0639 21.1442 26.4477C21.9483 25.8582 22.5916 25.0008 22.8864 24.0363C23.0473 23.554 23.1277 23.045 23.1277 22.5359C23.1277 22.0269 23.0473 21.5178 22.8864 21.0355C22.5648 20.071 21.9483 19.2136 21.1442 18.6242C21.0638 18.5706 21.0102 18.517 20.9297 18.4902C20.6617 18.3027 20.3669 18.1687 20.0452 18.0347C20.0184 18.0079 19.9648 18.0079 19.938 17.9812H19.9112C19.6968 17.9008 19.4823 17.8472 19.2411 17.7936C18.839 17.7132 18.571 17.3649 18.571 16.9362C18.571 16.6683 18.6782 16.4272 18.8926 16.2664C19.0802 16.1324 19.2947 16.0521 19.5091 16.0789C19.5627 16.0789 19.5895 16.1057 19.6431 16.1057C19.7236 16.1057 19.804 16.1324 19.8844 16.1592C19.938 16.1592 19.9916 16.186 20.0452 16.186C20.0988 16.2128 20.1792 16.2128 20.2328 16.2396C20.2864 16.2664 20.3668 16.2932 20.4205 16.2932C20.5277 16.32 20.6617 16.3736 20.7689 16.4272C21.0369 16.5343 21.2782 16.6415 21.5194 16.7755C21.573 16.8023 21.6266 16.8291 21.6803 16.8559C21.7607 16.9094 21.8679 16.963 21.9483 17.0166C22.0287 17.0702 22.1091 17.1238 22.1895 17.1774C23.3153 17.9812 24.1462 19.16 24.5751 20.4729C24.7895 21.1159 24.8967 21.8125 24.8967 22.5091C24.8967 23.2057 24.7895 23.9024 24.5751 24.5454C24.5483 24.599 24.5215 24.6793 24.5215 24.7329C24.4947 24.7865 24.4679 24.8669 24.4411 24.9205C24.4143 24.9741 24.3875 25.0544 24.3607 25.108C24.2803 25.3224 24.173 25.5367 24.0658 25.7243C24.039 25.7778 23.9854 25.8582 23.9586 25.9118C23.905 25.9922 23.8514 26.0994 23.771 26.1797C23.7174 26.2333 23.6906 26.3137 23.6369 26.3673C23.5833 26.4477 23.5029 26.5548 23.4225 26.6352C23.3689 26.7156 23.2885 26.796 23.2349 26.8496C23.2081 26.8763 23.1813 26.9299 23.1545 26.9567C23.0741 27.0371 22.9936 27.1175 22.9132 27.1979C22.6988 27.4122 22.4308 27.6265 22.1895 27.8141C21.0638 28.6447 19.7236 29.0733 18.3297 29.0733C16.9359 29.0733 15.5957 28.6447 14.4699 27.8141C13.7194 27.2514 13.0493 26.528 12.5937 25.7243C12.4596 25.5099 12.4596 25.242 12.5401 25.0008C12.6473 24.7597 12.8349 24.5722 13.1029 24.4918C13.1833 24.465 13.2906 24.4382 13.371 24.4382C13.6658 24.4382 13.9607 24.599 14.1215 24.8669C14.4699 25.4831 14.9256 26.019 15.4885 26.4209C15.8906 26.796 16.373 27.0371 16.8555 27.1711ZM24.4679 28.9126C24.2803 29.1001 24.039 29.1805 23.771 29.1537C23.5029 29.1269 23.2885 28.993 23.1277 28.8054C22.8596 28.4571 22.9132 27.9748 23.2349 27.6533C23.2617 27.6265 23.2617 27.6265 23.2885 27.5997C23.3421 27.5462 23.4225 27.4658 23.4761 27.3854C23.5833 27.2782 23.6638 27.1711 23.7442 27.0639C23.8246 26.9567 23.9318 26.8495 24.0122 26.7424C24.0658 26.662 24.1194 26.5816 24.173 26.5012C24.2266 26.4477 24.2534 26.3673 24.3071 26.2869C24.3339 26.2333 24.3875 26.1797 24.4143 26.0994C24.4411 26.0458 24.4679 26.019 24.4947 25.9654C24.5215 25.9118 24.5751 25.8314 24.6019 25.7778C24.6287 25.751 24.6287 25.6975 24.6555 25.6707C24.7091 25.5903 24.7359 25.4831 24.7895 25.4027C24.8967 25.1884 24.9772 24.9741 25.0308 24.7597C25.272 24.0631 25.3792 23.3129 25.3792 22.5627C25.3792 21.8125 25.272 21.0623 25.0308 20.3657C24.5751 18.9457 23.6638 17.6864 22.4576 16.8023C22.3772 16.7487 22.2968 16.6683 22.1895 16.6147C22.1627 16.5879 22.1359 16.5611 22.0823 16.5611C21.8947 16.454 21.7071 16.3468 21.5194 16.2396C21.4658 16.2128 21.4122 16.186 21.3586 16.1592C21.1978 16.0789 21.0638 15.9985 20.8761 15.9449C20.8225 15.9181 20.7689 15.8913 20.7153 15.8913C20.6349 15.8645 20.5545 15.8377 20.4741 15.8109C20.4205 15.8109 20.3937 15.7841 20.34 15.7573C20.2328 15.7305 20.0988 15.677 19.9648 15.6502C19.8844 15.6234 19.804 15.5966 19.7236 15.5966H19.6967C19.6699 15.5966 19.67 15.5966 19.6431 15.5966C19.6163 15.5966 19.5895 15.5966 19.5895 15.5966C19.4823 15.5698 19.3751 15.5698 19.2679 15.543C18.839 15.4894 18.5174 15.1143 18.5174 14.6856C18.5174 14.4445 18.6246 14.2034 18.8122 14.0426C18.973 13.9087 19.1875 13.8283 19.4019 13.8283C19.4555 13.8283 19.4823 13.8283 19.5359 13.8283C20.9565 14.0426 22.2968 14.5785 23.4761 15.4358C24.9772 16.5343 26.1297 18.1151 26.6926 19.8566C26.9875 20.7408 27.1215 21.6517 27.1215 22.5895C27.1215 23.5272 26.9875 24.4382 26.6926 25.3224C26.2906 26.662 25.5132 27.8945 24.4679 28.9126ZM26.505 11.792C25.7813 11.3097 24.8967 11.0418 23.9586 11.0418H13.237C12.2988 11.0418 11.4143 11.3097 10.6906 11.792C9.40397 12.6226 8.54624 14.0962 8.54624 15.7306V29.1269C8.54624 30.7881 9.40397 32.2349 10.6906 33.0655C11.4143 33.5477 12.2988 33.8157 13.237 33.8157H23.9586C24.8967 33.8157 25.7813 33.5477 26.505 33.0655C27.7916 32.2349 28.6493 30.7881 28.6493 29.1269V15.7306C28.6493 14.0694 27.7916 12.6226 26.505 11.792ZM16.4802 26.1261C16.3998 25.8582 16.4266 25.5635 16.6143 25.3224C16.7751 25.108 17.0431 24.9741 17.3112 24.9741C17.3916 24.9741 17.4988 24.9741 17.5792 25.0276C17.7937 25.0812 18.0349 25.108 18.2761 25.108C18.8122 25.108 19.3483 24.9473 19.7772 24.6258C20.206 24.3042 20.5545 23.8488 20.7153 23.3397C20.7957 23.0718 20.8493 22.8306 20.8493 22.5359C20.8493 22.268 20.7957 22.0001 20.7153 21.7589C20.5545 21.2499 20.2328 20.7944 19.7772 20.4729C19.5895 20.3389 19.3751 20.2049 19.1607 20.1514C18.7854 20.0174 18.571 19.6959 18.571 19.3208C18.571 19.0261 18.705 18.7849 18.9462 18.6242C19.1607 18.4634 19.4287 18.4098 19.6699 18.4902C19.6967 18.4902 19.7235 18.517 19.7504 18.517C19.8576 18.5438 19.938 18.5974 20.0184 18.6242C20.0988 18.6778 20.206 18.7045 20.2864 18.7581C20.3668 18.8117 20.4473 18.8385 20.5277 18.8921C20.5545 18.8921 20.5545 18.9189 20.5813 18.9189C20.6617 18.9725 20.7421 19.0261 20.8225 19.0796C21.5462 19.6155 22.1091 20.3657 22.3772 21.2231C22.5112 21.6518 22.5916 22.0804 22.5916 22.5359C22.5916 22.9914 22.5112 23.4469 22.3772 23.8756C22.1091 24.7329 21.5462 25.4831 20.8225 26.019C20.0988 26.5548 19.2143 26.8496 18.3029 26.8496C18.1957 26.8496 18.0617 26.8496 17.9545 26.8228C17.9009 26.8228 17.8473 26.8228 17.7937 26.796C17.74 26.796 17.6596 26.7692 17.606 26.7692C17.5524 26.7692 17.4988 26.7424 17.472 26.7424C17.4184 26.7424 17.3648 26.7156 17.3112 26.7156C17.2576 26.7156 17.204 26.6888 17.1503 26.662H17.1236C17.0967 26.662 17.0967 26.662 17.0699 26.6352C17.0699 26.6352 17.0699 26.6352 17.0431 26.6352C16.7483 26.5816 16.5607 26.3941 16.4802 26.1261ZM16.8555 27.1711H16.8823C16.9091 27.1711 16.9359 27.1711 16.9627 27.1979C17.0163 27.2246 17.0967 27.2246 17.1503 27.2514C17.204 27.2782 17.2844 27.2782 17.338 27.305C17.3916 27.305 17.4452 27.3318 17.4988 27.3318C17.7669 27.3854 18.0349 27.3854 18.3029 27.3854C19.3483 27.3854 20.3132 27.0639 21.1442 26.4477C21.9483 25.8582 22.5916 25.0008 22.8864 24.0363C23.0473 23.554 23.1277 23.045 23.1277 22.5359C23.1277 22.0269 23.0473 21.5178 22.8864 21.0355C22.5648 20.071 21.9483 19.2136 21.1442 18.6242C21.0638 18.5706 21.0102 18.517 20.9297 18.4902C20.6617 18.3027 20.3669 18.1687 20.0452 18.0347C20.0184 18.0079 19.9648 18.0079 19.938 17.9812H19.9112C19.6968 17.9008 19.4823 17.8472 19.2411 17.7936C18.839 17.7132 18.571 17.3649 18.571 16.9362C18.571 16.6683 18.6782 16.4272 18.8926 16.2664C19.0802 16.1324 19.2947 16.0521 19.5091 16.0789C19.5627 16.0789 19.5895 16.1057 19.6431 16.1057C19.7236 16.1057 19.804 16.1324 19.8844 16.1592C19.938 16.1592 19.9916 16.186 20.0452 16.186C20.0988 16.2128 20.1792 16.2128 20.2328 16.2396C20.2864 16.2664 20.3668 16.2932 20.4205 16.2932C20.5277 16.32 20.6617 16.3736 20.7689 16.4272C21.0369 16.5343 21.2782 16.6415 21.5194 16.7755C21.573 16.8023 21.6266 16.8291 21.6803 16.8559C21.7607 16.9094 21.8679 16.963 21.9483 17.0166C22.0287 17.0702 22.1091 17.1238 22.1895 17.1774C23.3153 17.9812 24.1462 19.16 24.5751 20.4729C24.7895 21.1159 24.8967 21.8125 24.8967 22.5091C24.8967 23.2057 24.7895 23.9024 24.5751 24.5454C24.5483 24.599 24.5215 24.6793 24.5215 24.7329C24.4947 24.7865 24.4679 24.8669 24.4411 24.9205C24.4143 24.9741 24.3875 25.0544 24.3607 25.108C24.2803 25.3224 24.173 25.5367 24.0658 25.7243C24.039 25.7778 23.9854 25.8582 23.9586 25.9118C23.905 25.9922 23.8514 26.0994 23.771 26.1797C23.7174 26.2333 23.6906 26.3137 23.6369 26.3673C23.5833 26.4477 23.5029 26.5548 23.4225 26.6352C23.3689 26.7156 23.2885 26.796 23.2349 26.8496C23.2081 26.8763 23.1813 26.9299 23.1545 26.9567C23.0741 27.0371 22.9936 27.1175 22.9132 27.1979C22.6988 27.4122 22.4308 27.6265 22.1895 27.8141C21.0638 28.6447 19.7236 29.0733 18.3297 29.0733C16.9359 29.0733 15.5957 28.6447 14.4699 27.8141C13.7194 27.2514 13.0493 26.528 12.5937 25.7243C12.4596 25.5099 12.4596 25.242 12.5401 25.0008C12.6473 24.7597 12.8349 24.5722 13.1029 24.4918C13.1833 24.465 13.2906 24.4382 13.371 24.4382C13.6658 24.4382 13.9607 24.599 14.1215 24.8669C14.4699 25.4831 14.9256 26.019 15.4885 26.4209C15.8906 26.796 16.373 27.0371 16.8555 27.1711ZM24.4679 28.9126C24.2803 29.1001 24.039 29.1805 23.771 29.1537C23.5029 29.1269 23.2885 28.993 23.1277 28.8054C22.8596 28.4571 22.9132 27.9748 23.2349 27.6533C23.2617 27.6265 23.2617 27.6265 23.2885 27.5997C23.3421 27.5462 23.4225 27.4658 23.4761 27.3854C23.5833 27.2782 23.6638 27.1711 23.7442 27.0639C23.8246 26.9567 23.9318 26.8495 24.0122 26.7424C24.0658 26.662 24.1194 26.5816 24.173 26.5012C24.2266 26.4477 24.2534 26.3673 24.3071 26.2869C24.3339 26.2333 24.3875 26.1797 24.4143 26.0994C24.4411 26.0458 24.4679 26.019 24.4947 25.9654C24.5215 25.9118 24.5751 25.8314 24.6019 25.7778C24.6287 25.751 24.6287 25.6975 24.6555 25.6707C24.7091 25.5903 24.7359 25.4831 24.7895 25.4027C24.8967 25.1884 24.9772 24.9741 25.0308 24.7597C25.272 24.0631 25.3792 23.3129 25.3792 22.5627C25.3792 21.8125 25.272 21.0623 25.0308 20.3657C24.5751 18.9457 23.6638 17.6864 22.4576 16.8023C22.3772 16.7487 22.2968 16.6683 22.1895 16.6147C22.1627 16.5879 22.1359 16.5611 22.0823 16.5611C21.8947 16.454 21.7071 16.3468 21.5194 16.2396C21.4658 16.2128 21.4122 16.186 21.3586 16.1592C21.1978 16.0789 21.0638 15.9985 20.8761 15.9449C20.8225 15.9181 20.7689 15.8913 20.7153 15.8913C20.6349 15.8645 20.5545 15.8377 20.4741 15.8109C20.4205 15.8109 20.3937 15.7841 20.34 15.7573C20.2328 15.7305 20.0988 15.677 19.9648 15.6502C19.8844 15.6234 19.804 15.5966 19.7236 15.5966H19.6967C19.6699 15.5966 19.67 15.5966 19.6431 15.5966C19.6163 15.5966 19.5895 15.5966 19.5895 15.5966C19.4823 15.5698 19.3751 15.5698 19.2679 15.543C18.839 15.4894 18.5174 15.1143 18.5174 14.6856C18.5174 14.4445 18.6246 14.2034 18.8122 14.0426C18.973 13.9087 19.1875 13.8283 19.4019 13.8283C19.4555 13.8283 19.4823 13.8283 19.5359 13.8283C20.9565 14.0426 22.2968 14.5785 23.4761 15.4358C24.9772 16.5343 26.1297 18.1151 26.6926 19.8566C26.9875 20.7408 27.1215 21.6517 27.1215 22.5895C27.1215 23.5272 26.9875 24.4382 26.6926 25.3224C26.2906 26.662 25.5132 27.8945 24.4679 28.9126ZM26.505 11.792C25.7813 11.3097 24.8967 11.0418 23.9586 11.0418H13.237C12.2988 11.0418 11.4143 11.3097 10.6906 11.792C9.40397 12.6226 8.54624 14.0962 8.54624 15.7306V29.1269C8.54624 30.7881 9.40397 32.2349 10.6906 33.0655C11.4143 33.5477 12.2988 33.8157 13.237 33.8157H23.9586C24.8967 33.8157 25.7813 33.5477 26.505 33.0655C27.7916 32.2349 28.6493 30.7881 28.6493 29.1269V15.7306C28.6493 14.0694 27.7916 12.6226 26.505 11.792ZM16.4802 26.1261C16.3998 25.8582 16.4266 25.5635 16.6143 25.3224C16.7751 25.108 17.0431 24.9741 17.3112 24.9741C17.3916 24.9741 17.4988 24.9741 17.5792 25.0276C17.7937 25.0812 18.0349 25.108 18.2761 25.108C18.8122 25.108 19.3483 24.9473 19.7772 24.6258C20.206 24.3042 20.5545 23.8488 20.7153 23.3397C20.7957 23.0718 20.8493 22.8306 20.8493 22.5359C20.8493 22.268 20.7957 22.0001 20.7153 21.7589C20.5545 21.2499 20.2328 20.7944 19.7772 20.4729C19.5895 20.3389 19.3751 20.2049 19.1607 20.1514C18.7854 20.0174 18.571 19.6959 18.571 19.3208C18.571 19.0261 18.705 18.7849 18.9462 18.6242C19.1607 18.4634 19.4287 18.4098 19.6699 18.4902C19.6967 18.4902 19.7235 18.517 19.7504 18.517C19.8576 18.5438 19.938 18.5974 20.0184 18.6242C20.0988 18.6778 20.206 18.7045 20.2864 18.7581C20.3668 18.8117 20.4473 18.8385 20.5277 18.8921C20.5545 18.8921 20.5545 18.9189 20.5813 18.9189C20.6617 18.9725 20.7421 19.0261 20.8225 19.0796C21.5462 19.6155 22.1091 20.3657 22.3772 21.2231C22.5112 21.6518 22.5916 22.0804 22.5916 22.5359C22.5916 22.9914 22.5112 23.4469 22.3772 23.8756C22.1091 24.7329 21.5462 25.4831 20.8225 26.019C20.0988 26.5548 19.2143 26.8496 18.3029 26.8496C18.1957 26.8496 18.0617 26.8496 17.9545 26.8228C17.9009 26.8228 17.8473 26.8228 17.7937 26.796C17.74 26.796 17.6596 26.7692 17.606 26.7692C17.5524 26.7692 17.4988 26.7424 17.472 26.7424C17.4184 26.7424 17.3648 26.7156 17.3112 26.7156C17.2576 26.7156 17.204 26.6888 17.1503 26.662H17.1236C17.0967 26.662 17.0967 26.662 17.0699 26.6352C17.0699 26.6352 17.0699 26.6352 17.0431 26.6352C16.7483 26.5816 16.5607 26.3941 16.4802 26.1261ZM16.8555 27.1711H16.8823C16.9091 27.1711 16.9359 27.1711 16.9627 27.1979C17.0163 27.2246 17.0967 27.2246 17.1503 27.2514C17.204 27.2782 17.2844 27.2782 17.338 27.305C17.3916 27.305 17.4452 27.3318 17.4988 27.3318C17.7669 27.3854 18.0349 27.3854 18.3029 27.3854C19.3483 27.3854 20.3132 27.0639 21.1442 26.4477C21.9483 25.8582 22.5916 25.0008 22.8864 24.0363C23.0473 23.554 23.1277 23.045 23.1277 22.5359C23.1277 22.0269 23.0473 21.5178 22.8864 21.0355C22.5648 20.071 21.9483 19.2136 21.1442 18.6242C21.0638 18.5706 21.0102 18.517 20.9297 18.4902C20.6617 18.3027 20.3669 18.1687 20.0452 18.0347C20.0184 18.0079 19.9648 18.0079 19.938 17.9812H19.9112C19.6968 17.9008 19.4823 17.8472 19.2411 17.7936C18.839 17.7132 18.571 17.3649 18.571 16.9362C18.571 16.6683 18.6782 16.4272 18.8926 16.2664C19.0802 16.1324 19.2947 16.0521 19.5091 16.0789C19.5627 16.0789 19.5895 16.1057 19.6431 16.1057C19.7236 16.1057 19.804 16.1324 19.8844 16.1592C19.938 16.1592 19.9916 16.186 20.0452 16.186C20.0988 16.2128 20.1792 16.2128 20.2328 16.2396C20.2864 16.2664 20.3668 16.2932 20.4205 16.2932C20.5277 16.32 20.6617 16.3736 20.7689 16.4272C21.0369 16.5343 21.2782 16.6415 21.5194 16.7755C21.573 16.8023 21.6266 16.8291 21.6803 16.8559C21.7607 16.9094 21.8679 16.963 21.9483 17.0166C22.0287 17.0702 22.1091 17.1238 22.1895 17.1774C23.3153 17.9812 24.1462 19.16 24.5751 20.4729C24.7895 21.1159 24.8967 21.8125 24.8967 22.5091C24.8967 23.2057 24.7895 23.9024 24.5751 24.5454C24.5483 24.599 24.5215 24.6793 24.5215 24.7329C24.4947 24.7865 24.4679 24.8669 24.4411 24.9205C24.4143 24.9741 24.3875 25.0544 24.3607 25.108C24.2803 25.3224 24.173 25.5367 24.0658 25.7243C24.039 25.7778 23.9854 25.8582 23.9586 25.9118C23.905 25.9922 23.8514 26.0994 23.771 26.1797C23.7174 26.2333 23.6906 26.3137 23.6369 26.3673C23.5833 26.4477 23.5029 26.5548 23.4225 26.6352C23.3689 26.7156 23.2885 26.796 23.2349 26.8496C23.2081 26.8763 23.1813 26.9299 23.1545 26.9567C23.0741 27.0371 22.9936 27.1175 22.9132 27.1979C22.6988 27.4122 22.4308 27.6265 22.1895 27.8141C21.0638 28.6447 19.7236 29.0733 18.3297 29.0733C16.9359 29.0733 15.5957 28.6447 14.4699 27.8141C13.7194 27.2514 13.0493 26.528 12.5937 25.7243C12.4596 25.5099 12.4596 25.242 12.5401 25.0008C12.6473 24.7597 12.8349 24.5722 13.1029 24.4918C13.1833 24.465 13.2906 24.4382 13.371 24.4382C13.6658 24.4382 13.9607 24.599 14.1215 24.8669C14.4699 25.4831 14.9256 26.019 15.4885 26.4209C15.8906 26.796 16.373 27.0371 16.8555 27.1711ZM24.4679 28.9126C24.2803 29.1001 24.039 29.1805 23.771 29.1537C23.5029 29.1269 23.2885 28.993 23.1277 28.8054C22.8596 28.4571 22.9132 27.9748 23.2349 27.6533C23.2617 27.6265 23.2617 27.6265 23.2885 27.5997C23.3421 27.5462 23.4225 27.4658 23.4761 27.3854C23.5833 27.2782 23.6638 27.1711 23.7442 27.0639C23.8246 26.9567 23.9318 26.8495 24.0122 26.7424C24.0658 26.662 24.1194 26.5816 24.173 26.5012C24.2266 26.4477 24.2534 26.3673 24.3071 26.2869C24.3339 26.2333 24.3875 26.1797 24.4143 26.0994C24.4411 26.0458 24.4679 26.019 24.4947 25.9654C24.5215 25.9118 24.5751 25.8314 24.6019 25.7778C24.6287 25.751 24.6287 25.6975 24.6555 25.6707C24.7091 25.5903 24.7359 25.4831 24.7895 25.4027C24.8967 25.1884 24.9772 24.9741 25.0308 24.7597C25.272 24.0631 25.3792 23.3129 25.3792 22.5627C25.3792 21.8125 25.272 21.0623 25.0308 20.3657C24.5751 18.9457 23.6638 17.6864 22.4576 16.8023C22.3772 16.7487 22.2968 16.6683 22.1895 16.6147C22.1627 16.5879 22.1359 16.5611 22.0823 16.5611C21.8947 16.454 21.7071 16.3468 21.5194 16.2396C21.4658 16.2128 21.4122 16.186 21.3586 16.1592C21.1978 16.0789 21.0638 15.9985 20.8761 15.9449C20.8225 15.9181 20.7689 15.8913 20.7153 15.8913C20.6349 15.8645 20.5545 15.8377 20.4741 15.8109C20.4205 15.8109 20.3937 15.7841 20.34 15.7573C20.2328 15.7305 20.0988 15.677 19.9648 15.6502C19.8844 15.6234 19.804 15.5966 19.7236 15.5966H19.6967C19.6699 15.5966 19.67 15.5966 19.6431 15.5966C19.6163 15.5966 19.5895 15.5966 19.5895 15.5966C19.4823 15.5698 19.3751 15.5698 19.2679 15.543C18.839 15.4894 18.5174 15.1143 18.5174 14.6856C18.5174 14.4445 18.6246 14.2034 18.8122 14.0426C18.973 13.9087 19.1875 13.8283 19.4019 13.8283C19.4555 13.8283 19.4823 13.8283 19.5359 13.8283C20.9565 14.0426 22.2968 14.5785 23.4761 15.4358C24.9772 16.5343 26.1297 18.1151 26.6926 19.8566C26.9875 20.7408 27.1215 21.6517 27.1215 22.5895C27.1215 23.5272 26.9875 24.4382 26.6926 25.3224C26.2906 26.662 25.5132 27.8945 24.4679 28.9126Z" fill="white"/>
<path d="M31.0618 14.3905C30.6062 11.9524 28.9175 9.9429 26.666 9.03195C25.835 8.68364 24.9237 8.49609 23.9588 8.49609H13.2371C12.2722 8.49609 11.3608 8.68364 10.5299 9.03195C7.87629 10.1037 6 12.7026 6 15.7301V29.1265C6 32.1541 7.87629 34.753 10.5299 35.8247C11.3608 36.173 12.2722 36.3606 13.2371 36.3606H23.9588C24.9237 36.3606 25.835 36.173 26.666 35.8247C29.3196 34.753 31.1959 32.1541 31.1959 29.1265V15.7301C31.1959 15.2747 31.1423 14.8192 31.0618 14.3905ZM27.8186 33.7349C26.7732 34.619 25.433 35.1281 23.9588 35.1281H13.2371C11.7629 35.1281 10.4227 34.5922 9.37731 33.7349C8.06391 32.6364 7.20618 30.9752 7.20618 29.1265V15.7301C7.20618 13.8814 8.06391 12.2203 9.37731 11.1218C10.4227 10.2376 11.7629 9.72855 13.2371 9.72855H23.9588C25.433 9.72855 26.7732 10.2644 27.8186 11.1218C29.132 12.2203 29.9897 13.8814 29.9897 15.7301V29.1265C29.9897 30.9752 29.1588 32.6364 27.8186 33.7349Z" fill="black"/>
<path d="M31.196 19.7489H30.9548C30.4991 19.7489 30.1506 19.4006 30.1506 18.9451V15.1942C30.1506 14.7387 30.4991 14.3904 30.9548 14.3904H31.196C31.6517 14.3904 32.0001 14.7387 32.0001 15.1942V18.9451C32.0001 19.4006 31.6517 19.7489 31.196 19.7489Z" fill="black"/>
<path d="M30.8207 29.1801C30.365 29.1801 30.0166 28.8318 30.0166 28.3763V23.2857C30.0166 22.8302 30.365 22.4819 30.8207 22.4819C31.2764 22.4819 31.6248 22.8302 31.6248 23.2857V28.3763C31.6248 28.8318 31.2496 29.1801 30.8207 29.1801Z" fill="black"/>
<path d="M26.5051 11.7915C25.7814 11.3092 24.8969 11.0413 23.9588 11.0413H13.2371C12.299 11.0413 11.4144 11.3092 10.6907 11.7915C9.40412 12.622 8.54639 14.0956 8.54639 15.73V29.1264C8.54639 30.7875 9.40412 32.2343 10.6907 33.0649C11.4144 33.5472 12.299 33.8151 13.2371 33.8151H23.9588C24.8969 33.8151 25.7814 33.5472 26.5051 33.0649C27.7917 32.2343 28.6495 30.7875 28.6495 29.1264V15.73C28.6495 14.0688 27.7917 12.622 26.5051 11.7915ZM16.4804 26.1256C16.4 25.8577 16.4268 25.5629 16.6144 25.3218C16.7752 25.1075 17.0433 24.9735 17.3113 24.9735C17.3917 24.9735 17.499 24.9735 17.5794 25.0271C17.7938 25.0807 18.035 25.1075 18.2763 25.1075C18.8124 25.1075 19.3485 24.9467 19.7773 24.6252C20.2062 24.3037 20.5546 23.8482 20.7155 23.3391C20.7959 23.0712 20.8495 22.8301 20.8495 22.5354C20.8495 22.2674 20.7959 21.9995 20.7155 21.7584C20.5546 21.2493 20.233 20.7938 19.7773 20.4723C19.5897 20.3383 19.3752 20.2044 19.1608 20.1508C18.7856 20.0168 18.5711 19.6953 18.5711 19.3202C18.5711 19.0255 18.7051 18.7844 18.9464 18.6236C19.1608 18.4628 19.4289 18.4093 19.6701 18.4896C19.6969 18.4896 19.7237 18.5164 19.7505 18.5164C19.8577 18.5432 19.9381 18.5968 20.0185 18.6236C20.099 18.6772 20.2062 18.704 20.2866 18.7576C20.367 18.8112 20.4474 18.8379 20.5278 18.8915C20.5546 18.8915 20.5546 18.9183 20.5814 18.9183C20.6619 18.9719 20.7423 19.0255 20.8227 19.0791C21.5464 19.6149 22.1093 20.3651 22.3773 21.2225C22.5113 21.6512 22.5918 22.0799 22.5918 22.5354C22.5918 22.9908 22.5113 23.4463 22.3773 23.875C22.1093 24.7324 21.5464 25.4826 20.8227 26.0184C20.099 26.5543 19.2144 26.849 18.3031 26.849C18.1959 26.849 18.0618 26.849 17.9546 26.8222C17.901 26.8222 17.8474 26.8222 17.7938 26.7954C17.7402 26.7954 17.6598 26.7686 17.6062 26.7686C17.5526 26.7686 17.499 26.7418 17.4722 26.7418C17.4185 26.7418 17.3649 26.715 17.3113 26.715C17.2577 26.715 17.2041 26.6882 17.1505 26.6614H17.1237C17.0969 26.6614 17.0969 26.6614 17.0701 26.6346C17.0701 26.6346 17.0701 26.6346 17.0433 26.6346C16.7484 26.5811 16.5608 26.3935 16.4804 26.1256ZM16.8557 27.1705H16.8825C16.9093 27.1705 16.9361 27.1705 16.9629 27.1973C17.0165 27.2241 17.0969 27.2241 17.1505 27.2509C17.2041 27.2777 17.2845 27.2777 17.3381 27.3045C17.3917 27.3045 17.4454 27.3313 17.499 27.3313C17.767 27.3848 18.0351 27.3848 18.3031 27.3848C19.3485 27.3848 20.3134 27.0633 21.1443 26.4471C21.9484 25.8577 22.5917 25.0003 22.8866 24.0357C23.0474 23.5535 23.1278 23.0444 23.1278 22.5354C23.1278 22.0263 23.0474 21.5172 22.8866 21.035C22.5649 20.0704 21.9484 19.213 21.1443 18.6236C21.0639 18.57 21.0103 18.5164 20.9299 18.4896C20.6619 18.3021 20.367 18.1681 20.0454 18.0342C20.0186 18.0074 19.9649 18.0074 19.9381 17.9806H19.9113C19.6969 17.9002 19.4825 17.8466 19.2412 17.793C18.8392 17.7127 18.5711 17.3644 18.5711 16.9357C18.5711 16.6677 18.6783 16.4266 18.8928 16.2658C19.0804 16.1319 19.2948 16.0515 19.5093 16.0783C19.5629 16.0783 19.5897 16.1051 19.6433 16.1051C19.7237 16.1051 19.8041 16.1319 19.8845 16.1587C19.9381 16.1587 19.9918 16.1855 20.0454 16.1855C20.099 16.2123 20.1794 16.2123 20.233 16.2391C20.2866 16.2659 20.367 16.2926 20.4206 16.2926C20.5278 16.3194 20.6618 16.373 20.7691 16.4266C21.0371 16.5338 21.2783 16.641 21.5196 16.7749C21.5732 16.8017 21.6268 16.8285 21.6804 16.8553C21.7608 16.9089 21.868 16.9625 21.9484 17.016C22.0289 17.0696 22.1093 17.1232 22.1897 17.1768C23.3155 17.9806 24.1464 19.1595 24.5752 20.4723C24.7897 21.1153 24.8969 21.8119 24.8969 22.5086C24.8969 23.2052 24.7897 23.9018 24.5752 24.5448C24.5484 24.5984 24.5216 24.6788 24.5216 24.7324C24.4948 24.7859 24.468 24.8663 24.4412 24.9199C24.4144 24.9735 24.3876 25.0539 24.3608 25.1075C24.2804 25.3218 24.1732 25.5361 24.066 25.7237C24.0392 25.7773 23.9856 25.8577 23.9588 25.9112C23.9051 25.9916 23.8515 26.0988 23.7711 26.1792C23.7175 26.2328 23.6907 26.3131 23.6371 26.3667C23.5835 26.4471 23.5031 26.5543 23.4227 26.6346C23.3691 26.715 23.2886 26.7954 23.235 26.849C23.2082 26.8758 23.1814 26.9294 23.1546 26.9562C23.0742 27.0365 22.9938 27.1169 22.9134 27.1973C22.699 27.4116 22.4309 27.626 22.1897 27.8135C21.0639 28.6441 19.7237 29.0728 18.3299 29.0728C16.9361 29.0728 15.5959 28.6441 14.4701 27.8135C13.7196 27.2509 13.0495 26.5275 12.5938 25.7237C12.4598 25.5093 12.4598 25.2414 12.5402 25.0003C12.6474 24.7591 12.835 24.5716 13.1031 24.4912C13.1835 24.4644 13.2907 24.4376 13.3711 24.4376C13.666 24.4376 13.9608 24.5984 14.1216 24.8663C14.4701 25.4825 14.9258 26.0184 15.4887 26.4203C15.8907 26.7954 16.3732 27.0365 16.8557 27.1705ZM24.468 28.912C24.2804 29.0996 24.0392 29.1799 23.7711 29.1532C23.5031 29.1264 23.2887 28.9924 23.1278 28.8049C22.8598 28.4565 22.9134 27.9743 23.235 27.6528C23.2618 27.626 23.2618 27.626 23.2887 27.5992C23.3423 27.5456 23.4227 27.4652 23.4763 27.3848C23.5835 27.2777 23.6639 27.1705 23.7443 27.0633C23.8247 26.9562 23.932 26.849 24.0124 26.7418C24.066 26.6614 24.1196 26.5811 24.1732 26.5007C24.2268 26.4471 24.2536 26.3667 24.3072 26.2863C24.334 26.2328 24.3876 26.1792 24.4144 26.0988C24.4412 26.0452 24.468 26.0184 24.4948 25.9648C24.5216 25.9112 24.5753 25.8309 24.6021 25.7773C24.6289 25.7505 24.6289 25.6969 24.6557 25.6701C24.7093 25.5897 24.7361 25.4825 24.7897 25.4022C24.8969 25.1878 24.9773 24.9735 25.0309 24.7592C25.2722 24.0625 25.3794 23.3123 25.3794 22.5621C25.3794 21.8119 25.2722 21.0617 25.0309 20.3651C24.5752 18.9451 23.6639 17.6859 22.4577 16.8017C22.3773 16.7481 22.2969 16.6677 22.1897 16.6141C22.1629 16.5874 22.1361 16.5606 22.0825 16.5606C21.8948 16.4534 21.7072 16.3462 21.5196 16.2391C21.466 16.2123 21.4124 16.1855 21.3588 16.1587C21.1979 16.0783 21.0639 15.9979 20.8763 15.9443C20.8227 15.9175 20.7691 15.8907 20.7155 15.8907C20.635 15.8639 20.5546 15.8372 20.4742 15.8104C20.4206 15.8104 20.3938 15.7836 20.3402 15.7568C20.233 15.73 20.099 15.6764 19.9649 15.6496C19.8845 15.6228 19.8041 15.596 19.7237 15.596H19.6969C19.6701 15.596 19.6701 15.596 19.6433 15.596C19.6165 15.596 19.5897 15.596 19.5897 15.596C19.4825 15.5692 19.3752 15.5692 19.268 15.5424C18.8392 15.4889 18.5175 15.1138 18.5175 14.6851C18.5175 14.4439 18.6247 14.2028 18.8124 14.0421C18.9732 13.9081 19.1876 13.8277 19.4021 13.8277C19.4557 13.8277 19.4825 13.8277 19.5361 13.8277C20.9567 14.0421 22.2969 14.5779 23.4763 15.4353C24.9773 16.5338 26.1299 18.1146 26.6928 19.8561C26.9876 20.7402 27.1216 21.6512 27.1216 22.5889C27.1216 23.5267 26.9876 24.4376 26.6928 25.3218C26.2907 26.6614 25.5134 27.8939 24.468 28.912Z" fill="black"/>
</g>
</svg>
